<svg width="72" height="71" viewBox="0 0 72 71" fill="none" xmlns="http://www.w3.org/2000/svg">
<path d="M36.1649 21.4841V35.5657M36.1649 49.6472H36.2001M4.48145 35.5657C4.48145 39.7264 5.30096 43.8464 6.89321 47.6904C8.48545 51.5344 10.8192 55.0272 13.7613 57.9693C16.7034 60.9114 20.1962 63.2451 24.0402 64.8374C27.8842 66.4296 32.0042 67.2491 36.1649 67.2491C40.3256 67.2491 44.4456 66.4296 48.2897 64.8374C52.1337 63.2451 55.6264 60.9114 58.5685 57.9693C61.5106 55.0272 63.8444 51.5344 65.4366 47.6904C67.0289 43.8464 67.8484 39.7264 67.8484 35.5657C67.8484 27.1627 64.5103 19.1039 58.5685 13.1621C52.6267 7.22027 44.5679 3.8822 36.1649 3.8822C27.7619 3.8822 19.7031 7.22027 13.7613 13.1621C7.81952 19.1039 4.48145 27.1627 4.48145 35.5657Z" stroke="#EF3939" stroke-width="7.04077" stroke-linecap="round" stroke-linejoin="round"/>
</svg>
