<svg width="65" height="27" viewBox="0 0 65 27" fill="none" xmlns="http://www.w3.org/2000/svg">
<path fill-rule="evenodd" clip-rule="evenodd" d="M9.39622 5.18401C10.5843 5.28423 11.7723 4.5827 12.5149 3.69325C13.245 2.77876 13.7277 1.55108 13.6039 0.29834C12.552 0.348449 11.2526 0.999872 10.51 1.91437C9.82936 2.70359 9.24771 3.98138 9.39622 5.18401ZM23.5296 21.3189V1.78875H30.7693C34.5068 1.78875 37.118 4.39444 37.118 8.20276C37.118 12.0111 34.4573 14.6418 30.6703 14.6418H26.5245V21.3189H23.5296ZM13.5915 5.42168C12.5448 5.3607 11.5898 5.74031 10.8184 6.04693C10.322 6.24425 9.90158 6.41134 9.58176 6.41134C9.22287 6.41134 8.78514 6.23532 8.29367 6.03768L8.29367 6.03768C7.64968 5.77871 6.91343 5.48264 6.14135 5.49685C4.37164 5.5219 2.72568 6.53662 1.82226 8.15264C-0.0340793 11.3847 1.33961 16.1702 3.13408 18.8009C4.01274 20.1037 5.06467 21.5319 6.45074 21.4817C7.06052 21.4585 7.49917 21.27 7.95312 21.0751C8.47575 20.8506 9.01867 20.6174 9.8664 20.6174C10.6847 20.6174 11.2039 20.8445 11.7023 21.0625C12.1762 21.2698 12.6313 21.4689 13.3068 21.4567C14.7424 21.4316 15.6458 20.1538 16.5245 18.851C17.4727 17.4527 17.8894 16.088 17.9526 15.8809L17.96 15.857C17.9585 15.8554 17.9468 15.85 17.9261 15.8404C17.6092 15.6935 15.1864 14.5708 15.1632 11.5601C15.1398 9.03304 17.0848 7.75268 17.391 7.55113C17.4097 7.53886 17.4222 7.53059 17.4279 7.52628C16.1903 5.67223 14.2597 5.47179 13.5915 5.42168ZM42.5879 21.4688C44.469 21.4688 46.2139 20.5042 47.006 18.9759H47.0678V21.3185H49.84V11.5973C49.84 8.77861 47.6124 6.96214 44.1843 6.96214C41.0038 6.96214 38.6524 8.80366 38.5658 11.3342H41.2637C41.4865 10.1316 42.5879 9.34234 44.0977 9.34234C45.9293 9.34234 46.9565 10.2067 46.9565 11.7977V12.875L43.219 13.1005C39.7415 13.3135 37.8604 14.7542 37.8604 17.2596C37.8604 19.7901 39.8034 21.4688 42.5879 21.4688ZM43.3924 19.1514C41.796 19.1514 40.7812 18.3747 40.7812 17.1846C40.7812 15.9569 41.7589 15.2428 43.6276 15.1301L46.9566 14.9171V16.0195C46.9566 17.8485 45.422 19.1514 43.3924 19.1514ZM59.0344 22.0835C57.834 25.5035 56.4603 26.631 53.5397 26.631C53.3169 26.631 52.5744 26.6059 52.4011 26.5558V24.2132C52.5868 24.2382 53.0446 24.2633 53.2798 24.2633C54.604 24.2633 55.3465 23.6996 55.8044 22.2339L56.0767 21.3695L51.0027 7.15094H54.1337L57.6608 18.6886H57.7226L61.2497 7.15094H64.2941L59.0344 22.0835ZM26.5244 4.34412H29.9772C32.576 4.34412 34.0611 5.74719 34.0611 8.21508C34.0611 10.683 32.576 12.0986 29.9648 12.0986H26.5244V4.34412Z" fill="black"/>
</svg>
