<svg width="37" height="37" viewBox="0 0 37 37" fill="none" xmlns="http://www.w3.org/2000/svg">
<circle cx="18.5" cy="18.6287" r="18" fill="black"/>
<g clip-path="url(#clip0_100_369)">
<path d="M18.6461 11.8181C18.5828 11.8188 18.5199 11.807 18.4612 11.7834C18.4024 11.7598 18.3488 11.7249 18.3036 11.6806C18.2583 11.6363 18.2222 11.5835 18.1973 11.5252C18.1725 11.467 18.1593 11.4044 18.1586 11.341C18.1586 9.49504 19.6874 8.00004 21.5698 8.00004C21.6332 7.99919 21.6961 8.01086 21.755 8.03441C21.8139 8.05795 21.8675 8.0929 21.9128 8.13723C21.9581 8.18157 21.9942 8.23443 22.019 8.29276C22.0438 8.35109 22.0568 8.41376 22.0573 8.47714C22.0573 10.3231 20.5298 11.8181 18.6461 11.8181Z" fill="white"/>
<path d="M18.6461 11.8181C18.5828 11.8188 18.5199 11.807 18.4612 11.7834C18.4024 11.7598 18.3488 11.7249 18.3036 11.6806C18.2583 11.6363 18.2222 11.5835 18.1973 11.5252C18.1725 11.467 18.1593 11.4044 18.1586 11.341C18.1586 9.49504 19.6874 8.00004 21.5698 8.00004C21.6332 7.99919 21.6961 8.01086 21.755 8.03441C21.8138 8.05795 21.8675 8.0929 21.9128 8.13723C21.9581 8.18157 21.9942 8.23443 22.019 8.29276C22.0438 8.35109 22.0568 8.41376 22.0573 8.47714C22.0573 10.3231 20.5298 11.8181 18.6461 11.8181ZM25.7636 21.8684C25.9521 22.0062 26.0132 22.2584 25.9066 22.4638C24.1906 25.8256 22.8217 27.5 21.5711 27.5C20.9887 27.5 20.4167 27.3154 19.859 26.9566C19.4587 26.6997 18.9952 26.5583 18.5196 26.5482C18.0441 26.5381 17.575 26.6597 17.1641 26.8994C16.4881 27.2959 15.8446 27.5 15.2336 27.5C13.3941 27.5 10.3586 21.9529 10.3586 18.9096C10.3586 15.6596 12.0993 13.1818 14.7461 13.1818C15.9915 13.1818 17.0666 13.3612 17.9701 13.7265C18.3523 13.8799 18.7852 13.8695 19.1583 13.694C19.8915 13.3482 20.8587 13.1818 22.0573 13.1818C23.5224 13.1818 24.8003 13.8968 25.8611 15.2813C25.8995 15.3313 25.9275 15.3884 25.9434 15.4493C25.9592 15.5103 25.9628 15.5738 25.9537 15.6361C25.9446 15.6984 25.9231 15.7582 25.8904 15.8121C25.8578 15.8659 25.8147 15.9127 25.7636 15.9495C24.5793 16.8205 24.0086 17.7968 24.0086 18.9096C24.0086 20.0211 24.5793 20.9987 25.7636 21.8684Z" fill="white"/>
<path d="M25.7636 21.8682C25.9521 22.006 26.0132 22.2582 25.9066 22.4636C24.1906 25.8254 22.8217 27.4998 21.5711 27.4998C20.9887 27.4998 20.4167 27.3152 19.859 26.9564C19.4587 26.6994 18.9952 26.558 18.5196 26.5479C18.0441 26.5378 17.575 26.6594 17.1641 26.8992C16.4881 27.2957 15.8446 27.4998 15.2336 27.4998C13.3941 27.4998 10.3586 21.9527 10.3586 18.9094C10.3586 15.6594 12.0993 13.1816 14.7461 13.1816C15.9915 13.1816 17.0666 13.361 17.9701 13.7263C18.3523 13.8797 18.7852 13.8693 19.1583 13.6938C19.8915 13.348 20.8587 13.1816 22.0573 13.1816C23.5224 13.1816 24.8003 13.8966 25.8611 15.2811C25.8995 15.331 25.9275 15.3881 25.9434 15.4491C25.9592 15.51 25.9628 15.5735 25.9537 15.6358C25.9446 15.6981 25.9231 15.758 25.8904 15.8118C25.8578 15.8656 25.8147 15.9124 25.7636 15.9493C24.5793 16.8203 24.0086 17.7966 24.0086 18.9094C24.0086 20.0209 24.5793 20.9985 25.7636 21.8682Z" fill="white"/>
</g>
<defs>
<clipPath id="clip0_100_369">
<rect width="19.5" height="19.5" fill="white" transform="translate(8.40863 8)"/>
</clipPath>
</defs>
</svg>
