<svg width="10" height="16" viewBox="0 0 10 16" fill="none" xmlns="http://www.w3.org/2000/svg">
<path d="M9.1575 0.427446C9.06558 0.33529 8.95638 0.262173 8.83615 0.212286C8.71593 0.162398 8.58704 0.136719 8.45688 0.136719C8.32671 0.136719 8.19783 0.162398 8.0776 0.212286C7.95738 0.262173 7.84818 0.33529 7.75625 0.427446L1.1775 7.0062C1.10411 7.07944 1.04589 7.16643 1.00616 7.2622C0.966433 7.35797 0.945984 7.46064 0.945984 7.56432C0.945984 7.668 0.966433 7.77067 1.00616 7.86644C1.04589 7.96221 1.10411 8.04921 1.1775 8.12245L7.75625 14.7012C8.14417 15.0891 8.76959 15.0891 9.1575 14.7012C9.54542 14.3133 9.54542 13.6879 9.1575 13.2999L3.42584 7.56036L9.16542 1.82078C9.54542 1.44078 9.54542 0.807446 9.1575 0.427446Z" fill="url(#paint0_linear_100_486)" stroke="url(#paint1_linear_100_486)" stroke-width="0.2"/>
<defs>
<linearGradient id="paint0_linear_100_486" x1="5.19771" y1="0.136719" x2="5.19771" y2="14.9921" gradientUnits="userSpaceOnUse">
<stop stop-color="#86CED7"/>
<stop offset="1" stop-color="#6EB0DC"/>
</linearGradient>
<linearGradient id="paint1_linear_100_486" x1="5.19771" y1="0.136719" x2="5.19771" y2="14.9921" gradientUnits="userSpaceOnUse">
<stop stop-color="#86CED7"/>
<stop offset="1" stop-color="#6EB0DC"/>
</linearGradient>
</defs>
</svg>
