<svg width="37" height="25" viewBox="0 0 37 25" fill="none" xmlns="http://www.w3.org/2000/svg">
<path d="M11.2371 2.66965C11.4581 2.50676 11.7255 2.41888 12 2.41888C12.2745 2.41888 12.5419 2.50676 12.7629 2.66965L20.9031 8.67394C21.8666 9.38537 21.4157 10.8837 20.2689 10.9882H3.73115C2.58429 10.8837 2.13429 9.38537 3.09686 8.67394L11.238 2.66965H11.2371ZM12 8.41765C12.341 8.41765 12.668 8.28219 12.9091 8.04107C13.1503 7.79996 13.2857 7.47293 13.2857 7.13194C13.2857 6.79094 13.1503 6.46392 12.9091 6.2228C12.668 5.98168 12.341 5.84622 12 5.84622C11.659 5.84622 11.332 5.98168 11.0909 6.2228C10.8497 6.46392 10.7143 6.79094 10.7143 7.13194C10.7143 7.47293 10.8497 7.79996 11.0909 8.04107C11.332 8.28219 11.659 8.41765 12 8.41765ZM16.7143 11.8462H18.8563V16.9891H16.7134L16.7143 11.8462ZM15 16.9891V11.8462H12.8571V16.9891H15ZM11.1429 16.9899V11.8471H9V16.9899H11.1429ZM7.28657 16.9899V11.8471H5.14372V16.9899H7.28657ZM5.358 17.8471C4.61919 17.8471 3.91063 18.1406 3.38821 18.663C2.86578 19.1854 2.57229 19.894 2.57229 20.6328V21.0614C2.57251 21.2319 2.64029 21.3953 2.76078 21.516C2.88126 21.6366 3.04464 21.7046 3.21515 21.7051H20.784C20.9545 21.7051 21.118 21.6374 21.2386 21.5168C21.3591 21.3962 21.4269 21.2327 21.4269 21.0622V20.6337C21.4269 19.8948 21.1334 19.1863 20.6109 18.6639C20.0885 18.1414 19.38 17.8479 18.6411 17.8479H5.35886L5.358 17.8471Z" fill="#7C7C7C"/>
<path fill-rule="evenodd" clip-rule="evenodd" d="M29.2545 15.9884C28.5096 16.6312 27.5434 17.0193 26.4876 17.0193C24.1318 17.0193 22.222 15.0873 22.222 12.7042C22.222 10.3211 24.1318 8.38916 26.4876 8.38916C27.5434 8.38916 28.5096 8.77721 29.2545 9.42001C29.9993 8.77721 30.9655 8.38916 32.0213 8.38916C34.3771 8.38916 36.2869 10.3211 36.2869 12.7042C36.2869 15.0873 34.3771 17.0193 32.0213 17.0193C30.9655 17.0193 29.9993 16.6312 29.2545 15.9884Z" fill="#ED0006"/>
<path fill-rule="evenodd" clip-rule="evenodd" d="M29.2545 15.9884C30.1716 15.1969 30.7532 14.0193 30.7532 12.7042C30.7532 11.3891 30.1716 10.2115 29.2545 9.42001C29.9994 8.77721 30.9656 8.38916 32.0214 8.38916C34.3772 8.38916 36.2869 10.3211 36.2869 12.7042C36.2869 15.0873 34.3772 17.0193 32.0214 17.0193C30.9656 17.0193 29.9994 16.6312 29.2545 15.9884Z" fill="#F9A000"/>
<path fill-rule="evenodd" clip-rule="evenodd" d="M29.2545 15.9883C30.1716 15.1969 30.7531 14.0192 30.7531 12.7041C30.7531 11.389 30.1716 10.2114 29.2545 9.41992C28.3373 10.2114 27.7558 11.389 27.7558 12.7041C27.7558 14.0192 28.3373 15.1969 29.2545 15.9883Z" fill="#FF5E00"/>
</svg>
