<svg width="20" height="20" viewBox="0 0 20 20" fill="none" xmlns="http://www.w3.org/2000/svg">
<path d="M0 6.50146V10.5025H1V16.5015H0V19.5015H16L19 19.5025L20 19.5015V16.5015H19V10.5025H20V6.50146L10 0.501465L0 6.50146ZM4 16.5015V10.5025H6V16.5015H4ZM9 16.5015V10.5025H11V16.5015H9ZM16 16.5015H14V10.5025H16V16.5015ZM12 6.50146C11.9999 6.76417 11.9481 7.0243 11.8475 7.26698C11.7469 7.50967 11.5995 7.73017 11.4137 7.91589C11.2279 8.1016 11.0073 8.2489 10.7646 8.34938C10.5219 8.44985 10.2617 8.50153 9.999 8.50146C9.73629 8.5014 9.47617 8.44959 9.23348 8.34899C8.99079 8.2484 8.7703 8.10099 8.58458 7.91518C8.39886 7.72937 8.25156 7.5088 8.15109 7.26606C8.05061 7.02332 7.99893 6.76317 7.999 6.50046C7.99913 5.9699 8.21003 5.46112 8.58529 5.08604C8.96055 4.71097 9.46943 4.50033 10 4.50046C10.5306 4.5006 11.0393 4.71149 11.4144 5.08675C11.7895 5.46201 12.0001 5.9709 12 6.50146Z" fill="url(#paint0_linear_1506_7983)"/>
<defs>
<linearGradient id="paint0_linear_1506_7983" x1="10" y1="0.501465" x2="10" y2="19.5025" gradientUnits="userSpaceOnUse">
<stop stop-color="#86CED7"/>
<stop offset="1" stop-color="#6EB0DC"/>
</linearGradient>
</defs>
</svg>
