<svg width="21" height="21" viewBox="0 0 21 21" fill="none" xmlns="http://www.w3.org/2000/svg">
<path d="M6.40719 12.4958L9.94319 16.0308C10.037 16.1245 10.1641 16.1772 10.2967 16.1772C10.4293 16.1772 10.5564 16.1245 10.6502 16.0308L14.1862 12.4958C14.28 12.4021 14.4071 12.3494 14.5397 12.3494C14.6723 12.3494 14.7994 12.4021 14.8932 12.4958L16.4492 14.0508C16.5429 14.1446 16.5956 14.2717 16.5956 14.4043C16.5956 14.5369 16.5429 14.664 16.4492 14.7578L10.6502 20.5568C10.5564 20.6505 10.4293 20.7032 10.2967 20.7032C10.1641 20.7032 10.037 20.6505 9.94319 20.5568L4.14519 14.7578C4.05146 14.664 3.9988 14.5369 3.9988 14.4043C3.9988 14.2717 4.05146 14.1446 4.14519 14.0508L5.70119 12.4958C5.79496 12.4021 5.92211 12.3494 6.05469 12.3494C6.18728 12.3494 6.31443 12.4021 6.40819 12.4958H6.40719ZM18.5012 8.7608L18.5702 8.8188L20.1262 10.3738C20.209 10.4565 20.2602 10.5657 20.2708 10.6823C20.2814 10.7989 20.2507 10.9155 20.1842 11.0118L20.1262 11.0818L18.5702 12.6368C18.4875 12.7196 18.3783 12.7708 18.2617 12.7814C18.1451 12.792 18.0285 12.7613 17.9322 12.6948L17.8632 12.6368L16.3072 11.0808C16.2248 10.998 16.1739 10.889 16.1635 10.7726C16.1531 10.6562 16.1838 10.5399 16.2502 10.4438L16.3072 10.3738L17.8632 8.8188C17.9354 8.74661 18.0279 8.69824 18.1284 8.68018C18.2288 8.66213 18.3324 8.67525 18.4252 8.7178L18.5012 8.7608ZM2.73119 8.8188L4.28719 10.3738C4.38093 10.4676 4.43359 10.5947 4.43359 10.7273C4.43359 10.8599 4.38093 10.987 4.28719 11.0808L2.73119 12.6378C2.63743 12.7315 2.51028 12.7842 2.37769 12.7842C2.24511 12.7842 2.11796 12.7315 2.02419 12.6378L0.467194 11.0808C0.373459 10.987 0.320801 10.8599 0.320801 10.7273C0.320801 10.5947 0.373459 10.4676 0.467194 10.3738L2.02319 8.8188C2.11696 8.72506 2.24411 8.67241 2.37669 8.67241C2.50928 8.67241 2.63743 8.72506 2.73119 8.8188ZM10.5812 8.7608L10.6512 8.8188L12.2062 10.3738C12.289 10.4565 12.3402 10.5657 12.3508 10.6823C12.3614 10.7989 12.3307 10.9155 12.2642 11.0118L12.2062 11.0818L10.6512 12.6368C10.5685 12.7196 10.4593 12.7708 10.3427 12.7814C10.2261 12.792 10.1095 12.7613 10.0132 12.6948L9.94319 12.6368L8.38819 11.0808C8.30562 10.9981 8.2546 10.8892 8.24401 10.7728C8.23341 10.6564 8.26391 10.54 8.33019 10.4438L8.38819 10.3738L9.94319 8.8188C10.0154 8.74661 10.1079 8.69824 10.2084 8.68018C10.3088 8.66213 10.4124 8.67525 10.5052 8.7178L10.5812 8.7608ZM10.6512 0.898798L16.4492 6.6968C16.5429 6.79056 16.5956 6.91772 16.5956 7.0503C16.5956 7.18288 16.5429 7.31003 16.4492 7.4038L14.8932 8.9598C14.7994 9.05353 14.6723 9.10619 14.5397 9.10619C14.4071 9.10619 14.28 9.05353 14.1862 8.9598L10.6512 5.4248C10.6047 5.37824 10.5496 5.34129 10.4888 5.31609C10.4281 5.29088 10.363 5.2779 10.2972 5.2779C10.2314 5.2779 10.1663 5.29088 10.1056 5.31609C10.0448 5.34129 9.98964 5.37824 9.94319 5.4248L6.40819 8.9598C6.31443 9.05353 6.18728 9.10619 6.05469 9.10619C5.92211 9.10619 5.79496 9.05353 5.70119 8.9598L4.14519 7.4038C4.05146 7.31003 3.9988 7.18288 3.9988 7.0503C3.9988 6.91772 4.05146 6.79056 4.14519 6.6968L9.94319 0.898798C10.037 0.805063 10.1641 0.752405 10.2967 0.752405C10.4293 0.752405 10.5574 0.805063 10.6512 0.898798Z" fill="#00AFFA"/>
</svg>
