<svg width="31" height="31" viewBox="0 0 31 31" fill="none" xmlns="http://www.w3.org/2000/svg">
<circle cx="15.4971" cy="15.6895" r="15" fill="#237B9F"/>
<path d="M15.4962 18.9978C16.8883 18.9978 18.0169 17.8693 18.0169 16.4772C18.0169 15.0851 16.8883 13.9565 15.4962 13.9565C14.1041 13.9565 12.9756 15.0851 12.9756 16.4772C12.9756 17.8693 14.1041 18.9978 15.4962 18.9978Z" fill="white"/>
<path d="M13.134 8.60006L11.6925 10.1755H9.19552C8.32905 10.1755 7.62012 10.8844 7.62012 11.7509V21.2033C7.62012 22.0698 8.32905 22.7787 9.19552 22.7787H21.7988C22.6652 22.7787 23.3742 22.0698 23.3742 21.2033V11.7509C23.3742 10.8844 22.6652 10.1755 21.7988 10.1755H19.3017L17.8602 8.60006H13.134ZM15.4971 20.4156C13.3231 20.4156 11.5586 18.6511 11.5586 16.4771C11.5586 14.303 13.3231 12.5386 15.4971 12.5386C17.6712 12.5386 19.4357 14.303 19.4357 16.4771C19.4357 18.6511 17.6712 20.4156 15.4971 20.4156Z" fill="white"/>
</svg>
