<svg width="155" height="54" viewBox="0 0 155 54" fill="none" xmlns="http://www.w3.org/2000/svg">
<path fill-rule="evenodd" clip-rule="evenodd" d="M39.4876 27.1965C36.8569 29.4668 33.4444 30.8373 29.7154 30.8373C21.3952 30.8373 14.6504 24.0141 14.6504 15.5974C14.6504 7.18057 21.3952 0.357422 29.7154 0.357422C33.4444 0.357422 36.8569 1.72795 39.4876 3.99822C42.1183 1.72795 45.5308 0.357422 49.2597 0.357422C57.5799 0.357422 64.3248 7.18057 64.3248 15.5974C64.3248 24.0141 57.5799 30.8373 49.2597 30.8373C45.5308 30.8373 42.1183 29.4668 39.4876 27.1965Z" fill="#ED0006"/>
<path fill-rule="evenodd" clip-rule="evenodd" d="M39.4875 27.1965C42.7266 24.4012 44.7805 20.2419 44.7805 15.5974C44.7805 10.9528 42.7266 6.7935 39.4875 3.99822C42.1182 1.72795 45.5308 0.357422 49.2597 0.357422C57.5799 0.357422 64.3247 7.18057 64.3247 15.5974C64.3247 24.0141 57.5799 30.8373 49.2597 30.8373C45.5308 30.8373 42.1182 29.4668 39.4875 27.1965Z" fill="#F9A000"/>
<path fill-rule="evenodd" clip-rule="evenodd" d="M39.4875 27.1963C42.7266 24.401 44.7804 20.2417 44.7804 15.5972C44.7804 10.9526 42.7266 6.79331 39.4875 3.99802C36.2484 6.79331 34.1946 10.9526 34.1946 15.5972C34.1946 20.2417 36.2484 24.401 39.4875 27.1963Z" fill="#FF5E00"/>
<path d="M12.555 41.2269H10.1644C10.0962 40.8348 9.97053 40.4875 9.78729 40.185C9.60405 39.8782 9.37607 39.6182 9.10334 39.4051C8.83061 39.1921 8.51953 39.0323 8.1701 38.9257C7.82493 38.8149 7.45206 38.7595 7.05149 38.7595C6.33984 38.7595 5.70916 38.9385 5.15945 39.2965C4.60973 39.6502 4.17933 40.1701 3.86825 40.8561C3.55717 41.538 3.40163 42.371 3.40163 43.3554C3.40163 44.3568 3.55717 45.2006 3.86825 45.8867C4.18359 46.5685 4.61399 47.0841 5.15945 47.4335C5.70916 47.7787 6.33771 47.9513 7.0451 47.9513C7.43715 47.9513 7.80362 47.9002 8.14453 47.7979C8.4897 47.6914 8.79865 47.5358 9.07138 47.3313C9.34837 47.1267 9.58061 46.8753 9.76811 46.577C9.95987 46.2787 10.092 45.9378 10.1644 45.5543L12.555 45.5671C12.4656 46.1892 12.2717 46.773 11.9734 47.3185C11.6793 47.8639 11.2937 48.3455 10.8164 48.7631C10.3391 49.1764 9.7809 49.5003 9.14169 49.7347C8.50249 49.9648 7.79297 50.0799 7.01314 50.0799C5.86257 50.0799 4.83558 49.8135 3.93217 49.2809C3.02876 48.7482 2.31712 47.979 1.79723 46.9733C1.27734 45.9676 1.0174 44.7617 1.0174 43.3554C1.0174 41.9449 1.27947 40.7389 1.80362 39.7375C2.32777 38.7318 3.04155 37.9627 3.94496 37.43C4.84837 36.8973 5.87109 36.631 7.01314 36.631C7.74183 36.631 8.41939 36.7333 9.04581 36.9378C9.67223 37.1424 10.2305 37.4428 10.7205 37.8391C11.2106 38.2311 11.6133 38.7127 11.9286 39.2837C12.2482 39.8505 12.457 40.4982 12.555 41.2269ZM14.6245 49.9009V40.0827H16.8681V41.7191H16.9703C17.1493 41.1523 17.4561 40.7155 17.8908 40.4087C18.3297 40.0976 18.8304 39.9421 19.3929 39.9421C19.5208 39.9421 19.6635 39.9485 19.8212 39.9612C19.9831 39.9698 20.1174 39.9847 20.2239 40.006V42.1345C20.1259 42.1005 19.9703 42.0706 19.7573 42.0451C19.5485 42.0152 19.3461 42.0003 19.15 42.0003C18.7282 42.0003 18.3489 42.0919 18.0123 42.2752C17.6799 42.4541 17.4178 42.7034 17.226 43.023C17.0343 43.3426 16.9384 43.7112 16.9384 44.1289V49.9009H14.6245ZM25.7035 50.0926C24.7191 50.0926 23.869 49.8881 23.1531 49.479C22.4414 49.0657 21.8938 48.4818 21.5103 47.7276C21.1268 46.9691 20.935 46.0763 20.935 45.0493C20.935 44.0394 21.1268 43.153 21.5103 42.3902C21.8981 41.6232 22.4393 41.0266 23.1339 40.6005C23.8285 40.1701 24.6445 39.9549 25.582 39.9549C26.1871 39.9549 26.7582 40.0529 27.2951 40.2489C27.8363 40.4407 28.3136 40.7389 28.7269 41.1438C29.1445 41.5486 29.4727 42.0642 29.7113 42.6907C29.9499 43.3128 30.0692 44.0543 30.0692 44.9151V45.6246H22.0217V44.0649H27.8512C27.8469 43.6218 27.7511 43.2276 27.5636 42.8824C27.3761 42.533 27.114 42.2581 26.7773 42.0578C26.445 41.8576 26.0572 41.7574 25.614 41.7574C25.141 41.7574 24.7255 41.8725 24.3675 42.1026C24.0096 42.3284 23.7305 42.6267 23.5302 42.9975C23.3342 43.3639 23.234 43.7666 23.2298 44.2056V45.5671C23.2298 46.1381 23.3342 46.6282 23.543 47.0372C23.7518 47.4421 24.0437 47.7532 24.4187 47.9705C24.7937 48.1835 25.2326 48.2901 25.7354 48.2901C26.0721 48.2901 26.3768 48.2432 26.6495 48.1495C26.9222 48.0514 27.1587 47.9087 27.359 47.7212C27.5593 47.5337 27.7106 47.3014 27.8129 47.0245L29.9734 47.2674C29.837 47.8384 29.5771 48.337 29.1935 48.7631C28.8143 49.185 28.3285 49.5131 27.7362 49.7475C27.1438 49.9776 26.4663 50.0926 25.7035 50.0926ZM35.6703 50.0735C34.899 50.0735 34.2086 49.8753 33.5993 49.479C32.9899 49.0827 32.5083 48.5074 32.1547 47.7532C31.801 46.9989 31.6241 46.0827 31.6241 45.0046C31.6241 43.9137 31.8031 42.9932 32.161 42.2432C32.5233 41.4889 33.0112 40.9201 33.6248 40.5365C34.2385 40.1487 34.9224 39.9549 35.6767 39.9549C36.252 39.9549 36.725 40.0529 37.0957 40.2489C37.4664 40.4407 37.7605 40.6729 37.9778 40.9456C38.1951 41.2141 38.3635 41.4676 38.4828 41.7063H38.5787V36.81H40.899V49.9009H38.6234V48.354H38.4828C38.3635 48.5926 38.1909 48.8462 37.965 49.1147C37.7392 49.3789 37.4409 49.6047 37.0701 49.7922C36.6994 49.9797 36.2328 50.0735 35.6703 50.0735ZM36.3159 48.175C36.8059 48.175 37.2235 48.0429 37.5687 47.7787C37.9139 47.5103 38.176 47.1374 38.3549 46.6601C38.5339 46.1828 38.6234 45.6267 38.6234 44.9918C38.6234 44.3568 38.5339 43.805 38.3549 43.3362C38.1802 42.8675 37.9203 42.5032 37.5751 42.2432C37.2342 41.9833 36.8145 41.8533 36.3159 41.8533C35.8002 41.8533 35.3699 41.9875 35.0247 42.256C34.6795 42.5245 34.4196 42.8952 34.2449 43.3682C34.0701 43.8412 33.9828 44.3824 33.9828 44.9918C33.9828 45.6054 34.0701 46.153 34.2449 46.6345C34.4238 47.1118 34.6859 47.4889 35.0311 47.7659C35.3805 48.0387 35.8088 48.175 36.3159 48.175ZM43.3647 49.9009V40.0827H45.6786V49.9009H43.3647ZM44.5281 38.6892C44.1616 38.6892 43.8462 38.5678 43.582 38.3249C43.3178 38.0777 43.1857 37.7816 43.1857 37.4364C43.1857 37.087 43.3178 36.7908 43.582 36.5479C43.8462 36.3007 44.1616 36.1772 44.5281 36.1772C44.8988 36.1772 45.2141 36.3007 45.4741 36.5479C45.7383 36.7908 45.8704 37.087 45.8704 37.4364C45.8704 37.7816 45.7383 38.0777 45.4741 38.3249C45.2141 38.5678 44.8988 38.6892 44.5281 38.6892ZM52.9608 40.0827V41.8725H47.3166V40.0827H52.9608ZM48.71 37.7304H51.024V46.9478C51.024 47.2588 51.0708 47.4975 51.1646 47.6637C51.2626 47.8256 51.3904 47.9364 51.5481 47.996C51.7058 48.0557 51.8805 48.0855 52.0723 48.0855C52.2172 48.0855 52.3493 48.0749 52.4686 48.0536C52.5922 48.0323 52.6859 48.0131 52.7498 47.996L53.1397 49.805C53.0162 49.8476 52.8393 49.8945 52.6092 49.9456C52.3833 49.9968 52.1064 50.0266 51.7782 50.0351C51.1987 50.0522 50.6767 49.9648 50.2122 49.773C49.7477 49.577 49.3791 49.2745 49.1064 48.8654C48.8379 48.4563 48.7058 47.9449 48.71 47.3313V37.7304ZM60.2397 36.1963L56.021 51.8696H53.9947L58.2134 36.1963H60.2397ZM66.2546 49.9009H61.8185V36.81H66.3441C67.6438 36.81 68.7603 37.072 69.6935 37.5962C70.631 38.1161 71.3512 38.8639 71.854 39.8398C72.3569 40.8157 72.6083 41.9833 72.6083 43.3426C72.6083 44.7063 72.3548 45.8782 71.8477 46.8583C71.3448 47.8384 70.6183 48.5905 69.668 49.1147C68.7219 49.6388 67.5842 49.9009 66.2546 49.9009ZM64.19 47.849H66.1396C67.0515 47.849 67.8121 47.6828 68.4215 47.3505C69.0309 47.0138 69.489 46.5131 69.7958 45.8483C70.1026 45.1793 70.256 44.3441 70.256 43.3426C70.256 42.3412 70.1026 41.5103 69.7958 40.8497C69.489 40.185 69.0352 39.6885 68.4343 39.3604C67.8377 39.028 67.0962 38.8618 66.2099 38.8618H64.19V47.849ZM79.1058 50.0926C78.1214 50.0926 77.2713 49.8881 76.5554 49.479C75.8438 49.0657 75.2962 48.4818 74.9126 47.7276C74.5291 46.9691 74.3374 46.0763 74.3374 45.0493C74.3374 44.0394 74.5291 43.153 74.9126 42.3902C75.3004 41.6232 75.8416 41.0266 76.5362 40.6005C77.2308 40.1701 78.0469 39.9549 78.9844 39.9549C79.5895 39.9549 80.1605 40.0529 80.6974 40.2489C81.2386 40.4407 81.7159 40.7389 82.1293 41.1438C82.5469 41.5486 82.875 42.0642 83.1136 42.6907C83.3523 43.3128 83.4716 44.0543 83.4716 44.9151V45.6246H75.424V44.0649H81.2536C81.2493 43.6218 81.1534 43.2276 80.9659 42.8824C80.7784 42.533 80.5163 42.2581 80.1797 42.0578C79.8473 41.8576 79.4595 41.7574 79.0163 41.7574C78.5433 41.7574 78.1278 41.8725 77.7699 42.1026C77.4119 42.3284 77.1328 42.6267 76.9325 42.9975C76.7365 43.3639 76.6364 43.7666 76.6321 44.2056V45.5671C76.6321 46.1381 76.7365 46.6282 76.9453 47.0372C77.1541 47.4421 77.446 47.7532 77.821 47.9705C78.196 48.1835 78.6349 48.2901 79.1378 48.2901C79.4744 48.2901 79.7791 48.2432 80.0518 48.1495C80.3246 48.0514 80.5611 47.9087 80.7614 47.7212C80.9616 47.5337 81.1129 47.3014 81.2152 47.0245L83.3757 47.2674C83.2393 47.8384 82.9794 48.337 82.5959 48.7631C82.2166 49.185 81.7308 49.5131 81.1385 49.7475C80.5462 49.9776 79.8686 50.0926 79.1058 50.0926ZM85.5314 49.9009V36.81H87.8453V41.7063H87.9412C88.0605 41.4676 88.2289 41.2141 88.4462 40.9456C88.6635 40.6729 88.9576 40.4407 89.3283 40.2489C89.699 40.0529 90.1721 39.9549 90.7473 39.9549C91.5059 39.9549 92.1898 40.1487 92.7992 40.5365C93.4128 40.9201 93.8986 41.4889 94.2566 42.2432C94.6188 42.9932 94.7999 43.9137 94.7999 45.0046C94.7999 46.0827 94.623 46.9989 94.2694 47.7532C93.9157 48.5074 93.4341 49.0827 92.8248 49.479C92.2154 49.8753 91.525 50.0735 90.7537 50.0735C90.1912 50.0735 89.7246 49.9797 89.3539 49.7922C88.9831 49.6047 88.6848 49.3789 88.459 49.1147C88.2374 48.8462 88.0648 48.5926 87.9412 48.354H87.807V49.9009H85.5314ZM87.8006 44.9918C87.8006 45.6267 87.8901 46.1828 88.0691 46.6601C88.2523 47.1374 88.5144 47.5103 88.8553 47.7787C89.2005 48.0429 89.6181 48.175 90.1081 48.175C90.6195 48.175 91.0478 48.0387 91.3929 47.7659C91.7381 47.4889 91.998 47.1118 92.1728 46.6345C92.3517 46.153 92.4412 45.6054 92.4412 44.9918C92.4412 44.3824 92.3539 43.8412 92.1792 43.3682C92.0044 42.8952 91.7445 42.5245 91.3993 42.256C91.0542 41.9875 90.6238 41.8533 90.1081 41.8533C89.6138 41.8533 89.1941 41.9833 88.8489 42.2432C88.5037 42.5032 88.2417 42.8675 88.0627 43.3362C87.888 43.805 87.8006 44.3568 87.8006 44.9918ZM96.767 49.9009V40.0827H99.081V49.9009H96.767ZM97.9304 38.6892C97.5639 38.6892 97.2486 38.5678 96.9844 38.3249C96.7202 38.0777 96.5881 37.7816 96.5881 37.4364C96.5881 37.087 96.7202 36.7908 96.9844 36.5479C97.2486 36.3007 97.5639 36.1772 97.9304 36.1772C98.3011 36.1772 98.6165 36.3007 98.8764 36.5479C99.1406 36.7908 99.2727 37.087 99.2727 37.4364C99.2727 37.7816 99.1406 38.0777 98.8764 38.3249C98.6165 38.5678 98.3011 38.6892 97.9304 38.6892ZM106.363 40.0827V41.8725H100.719V40.0827H106.363ZM102.112 37.7304H104.426V46.9478C104.426 47.2588 104.473 47.4975 104.567 47.6637C104.665 47.8256 104.793 47.9364 104.95 47.996C105.108 48.0557 105.283 48.0855 105.475 48.0855C105.619 48.0855 105.752 48.0749 105.871 48.0536C105.994 48.0323 106.088 48.0131 106.152 47.996L106.542 49.805C106.419 49.8476 106.242 49.8945 106.012 49.9456C105.786 49.9968 105.509 50.0266 105.181 50.0351C104.601 50.0522 104.079 49.9648 103.615 49.773C103.15 49.577 102.781 49.2745 102.509 48.8654C102.24 48.4563 102.108 47.9449 102.112 47.3313V37.7304ZM124.071 41.2269H121.68C121.612 40.8348 121.486 40.4875 121.303 40.185C121.12 39.8782 120.892 39.6182 120.619 39.4051C120.346 39.1921 120.035 39.0323 119.686 38.9257C119.341 38.8149 118.968 38.7595 118.567 38.7595C117.855 38.7595 117.225 38.9385 116.675 39.2965C116.125 39.6502 115.695 40.1701 115.384 40.8561C115.073 41.538 114.917 42.371 114.917 43.3554C114.917 44.3568 115.073 45.2006 115.384 45.8867C115.699 46.5685 116.13 47.0841 116.675 47.4335C117.225 47.7787 117.853 47.9513 118.561 47.9513C118.953 47.9513 119.319 47.9002 119.66 47.7979C120.005 47.6914 120.314 47.5358 120.587 47.3313C120.864 47.1267 121.096 46.8753 121.284 46.577C121.475 46.2787 121.608 45.9378 121.68 45.5543L124.071 45.5671C123.981 46.1892 123.787 46.773 123.489 47.3185C123.195 47.8639 122.809 48.3455 122.332 48.7631C121.855 49.1764 121.297 49.5003 120.657 49.7347C120.018 49.9648 119.309 50.0799 118.529 50.0799C117.378 50.0799 116.351 49.8135 115.448 49.2809C114.544 48.7482 113.833 47.979 113.313 46.9733C112.793 45.9676 112.533 44.7617 112.533 43.3554C112.533 41.9449 112.795 40.7389 113.319 39.7375C113.843 38.7318 114.557 37.9627 115.461 37.43C116.364 36.8973 117.387 36.631 118.529 36.631C119.257 36.631 119.935 36.7333 120.561 36.9378C121.188 37.1424 121.746 37.4428 122.236 37.8391C122.726 38.2311 123.129 38.7127 123.444 39.2837C123.764 39.8505 123.973 40.4982 124.071 41.2269ZM128.965 50.099C128.343 50.099 127.783 49.9882 127.284 49.7666C126.79 49.5408 126.398 49.2084 126.108 48.7695C125.823 48.3306 125.68 47.7894 125.68 47.1459C125.68 46.5919 125.782 46.1338 125.987 45.7716C126.191 45.4094 126.47 45.1196 126.824 44.9023C127.178 44.685 127.576 44.5209 128.019 44.4101C128.467 44.2951 128.929 44.212 129.406 44.1608C129.982 44.1012 130.448 44.0479 130.806 44.001C131.164 43.9499 131.424 43.8732 131.586 43.7709C131.752 43.6644 131.835 43.5003 131.835 43.2787V43.2404C131.835 42.7588 131.693 42.386 131.407 42.1218C131.122 41.8576 130.71 41.7255 130.173 41.7255C129.607 41.7255 129.157 41.849 128.825 42.0962C128.497 42.3434 128.275 42.6353 128.16 42.9719L125.999 42.6651C126.17 42.0685 126.451 41.5699 126.843 41.1693C127.235 40.7645 127.715 40.462 128.281 40.2617C128.848 40.0571 129.475 39.9549 130.161 39.9549C130.634 39.9549 131.105 40.0103 131.573 40.121C132.042 40.2318 132.47 40.4151 132.858 40.6708C133.246 40.9222 133.557 41.2652 133.791 41.6999C134.03 42.1345 134.149 42.6779 134.149 43.3299V49.9009H131.925V48.5522H131.848C131.708 48.8249 131.509 49.0806 131.254 49.3192C131.002 49.5536 130.685 49.7432 130.301 49.8881C129.922 50.0287 129.477 50.099 128.965 50.099ZM129.566 48.3987C130.031 48.3987 130.433 48.3071 130.774 48.1239C131.115 47.9364 131.377 47.6892 131.561 47.3824C131.748 47.0756 131.842 46.7411 131.842 46.3789V45.2219C131.769 45.2816 131.646 45.337 131.471 45.3881C131.301 45.4392 131.109 45.484 130.896 45.5223C130.683 45.5607 130.472 45.5948 130.263 45.6246C130.054 45.6544 129.873 45.68 129.72 45.7013C129.374 45.7482 129.066 45.8249 128.793 45.9314C128.52 46.038 128.305 46.1871 128.147 46.3789C127.99 46.5664 127.911 46.8093 127.911 47.1076C127.911 47.5337 128.066 47.8554 128.377 48.0728C128.688 48.2901 129.085 48.3987 129.566 48.3987ZM136.476 49.9009V40.0827H138.72V41.7191H138.822C139.001 41.1523 139.308 40.7155 139.742 40.4087C140.181 40.0976 140.682 39.9421 141.244 39.9421C141.372 39.9421 141.515 39.9485 141.673 39.9612C141.835 39.9698 141.969 39.9847 142.075 40.006V42.1345C141.977 42.1005 141.822 42.0706 141.609 42.0451C141.4 42.0152 141.198 42.0003 141.002 42.0003C140.58 42.0003 140.2 42.0919 139.864 42.2752C139.531 42.4541 139.269 42.7034 139.078 43.023C138.886 43.3426 138.79 43.7112 138.79 44.1289V49.9009H136.476ZM146.852 50.0735C146.081 50.0735 145.39 49.8753 144.781 49.479C144.172 49.0827 143.69 48.5074 143.336 47.7532C142.983 46.9989 142.806 46.0827 142.806 45.0046C142.806 43.9137 142.985 42.9932 143.343 42.2432C143.705 41.4889 144.193 40.9201 144.806 40.5365C145.42 40.1487 146.104 39.9549 146.858 39.9549C147.434 39.9549 147.907 40.0529 148.277 40.2489C148.648 40.4407 148.942 40.6729 149.159 40.9456C149.377 41.2141 149.545 41.4676 149.664 41.7063H149.76V36.81H152.081V49.9009H149.805V48.354H149.664C149.545 48.5926 149.373 48.8462 149.147 49.1147C148.921 49.3789 148.623 49.6047 148.252 49.7922C147.881 49.9797 147.414 50.0735 146.852 50.0735ZM147.498 48.175C147.988 48.175 148.405 48.0429 148.75 47.7787C149.096 47.5103 149.358 47.1374 149.537 46.6601C149.716 46.1828 149.805 45.6267 149.805 44.9918C149.805 44.3568 149.716 43.805 149.537 43.3362C149.362 42.8675 149.102 42.5032 148.757 42.2432C148.416 41.9833 147.996 41.8533 147.498 41.8533C146.982 41.8533 146.551 41.9875 146.206 42.256C145.861 42.5245 145.601 42.8952 145.426 43.3682C145.252 43.8412 145.164 44.3824 145.164 44.9918C145.164 45.6054 145.252 46.153 145.426 46.6345C145.605 47.1118 145.868 47.4889 146.213 47.7659C146.562 48.0387 146.99 48.175 147.498 48.175Z" fill="black"/>
</svg>
