<svg width="18" height="19" viewBox="0 0 18 19" fill="none" xmlns="http://www.w3.org/2000/svg">
<path d="M7 14.8103L2 9.8103L3.41 8.3903L7 11.9803L14.59 4.3903L16 5.8103M16 0.810303H2C0.89 0.810303 0 1.7003 0 2.8103V16.8103C0 17.3407 0.210714 17.8494 0.585786 18.2245C0.960859 18.5996 1.46957 18.8103 2 18.8103H16C16.5304 18.8103 17.0391 18.5996 17.4142 18.2245C17.7893 17.8494 18 17.3407 18 16.8103V2.8103C18 2.27987 17.7893 1.77116 17.4142 1.39609C17.0391 1.02102 16.5304 0.810303 16 0.810303Z" fill="#0F9CEB"/>
</svg>
