<svg width="211" height="248" viewBox="0 0 211 248" fill="none" xmlns="http://www.w3.org/2000/svg">
<path d="M4.36322 92.8504C5.18883 82.1175 7.56496 71.9888 11.4916 62.4842C16.4654 50.4827 23.8958 39.5485 33.7427 29.7017C43.5895 19.8548 54.5238 12.4244 66.5454 7.45058C78.5267 2.49695 91.5149 0 105.49 0C119.465 0 132.453 2.49695 144.454 7.45058C156.476 12.4244 167.41 19.8347 177.257 29.7017C187.104 39.5485 194.534 50.4827 199.488 62.5044C203.435 72.029 205.811 82.1779 206.637 92.9309C205.388 92.3872 204.079 91.9644 202.73 91.6422C200.696 91.1186 198.582 90.8166 196.387 90.7159C195.461 82.0772 193.427 73.942 190.265 66.2901C185.815 55.5572 179.11 45.7305 170.169 36.7696C161.208 27.8289 151.381 21.1234 140.669 16.6732C129.936 12.223 118.216 10.0079 105.51 10.0079C92.8037 10.0079 81.0841 12.2431 70.3512 16.6732C59.6184 21.1033 49.7916 27.8088 40.8308 36.7696C31.8901 45.7305 25.1846 55.5773 20.7344 66.2901C17.5729 73.9219 15.519 82.0571 14.6128 90.6958C12.9817 90.7562 11.3507 90.9575 9.75986 91.2596C7.84687 91.6422 6.05471 92.1657 4.36322 92.8504ZM47.9189 192.044H29.2925V186.345C29.2925 183.667 29.0508 181.975 28.5676 181.23C28.1044 180.506 27.2989 180.163 26.1914 180.163C24.9832 180.163 24.0771 180.646 23.4528 181.633C22.8286 182.62 22.5265 184.09 22.5265 186.104C22.5265 188.661 22.8689 190.594 23.5736 191.923C24.2382 193.232 26.131 194.782 29.2522 196.635C38.1728 201.931 43.7909 206.28 46.1066 209.684C48.4224 213.087 49.5903 218.544 49.5903 226.115C49.5903 231.612 48.9258 235.66 47.6572 238.258C46.3684 240.855 43.8916 243.03 40.2066 244.802C36.5216 246.574 32.2324 247.46 27.3392 247.46C21.9627 247.46 17.3917 246.433 13.606 244.399C9.80013 242.365 7.30318 239.768 6.15539 236.647C4.98746 233.505 4.4035 229.035 4.4035 223.256V218.222H23.0098V227.585C23.0098 230.485 23.2716 232.337 23.7952 233.163C24.3388 233.989 25.245 234.391 26.574 234.391C27.903 234.391 28.9099 233.868 29.5543 232.821C30.1986 231.774 30.5208 230.223 30.5208 228.169C30.5208 223.618 29.8966 220.658 28.6682 219.249C27.3996 217.839 24.2784 215.523 19.2845 212.261C14.2906 208.959 10.9882 206.562 9.35713 205.052C7.74619 203.562 6.39703 201.488 5.34992 198.85C4.28267 196.212 3.75912 192.849 3.75912 188.762C3.75912 182.861 4.50418 178.532 6.01443 175.814C7.52469 173.075 9.94109 170.961 13.3039 169.41C16.6668 167.88 20.7344 167.094 25.5068 167.094C30.7222 167.094 35.1523 167.94 38.8171 169.612C42.5022 171.303 44.9387 173.438 46.1066 175.995C47.2947 178.532 47.8988 182.882 47.8988 189.003V192.044H47.9189ZM101.664 213.852C101.664 221.605 101.483 227.082 101.12 230.283C100.758 233.525 99.6099 236.465 97.6969 239.123C95.7839 241.782 93.1863 243.835 89.9241 245.265C86.6418 246.695 82.836 247.42 78.5066 247.42C74.3786 247.42 70.6533 246.735 67.3911 245.386C64.0887 244.037 61.4508 242.023 59.4573 239.325C57.4637 236.627 56.2354 233.666 55.8729 230.505C55.5105 227.344 55.3091 221.766 55.3091 213.832V200.642C55.3091 192.89 55.4903 187.412 55.8729 184.17C56.2354 180.949 57.3631 178.009 59.2962 175.33C61.2092 172.672 63.8068 170.618 67.0689 169.189C70.3512 167.759 74.1571 167.054 78.5066 167.054C82.6346 167.054 86.3398 167.739 89.6221 169.088C92.9044 170.437 95.5624 172.451 97.5559 175.149C99.5495 177.847 100.738 180.787 101.12 183.969C101.483 187.13 101.684 192.688 101.684 200.642V213.852H101.664ZM81.6278 188.52C81.6278 184.936 81.4264 182.64 81.0237 181.633C80.6411 180.646 79.8155 180.143 78.567 180.143C77.5199 180.143 76.7144 180.546 76.1707 181.351C75.6069 182.137 75.325 184.533 75.325 188.52V224.524C75.325 228.995 75.5062 231.774 75.8687 232.821C76.2513 233.868 77.097 234.391 78.4261 234.391C79.7953 234.391 80.6612 233.787 81.064 232.599C81.4264 231.371 81.6278 228.491 81.6278 223.961V188.52ZM154.966 213.852C154.966 221.605 154.784 227.082 154.422 230.283C154.039 233.525 152.912 236.465 150.999 239.123C149.066 241.782 146.468 243.835 143.206 245.265C139.944 246.695 136.118 247.42 131.788 247.42C127.66 247.42 123.955 246.735 120.673 245.386C117.37 244.037 114.733 242.023 112.739 239.325C110.745 236.627 109.537 233.666 109.155 230.505C108.792 227.344 108.591 221.766 108.591 213.832V200.642C108.591 192.89 108.772 187.412 109.135 184.17C109.497 180.949 110.625 178.009 112.558 175.33C114.471 172.672 117.089 170.618 120.351 169.189C123.613 167.759 127.419 167.054 131.788 167.054C135.916 167.054 139.622 167.739 142.904 169.088C146.186 170.437 148.844 172.451 150.838 175.149C152.831 177.847 154.039 180.787 154.402 183.969C154.764 187.13 154.966 192.688 154.966 200.642V213.852ZM134.91 188.52C134.91 184.936 134.708 182.64 134.305 181.633C133.903 180.646 133.097 180.143 131.869 180.143C130.802 180.143 130.016 180.546 129.473 181.351C128.909 182.137 128.627 184.533 128.627 188.52V224.524C128.627 228.995 128.808 231.774 129.191 232.821C129.553 233.868 130.399 234.391 131.748 234.391C133.117 234.391 133.983 233.787 134.366 232.599C134.728 231.371 134.93 228.491 134.93 223.961V188.52H134.91ZM207.2 168.726V245.809H189.641L179.21 210.771V245.809H162.457V168.726H179.21L190.467 203.441V168.726H207.2ZM32.4338 125.895H18.761V116.733C18.761 114.074 18.62 112.403 18.318 111.739C18.0159 111.094 17.3715 110.752 16.3647 110.752C15.237 110.752 14.5121 111.155 14.2302 111.96C13.9282 112.766 13.7671 114.497 13.7671 117.155V141.601C13.7671 144.159 13.9282 145.83 14.2302 146.615C14.5323 147.401 15.2169 147.783 16.2842 147.783C17.3111 147.783 17.9756 147.401 18.2777 146.615C18.5999 145.85 18.761 143.998 18.761 141.118V134.513H32.4338V136.547C32.4338 141.984 32.0311 145.85 31.286 148.126C30.5208 150.401 28.8092 152.395 26.1713 154.106C23.5334 155.818 20.2914 156.684 16.4452 156.684C12.438 156.684 9.13562 155.959 6.51785 154.489C3.92021 153.039 2.20859 151.025 1.36285 148.468C0.517109 145.911 0.0942383 142.044 0.0942383 136.889V121.525C0.0942383 117.739 0.215059 114.9 0.476836 112.987C0.738613 111.094 1.50381 109.262 2.81269 107.51C4.10144 105.758 5.87348 104.369 8.16906 103.362C10.4445 102.355 13.0824 101.852 16.0425 101.852C20.0699 101.852 23.3924 102.637 26.0303 104.187C28.6481 105.758 30.3597 107.691 31.2055 110.027C32.0311 112.363 32.4539 115.987 32.4539 120.901V125.895H32.4338ZM69.1632 133.768C69.1632 139.064 69.0423 142.81 68.8007 145.004C68.5389 147.199 67.7737 149.213 66.4648 151.046C65.156 152.858 63.3638 154.247 61.1488 155.234C58.9136 156.2 56.3159 156.704 53.3558 156.704C50.5568 156.704 48.0196 156.241 45.7643 155.314C43.509 154.388 41.7168 153.019 40.3475 151.166C38.9984 149.334 38.1728 147.32 37.911 145.166C37.6492 143.011 37.5284 139.205 37.5284 133.788V124.807C37.5284 119.511 37.6492 115.766 37.8909 113.571C38.1325 111.376 38.9178 109.362 40.2267 107.55C41.5356 105.718 43.3278 104.328 45.5428 103.362C47.778 102.395 50.3555 101.892 53.3357 101.892C56.1549 101.892 58.6921 102.355 60.9272 103.281C63.1624 104.207 64.9747 105.577 66.344 107.429C67.7133 109.262 68.5188 111.275 68.7806 113.43C69.0222 115.585 69.1632 119.391 69.1632 124.807V133.768ZM55.4903 116.491C55.4903 114.034 55.3695 112.484 55.0876 111.799C54.8057 111.114 54.262 110.752 53.4163 110.752C52.6913 110.752 52.1678 111.034 51.7852 111.578C51.4026 112.121 51.2012 113.752 51.2012 116.471V141.017C51.2012 144.078 51.3422 145.971 51.5838 146.676C51.8456 147.401 52.4094 147.743 53.3156 147.743C54.262 147.743 54.8661 147.34 55.1077 146.515C55.3494 145.669 55.4903 143.716 55.4903 140.615V116.491ZM117.068 102.979V155.576H105.127V120.055L100.335 155.576H91.8572L86.8231 120.881V155.576H74.8619V102.979H92.562C93.0856 106.141 93.6293 109.866 94.2132 114.155L96.086 127.546L99.2071 102.979H117.068ZM136.802 102.979V155.576H123.13V102.979H136.802ZM173.431 102.979V155.576H161.43L154.301 131.674V155.576H142.864V102.979H154.301L161.993 126.66V102.979H173.431ZM210.906 122.331H197.233V117.558C197.233 114.558 197.112 112.665 196.85 111.9C196.568 111.135 195.944 110.752 194.977 110.752C194.132 110.752 193.548 111.074 193.246 111.739C192.944 112.403 192.782 114.054 192.782 116.733V141.964C192.782 144.34 192.923 145.89 193.246 146.636C193.528 147.381 194.152 147.743 195.058 147.743C196.065 147.743 196.749 147.32 197.112 146.495C197.474 145.629 197.656 143.998 197.656 141.541V135.299H194.877V127.304H210.885V155.536H202.287L201.018 151.77C200.092 153.401 198.924 154.63 197.515 155.435C196.085 156.241 194.414 156.664 192.48 156.664C190.185 156.664 188.03 156.1 186.037 154.992C184.043 153.885 182.513 152.495 181.466 150.844C180.419 149.193 179.774 147.481 179.512 145.649C179.251 143.837 179.11 141.118 179.11 137.514V121.888C179.11 116.853 179.371 113.209 179.915 110.953C180.459 108.678 182.009 106.584 184.587 104.691C187.144 102.798 190.487 101.831 194.554 101.831C198.562 101.831 201.884 102.657 204.522 104.308C207.16 105.98 208.892 107.913 209.697 110.188C210.503 112.443 210.906 115.726 210.906 120.055V122.331ZM105.369 28.2518L115.558 45.8513H109.739V78.5131H133.46V72.6935L151.059 82.8626L135.634 91.7831H133.46V87.2121L101.06 87.2322V78.6339H101.04V45.8513H95.2201L105.369 28.2518Z" fill="white"/>
</svg>
