<svg width="27" height="27" viewBox="0 0 27 27" fill="none" xmlns="http://www.w3.org/2000/svg">
<g clip-path="url(#clip0_105_1122)">
<path d="M3.0888 0.768555C7.45713 0.768555 11.8255 0.768555 16.1938 0.768555C16.7434 0.802777 17.2299 0.994688 17.66 1.34161C18.4283 1.96163 18.8061 2.78363 18.8222 3.74989C18.8497 5.36705 18.8316 6.98555 18.8289 8.60337C18.8282 8.91674 18.7853 8.97915 18.4867 9.07711C17.5801 9.37438 16.681 9.69177 15.7791 10.0024C15.549 10.0816 15.3913 10.0541 15.2436 9.84073C15.0376 9.54347 14.7276 9.44215 14.368 9.44349C12.7448 9.44886 11.1216 9.44618 9.49904 9.44618C7.94295 9.44618 6.38686 9.44349 4.83076 9.44752C4.30938 9.44886 3.88127 9.82597 3.82692 10.3158C3.76787 10.8459 4.15706 11.3351 4.68783 11.3982C4.80459 11.4123 4.92202 11.4069 5.03878 11.4069C7.15517 11.4069 9.27224 11.4062 11.3886 11.4089C11.5349 11.4089 11.7389 11.3512 11.806 11.4955C11.8778 11.6491 11.6825 11.7471 11.5886 11.8571C11.194 12.3201 10.9344 12.8462 10.8324 13.4488C10.7659 13.8373 10.7639 13.8373 10.3915 13.7581C10.2761 13.7333 10.16 13.7233 10.0426 13.7233C8.33617 13.7226 6.62909 13.7206 4.92269 13.7246C4.38185 13.7259 4.02688 13.9695 3.87724 14.4238C3.70546 14.9438 3.99668 15.5068 4.52075 15.6652C4.69857 15.7189 4.88109 15.735 5.06629 15.735C6.68076 15.7343 8.29591 15.7336 9.91038 15.735C10.113 15.735 10.309 15.7001 10.5056 15.6544C10.723 15.6034 10.778 15.643 10.7921 15.8685C10.8082 16.1275 10.7975 16.3879 10.7975 16.6476C10.7981 17.1924 10.8042 17.7373 10.7968 18.2822C10.774 19.9362 11.237 21.4567 12.0389 22.8867C12.1093 23.0128 12.2643 23.1417 12.1744 23.2906C12.0878 23.4349 11.8999 23.3799 11.7537 23.3799C8.98437 23.3826 6.21507 23.3846 3.44578 23.3799C2.17956 23.3779 1.0234 22.5317 0.622129 21.3333C0.532883 21.0676 0.506713 20.7924 0.506713 20.5166C0.503358 14.8673 0.508726 9.21736 0.500003 3.56738C0.49799 2.25151 1.46426 1.21747 2.452 0.876589C2.65934 0.80479 2.87944 0.822236 3.0888 0.768555Z" fill="#2165A2"/>
<path d="M26.2347 13.7488C26.0978 13.3422 25.8529 13.049 25.4295 12.9067C23.6131 12.2941 21.7993 11.6734 19.9855 11.0533C19.6809 10.9493 19.3876 10.9561 19.0803 11.0621C17.2994 11.6754 15.5152 12.28 13.7323 12.8866C13.076 13.11 12.8405 13.4361 12.8405 14.1347C12.8398 15.4754 12.8405 16.8161 12.8398 18.1568C12.8398 18.5003 12.8586 18.8432 12.9036 19.1841C13.1317 20.9073 13.9316 22.3479 15.1059 23.5954C16.301 24.8643 17.7202 25.8164 19.3058 26.5271H19.7574C19.958 26.4767 20.156 26.4271 20.3452 26.3318C21.7275 25.6393 22.9628 24.7509 24.0277 23.6236C24.7598 22.8479 25.3463 21.9796 25.759 20.9945C26.0227 20.3658 26.1797 19.7108 26.2347 19.0311V18.7291C26.2032 18.6956 26.2032 18.662 26.2347 18.6285V13.7488ZM23.3386 16.9778C22.2724 18.405 21.2088 19.8343 20.1338 21.2555C19.7238 21.7977 19.0079 21.8588 18.5308 21.3924C17.8 20.6791 17.082 19.9531 16.366 19.225C16.044 18.8969 15.9648 18.4386 16.1527 18.0413C16.3452 17.6354 16.672 17.4213 17.1236 17.4086C17.4357 17.4032 17.6927 17.524 17.9087 17.7414C18.2637 18.097 18.6307 18.4406 18.9676 18.8123C19.1374 19.0002 19.2031 18.9365 19.3232 18.7734C20.0795 17.7515 20.8431 16.7349 21.6074 15.7189C21.9006 15.3291 22.3207 15.1781 22.7535 15.2955C23.1957 15.4156 23.4936 15.7585 23.5493 16.2236C23.5829 16.502 23.505 16.755 23.3386 16.9778Z" fill="#2165A2"/>
<path d="M26.2341 18.7276C26.1726 18.6941 26.1819 18.6606 26.2341 18.6272C26.2341 18.6606 26.2341 18.6941 26.2341 18.7276Z" fill="#414141"/>
</g>
<defs>
<clipPath id="clip0_105_1122">
<rect width="25.7356" height="25.7577" fill="white" transform="translate(0.5 0.768555)"/>
</clipPath>
</defs>
</svg>
