<svg width="21" height="21" viewBox="0 0 21 21" fill="none" xmlns="http://www.w3.org/2000/svg">
<path d="M10.769 0.411133C5.25504 0.411133 0.769043 4.89713 0.769043 10.4111V14.5541C0.769043 15.5781 1.66604 16.4111 2.76904 16.4111H3.76904C4.03426 16.4111 4.28861 16.3058 4.47615 16.1182C4.66369 15.9307 4.76904 15.6763 4.76904 15.4111V10.2681C4.76904 10.0029 4.66369 9.74856 4.47615 9.56103C4.28861 9.37349 4.03426 9.26813 3.76904 9.26813H2.86104C3.41704 5.39813 6.74704 2.41113 10.769 2.41113C14.791 2.41113 18.121 5.39813 18.677 9.26813H17.769C17.5038 9.26813 17.2495 9.37349 17.0619 9.56103C16.8744 9.74856 16.769 10.0029 16.769 10.2681V16.4111C16.769 17.5141 15.872 18.4111 14.769 18.4111H12.769V17.4111H8.76904V20.4111H14.769C16.975 20.4111 18.769 18.6171 18.769 16.4111C19.872 16.4111 20.769 15.5781 20.769 14.5541V10.4111C20.769 4.89713 16.283 0.411133 10.769 0.411133Z" fill="url(#paint0_linear_165_463)"/>
<defs>
<linearGradient id="paint0_linear_165_463" x1="10.769" y1="0.411133" x2="10.769" y2="20.4111" gradientUnits="userSpaceOnUse">
<stop stop-color="#86CED7"/>
<stop offset="1" stop-color="#6EB0DC"/>
</linearGradient>
</defs>
</svg>
