<svg width="17" height="21" viewBox="0 0 17 21" fill="none" xmlns="http://www.w3.org/2000/svg">
<path d="M16.7009 4.02563C16.7009 1.85763 13.0379 0.0256348 8.7009 0.0256348C4.3639 0.0256348 0.700928 1.85763 0.700928 4.02563V6.02563C0.700928 8.1936 4.3639 10.0256 8.7009 10.0256C13.0379 10.0256 16.7009 8.1936 16.7009 6.02563V4.02563ZM8.7009 17.0256C4.3639 17.0256 0.700928 15.1936 0.700928 13.0256V16.0256C0.700928 18.1936 4.3639 20.0256 8.7009 20.0256C13.0379 20.0256 16.7009 18.1936 16.7009 16.0256V13.0256C16.7009 15.1936 13.0379 17.0256 8.7009 17.0256Z" fill="url(#paint0_linear_1_2)"/>
<path d="M16.7009 8.02557C16.7009 10.1936 13.0379 12.0256 8.7009 12.0256C4.3639 12.0256 0.700928 10.1936 0.700928 8.02557V11.0256C0.700928 13.1936 4.3639 15.0256 8.7009 15.0256C13.0379 15.0256 16.7009 13.1936 16.7009 11.0256V8.02557Z" fill="url(#paint1_linear_1_2)"/>
<defs>
<linearGradient id="paint0_linear_1_2" x1="8.7009" y1="0.0256348" x2="8.7009" y2="20.0256" gradientUnits="userSpaceOnUse">
<stop stop-color="#86CED7"/>
<stop offset="1" stop-color="#6EB0DC"/>
</linearGradient>
<linearGradient id="paint1_linear_1_2" x1="8.7009" y1="8.02557" x2="8.7009" y2="15.0256" gradientUnits="userSpaceOnUse">
<stop stop-color="#86CED7"/>
<stop offset="1" stop-color="#6EB0DC"/>
</linearGradient>
</defs>
</svg>
