<svg width="17" height="19" viewBox="0 0 17 19" fill="none" xmlns="http://www.w3.org/2000/svg">
<path d="M3.76905 18.4111C3.21905 18.4111 2.74805 18.2151 2.35605 17.8231C1.96405 17.4311 1.76838 16.9605 1.76905 16.4111V3.41114C1.48571 3.41114 1.24805 3.31514 1.05605 3.12314C0.864047 2.93114 0.76838 2.6938 0.769046 2.41114C0.769046 2.1278 0.865047 1.89014 1.05705 1.69814C1.24905 1.50614 1.48638 1.41047 1.76905 1.41114H5.76905C5.76905 1.1278 5.86505 0.890136 6.05705 0.698136C6.24905 0.506136 6.48638 0.41047 6.76905 0.411136H10.769C11.0524 0.411136 11.29 0.507136 11.482 0.699136C11.674 0.891136 11.7697 1.12847 11.769 1.41114H15.769C16.0524 1.41114 16.29 1.50714 16.482 1.69914C16.674 1.89114 16.7697 2.12847 16.769 2.41114C16.769 2.69447 16.673 2.93214 16.481 3.12414C16.289 3.31614 16.0517 3.4118 15.769 3.41114V16.4111C15.769 16.9611 15.573 17.4321 15.181 17.8241C14.789 18.2161 14.3184 18.4118 13.769 18.4111H3.76905ZM5.76905 13.4111C5.76905 13.6945 5.86505 13.9321 6.05705 14.1241C6.24905 14.3161 6.48638 14.4118 6.76905 14.4111C7.05238 14.4111 7.29005 14.3151 7.48205 14.1231C7.67405 13.9311 7.76971 13.6938 7.76905 13.4111V6.41114C7.76905 6.1278 7.67305 5.89014 7.48105 5.69814C7.28905 5.50614 7.05171 5.41047 6.76905 5.41114C6.48571 5.41114 6.24805 5.50714 6.05605 5.69914C5.86405 5.89114 5.76838 6.12847 5.76905 6.41114V13.4111ZM9.76905 13.4111C9.76905 13.6945 9.86505 13.9321 10.057 14.1241C10.249 14.3161 10.4864 14.4118 10.769 14.4111C11.0524 14.4111 11.29 14.3151 11.482 14.1231C11.674 13.9311 11.7697 13.6938 11.769 13.4111V6.41114C11.769 6.1278 11.673 5.89014 11.481 5.69814C11.289 5.50614 11.0517 5.41047 10.769 5.41114C10.4857 5.41114 10.248 5.50714 10.056 5.69914C9.86405 5.89114 9.76838 6.12847 9.76905 6.41114V13.4111Z" fill="url(#paint0_linear_105_795)"/>
<defs>
<linearGradient id="paint0_linear_105_795" x1="8.76905" y1="0.411133" x2="8.76905" y2="18.4111" gradientUnits="userSpaceOnUse">
<stop stop-color="#86CED7"/>
<stop offset="1" stop-color="#6EB0DC"/>
</linearGradient>
</defs>
</svg>
