<svg width="17" height="17" viewBox="0 0 17 17" fill="none" xmlns="http://www.w3.org/2000/svg">
<path d="M1.40649 8.43633C1.40649 9.38441 1.59323 10.3232 1.95605 11.1991C2.31886 12.075 2.85065 12.8709 3.52104 13.5413C4.19144 14.2117 4.98731 14.7435 5.86323 15.1063C6.73914 15.4691 7.67794 15.6559 8.62602 15.6559C9.5741 15.6559 10.5129 15.4691 11.3888 15.1063C12.2647 14.7435 13.0606 14.2117 13.731 13.5413C14.4014 12.8709 14.9332 12.075 15.296 11.1991C15.6588 10.3232 15.8456 9.38441 15.8456 8.43633C15.8456 7.48824 15.6588 6.54944 15.296 5.67353C14.9332 4.79762 14.4014 4.00174 13.731 3.33135C13.0606 2.66095 12.2647 2.12917 11.3888 1.76635C10.5129 1.40354 9.5741 1.2168 8.62602 1.2168C7.67794 1.2168 6.73914 1.40354 5.86323 1.76635C4.98731 2.12917 4.19144 2.66095 3.52104 3.33135C2.85065 4.00174 2.31886 4.79762 1.95605 5.67353C1.59323 6.54944 1.40649 7.48824 1.40649 8.43633Z" stroke="white" stroke-width="1.60434" stroke-linecap="round" stroke-linejoin="round"/>
<path d="M10.8721 6.03C10.7268 5.77793 10.5156 5.57012 10.2613 5.42882C10.0069 5.28751 9.71896 5.21804 9.42816 5.22783H7.82382C7.39832 5.22783 6.99025 5.39686 6.68938 5.69773C6.38851 5.9986 6.21948 6.40667 6.21948 6.83217C6.21948 7.25767 6.38851 7.66574 6.68938 7.96661C6.99025 8.26748 7.39832 8.43651 7.82382 8.43651H9.42816C9.85366 8.43651 10.2617 8.60554 10.5626 8.90641C10.8635 9.20728 11.0325 9.61535 11.0325 10.0408C11.0325 10.4663 10.8635 10.8744 10.5626 11.1753C10.2617 11.4762 9.85366 11.6452 9.42816 11.6452H7.82382C7.53303 11.655 7.24505 11.5855 6.9907 11.4442C6.73636 11.3029 6.52523 11.0951 6.37992 10.843M8.62599 4.42566V12.4474" stroke="white" stroke-width="1.60434" stroke-linecap="round" stroke-linejoin="round"/>
</svg>
