<svg width="87" height="88" viewBox="0 0 87 88" fill="none" xmlns="http://www.w3.org/2000/svg">
<path fill-rule="evenodd" clip-rule="evenodd" d="M0.03125 43.5603C0.03125 19.5522 19.4919 0.0915527 43.5 0.0915527C67.5081 0.0915527 86.9688 19.5522 86.9688 43.5603C86.9688 67.5684 67.5081 87.0291 43.5 87.0291C19.4919 87.0291 0.03125 67.5684 0.03125 43.5603ZM59.5946 35.4729C59.8621 35.1165 60.0556 34.7101 60.1639 34.2778C60.2721 33.8455 60.2928 33.3959 60.2248 32.9555C60.1568 32.5151 60.0014 32.0927 59.7678 31.7132C59.5342 31.3336 59.2271 31.0046 58.8646 30.7455C58.502 30.4864 58.0913 30.3023 57.6566 30.2042C57.2219 30.106 56.7719 30.0958 56.3332 30.174C55.8945 30.2522 55.4758 30.4174 55.1018 30.6597C54.7278 30.9021 54.4061 31.2167 54.1554 31.5852L39.7283 51.7815L32.4879 44.5411C31.8541 43.9505 31.0157 43.6289 30.1494 43.6442C29.2832 43.6595 28.4567 44.0104 27.844 44.6231C27.2314 45.2357 26.8805 46.0622 26.8652 46.9285C26.8499 47.7947 27.1714 48.6331 27.7621 49.267L37.7933 59.2982C38.1366 59.6412 38.5504 59.9054 39.0059 60.0724C39.4615 60.2394 39.948 60.3053 40.4316 60.2654C40.9152 60.2255 41.3843 60.0809 41.8064 59.8415C42.2285 59.6021 42.5934 59.2737 42.8758 58.8791L59.5946 35.4729Z" fill="url(#paint0_linear_100_580)"/>
<defs>
<linearGradient id="paint0_linear_100_580" x1="43.5" y1="0.0915527" x2="43.5" y2="87.0291" gradientUnits="userSpaceOnUse">
<stop stop-color="#86CED7"/>
<stop offset="1" stop-color="#6EB0DC"/>
</linearGradient>
</defs>
</svg>
