<svg width="26" height="26" viewBox="0 0 26 26" fill="none" xmlns="http://www.w3.org/2000/svg">
<path fill-rule="evenodd" clip-rule="evenodd" d="M23.4013 12.0986C23.4236 12.17 23.446 12.2414 23.4609 12.3155C23.5258 12.6436 23.5625 12.9812 23.5625 13.3282C23.5625 13.6511 23.5248 13.9687 23.4661 14.2821C23.4531 14.3536 23.4356 14.422 23.4182 14.4906C23.4102 14.5216 23.4023 14.5527 23.3948 14.584C23.3424 14.7926 23.2806 14.9971 23.204 15.1973C23.1642 15.3011 23.1233 15.4027 23.0772 15.5034C22.986 15.7026 22.8801 15.8933 22.7637 16.081C22.7457 16.1101 22.7285 16.1396 22.7113 16.1692C22.6826 16.2184 22.6539 16.2676 22.6212 16.3148C22.6116 16.3284 22.6035 16.3425 22.5954 16.3565C22.5867 16.3716 22.5781 16.3866 22.5677 16.4007C22.5596 16.4123 22.5483 16.4197 22.5372 16.427C22.5282 16.433 22.5192 16.4389 22.5121 16.4468C21.5561 17.7279 20.0424 18.5696 18.3211 18.5696H18.3085C18.2833 18.0811 18.0978 17.6 17.733 17.2226C17.3409 16.8148 16.7906 16.581 16.2245 16.581C15.8513 16.581 15.4917 16.6785 15.1762 16.862V13.3282C15.1762 12.1719 14.2359 11.2316 13.0796 11.2316C11.9244 11.2316 10.983 12.1719 10.983 13.3282V16.7519C10.6675 16.5705 10.309 16.4731 9.93473 16.4731C9.37494 16.4731 8.8487 16.6911 8.45244 17.0874C8.04361 17.4951 7.83919 18.0329 7.83919 18.5696H7.83814C6.11685 18.5696 4.60311 17.7279 3.64812 16.4468C3.64077 16.439 3.63181 16.4332 3.62284 16.4274C3.61132 16.42 3.59976 16.4125 3.59151 16.4007C3.58042 16.3856 3.57128 16.3694 3.56211 16.3532C3.5548 16.3403 3.54746 16.3273 3.5391 16.3148C3.50564 16.2666 3.47602 16.2163 3.44643 16.166C3.42967 16.1375 3.41292 16.109 3.39548 16.081C3.28017 15.8933 3.17324 15.7026 3.08204 15.5034C3.0374 15.406 2.99865 15.3076 2.95914 15.2073L2.9552 15.1973C2.87972 14.9971 2.81682 14.7926 2.76545 14.584C2.75882 14.5575 2.75197 14.5312 2.74513 14.5049C2.72603 14.4316 2.70702 14.3585 2.69312 14.2821C2.63547 13.9687 2.59668 13.6511 2.59668 13.3282C2.59668 12.9812 2.63442 12.6436 2.69836 12.3155C2.71364 12.2391 2.73692 12.1657 2.76019 12.0923C2.77364 12.0498 2.78709 12.0074 2.799 11.9643C2.80338 11.9483 2.80775 11.9322 2.81212 11.9161C2.86209 11.7318 2.91208 11.5476 2.98245 11.3731C3.02042 11.2782 3.06704 11.1894 3.1138 11.1003C3.13417 11.0615 3.15457 11.0226 3.17429 10.9831C3.181 10.9698 3.18768 10.9565 3.19436 10.9432C3.26803 10.7965 3.3406 10.652 3.42902 10.5146C3.49588 10.4088 3.57161 10.3112 3.6474 10.2135C3.66549 10.1902 3.6836 10.1669 3.70158 10.1435L3.70529 10.1387C3.80677 10.0082 3.90737 9.87886 4.02026 9.75769C4.1214 9.64862 4.23003 9.55081 4.33996 9.45183C4.34626 9.44617 4.35256 9.44049 4.35886 9.43482C4.48256 9.3237 4.60835 9.21677 4.74254 9.11823C4.86728 9.02598 4.99517 8.94212 5.12831 8.86245C5.27507 8.77229 5.42497 8.69158 5.58012 8.61715C5.7164 8.55111 5.85268 8.49135 5.99525 8.43789C6.16507 8.3729 6.34013 8.32153 6.51834 8.2754C6.65986 8.23767 6.79824 8.20098 6.945 8.17686C6.9727 8.17179 6.99958 8.16447 7.02646 8.15716C7.06062 8.14787 7.09476 8.13858 7.13055 8.13388C7.9912 5.63475 10.375 3.89354 13.0796 3.89354C15.7853 3.89354 18.1691 5.63475 19.0287 8.13388C19.0645 8.13859 19.0991 8.14791 19.1336 8.15722C19.1606 8.16451 19.1876 8.1718 19.2153 8.17686C19.361 8.20098 19.5004 8.23767 19.6409 8.2754C19.8191 8.32153 19.9942 8.3729 20.164 8.43789C20.3065 8.49135 20.4439 8.55111 20.5791 8.61715C20.7342 8.69158 20.8841 8.77229 21.0309 8.86245C21.164 8.94212 21.293 9.02598 21.4177 9.11823C21.5509 9.21677 21.6767 9.3237 21.8004 9.43482C21.9178 9.53965 22.032 9.64238 22.14 9.75769C22.2543 9.88034 22.356 10.0114 22.4576 10.1435C22.4709 10.1606 22.4843 10.1777 22.4976 10.1947C22.5786 10.2987 22.6592 10.402 22.7312 10.5146C22.8184 10.6515 22.8906 10.7953 22.964 10.9414C22.9709 10.9553 22.9779 10.9692 22.9849 10.9831C23.0047 11.0226 23.0251 11.0615 23.0454 11.1003C23.0922 11.1894 23.1388 11.2782 23.1768 11.3731C23.2483 11.5481 23.2985 11.733 23.3486 11.9177C23.3528 11.9333 23.357 11.9488 23.3613 11.9643C23.3734 12.0095 23.3873 12.0541 23.4013 12.0986ZM14.1282 19.2443L15.4962 17.9234C15.9134 17.5219 16.577 17.5335 16.9785 17.9496C17.381 18.3669 17.3695 19.0304 16.9533 19.4319L13.8084 22.4688C13.604 22.6638 13.3419 22.7623 13.0799 22.7623C12.8115 22.7623 12.5431 22.6607 12.3387 22.4552L9.19385 19.3103C8.78397 18.9015 8.78397 18.2379 9.19385 17.828C9.60268 17.4192 10.2663 17.4192 10.6761 17.828L12.0316 19.1835V13.3277C12.0316 12.748 12.5012 12.2794 13.0799 12.2794C13.6585 12.2794 14.1282 12.748 14.1282 13.3277V19.2443Z" fill="#237B9F"/>
<mask id="mask0_1138_3078" style="mask-type:luminance" maskUnits="userSpaceOnUse" x="2" y="3" width="22" height="20">
<path fill-rule="evenodd" clip-rule="evenodd" d="M23.4013 12.0986C23.4236 12.17 23.446 12.2414 23.4609 12.3155C23.5258 12.6436 23.5625 12.9812 23.5625 13.3282C23.5625 13.6511 23.5248 13.9687 23.4661 14.2821C23.4531 14.3536 23.4356 14.422 23.4182 14.4906C23.4102 14.5216 23.4023 14.5527 23.3948 14.584C23.3424 14.7926 23.2806 14.9971 23.204 15.1973C23.1642 15.3011 23.1233 15.4027 23.0772 15.5034C22.986 15.7026 22.8801 15.8933 22.7637 16.081C22.7457 16.1101 22.7285 16.1396 22.7113 16.1692C22.6826 16.2184 22.6539 16.2676 22.6212 16.3148C22.6116 16.3284 22.6035 16.3425 22.5954 16.3565C22.5867 16.3716 22.5781 16.3866 22.5677 16.4007C22.5596 16.4123 22.5483 16.4197 22.5372 16.427C22.5282 16.433 22.5192 16.4389 22.5121 16.4468C21.5561 17.7279 20.0424 18.5696 18.3211 18.5696H18.3085C18.2833 18.0811 18.0978 17.6 17.733 17.2226C17.3409 16.8148 16.7906 16.581 16.2245 16.581C15.8513 16.581 15.4917 16.6785 15.1762 16.862V13.3282C15.1762 12.1719 14.2359 11.2316 13.0796 11.2316C11.9244 11.2316 10.983 12.1719 10.983 13.3282V16.7519C10.6675 16.5705 10.309 16.4731 9.93473 16.4731C9.37494 16.4731 8.8487 16.6911 8.45244 17.0874C8.04361 17.4951 7.83919 18.0329 7.83919 18.5696H7.83814C6.11685 18.5696 4.60311 17.7279 3.64812 16.4468C3.64077 16.439 3.63181 16.4332 3.62284 16.4274C3.61132 16.42 3.59976 16.4125 3.59151 16.4007C3.58042 16.3856 3.57128 16.3694 3.56211 16.3532C3.5548 16.3403 3.54746 16.3273 3.5391 16.3148C3.50564 16.2666 3.47602 16.2163 3.44643 16.166C3.42967 16.1375 3.41292 16.109 3.39548 16.081C3.28017 15.8933 3.17324 15.7026 3.08204 15.5034C3.0374 15.406 2.99865 15.3076 2.95914 15.2073L2.9552 15.1973C2.87972 14.9971 2.81682 14.7926 2.76545 14.584C2.75882 14.5575 2.75197 14.5312 2.74513 14.5049C2.72603 14.4316 2.70702 14.3585 2.69312 14.2821C2.63547 13.9687 2.59668 13.6511 2.59668 13.3282C2.59668 12.9812 2.63442 12.6436 2.69836 12.3155C2.71364 12.2391 2.73692 12.1657 2.76019 12.0923C2.77364 12.0498 2.78709 12.0074 2.799 11.9643C2.80338 11.9483 2.80775 11.9322 2.81212 11.9161C2.86209 11.7318 2.91208 11.5476 2.98245 11.3731C3.02042 11.2782 3.06704 11.1894 3.1138 11.1003C3.13417 11.0615 3.15457 11.0226 3.17429 10.9831C3.181 10.9698 3.18768 10.9565 3.19436 10.9432C3.26803 10.7965 3.3406 10.652 3.42902 10.5146C3.49588 10.4088 3.57161 10.3112 3.6474 10.2135C3.66549 10.1902 3.6836 10.1669 3.70158 10.1435L3.70529 10.1387C3.80677 10.0082 3.90737 9.87886 4.02026 9.75769C4.1214 9.64862 4.23003 9.55081 4.33996 9.45183C4.34626 9.44617 4.35256 9.44049 4.35886 9.43482C4.48256 9.3237 4.60835 9.21677 4.74254 9.11823C4.86728 9.02598 4.99517 8.94212 5.12831 8.86245C5.27507 8.77229 5.42497 8.69158 5.58012 8.61715C5.7164 8.55111 5.85268 8.49135 5.99525 8.43789C6.16507 8.3729 6.34013 8.32153 6.51834 8.2754C6.65986 8.23767 6.79824 8.20098 6.945 8.17686C6.9727 8.17179 6.99958 8.16447 7.02646 8.15716C7.06062 8.14787 7.09476 8.13858 7.13055 8.13388C7.9912 5.63475 10.375 3.89354 13.0796 3.89354C15.7853 3.89354 18.1691 5.63475 19.0287 8.13388C19.0645 8.13859 19.0991 8.14791 19.1336 8.15722C19.1606 8.16451 19.1876 8.1718 19.2153 8.17686C19.361 8.20098 19.5004 8.23767 19.6409 8.2754C19.8191 8.32153 19.9942 8.3729 20.164 8.43789C20.3065 8.49135 20.4439 8.55111 20.5791 8.61715C20.7342 8.69158 20.8841 8.77229 21.0309 8.86245C21.164 8.94212 21.293 9.02598 21.4177 9.11823C21.5509 9.21677 21.6767 9.3237 21.8004 9.43482C21.9178 9.53965 22.032 9.64238 22.14 9.75769C22.2543 9.88034 22.356 10.0114 22.4576 10.1435C22.4709 10.1606 22.4843 10.1777 22.4976 10.1947C22.5786 10.2987 22.6592 10.402 22.7312 10.5146C22.8184 10.6515 22.8906 10.7953 22.964 10.9414C22.9709 10.9553 22.9779 10.9692 22.9849 10.9831C23.0047 11.0226 23.0251 11.0615 23.0454 11.1003C23.0922 11.1894 23.1388 11.2782 23.1768 11.3731C23.2483 11.5481 23.2985 11.733 23.3486 11.9177C23.3528 11.9333 23.357 11.9488 23.3613 11.9643C23.3734 12.0095 23.3873 12.0541 23.4013 12.0986ZM14.1282 19.2443L15.4962 17.9234C15.9134 17.5219 16.577 17.5335 16.9785 17.9496C17.381 18.3669 17.3695 19.0304 16.9533 19.4319L13.8084 22.4688C13.604 22.6638 13.3419 22.7623 13.0799 22.7623C12.8115 22.7623 12.5431 22.6607 12.3387 22.4552L9.19385 19.3103C8.78397 18.9015 8.78397 18.2379 9.19385 17.828C9.60268 17.4192 10.2663 17.4192 10.6761 17.828L12.0316 19.1835V13.3277C12.0316 12.748 12.5012 12.2794 13.0799 12.2794C13.6585 12.2794 14.1282 12.748 14.1282 13.3277V19.2443Z" fill="white"/>
</mask>
<g mask="url(#mask0_1138_3078)">
</g>
</svg>
