<svg width="21" height="21" viewBox="0 0 21 21" fill="none" xmlns="http://www.w3.org/2000/svg">
<path d="M10.769 20.4111C5.24604 20.4111 0.769043 15.9341 0.769043 10.4111C0.769043 4.88813 5.24604 0.411133 10.769 0.411133C16.292 0.411133 20.769 4.88813 20.769 10.4111C20.769 15.9341 16.292 20.4111 10.769 20.4111ZM7.26904 12.4111V14.4111H9.76904V16.4111H11.769V14.4111H12.769C13.4321 14.4111 14.068 14.1477 14.5368 13.6789C15.0057 13.2101 15.269 12.5742 15.269 11.9111C15.269 11.2481 15.0057 10.6122 14.5368 10.1434C14.068 9.67453 13.4321 9.41113 12.769 9.41113H8.76904C8.63643 9.41113 8.50926 9.35845 8.41549 9.26469C8.32172 9.17092 8.26904 9.04374 8.26904 8.91113C8.26904 8.77852 8.32172 8.65135 8.41549 8.55758C8.50926 8.46381 8.63643 8.41113 8.76904 8.41113H14.269V6.41113H11.769V4.41113H9.76904V6.41113H8.76904C8.106 6.41113 7.47012 6.67452 7.00128 7.14337C6.53243 7.61221 6.26904 8.24809 6.26904 8.91113C6.26904 9.57417 6.53243 10.2101 7.00128 10.6789C7.47012 11.1477 8.106 11.4111 8.76904 11.4111H12.769C12.9017 11.4111 13.0288 11.4638 13.1226 11.5576C13.2164 11.6513 13.269 11.7785 13.269 11.9111C13.269 12.0437 13.2164 12.1709 13.1226 12.2647C13.0288 12.3585 12.9017 12.4111 12.769 12.4111H7.26904Z" fill="url(#paint0_linear_105_962)"/>
<defs>
<linearGradient id="paint0_linear_105_962" x1="10.769" y1="0.411133" x2="10.769" y2="20.4111" gradientUnits="userSpaceOnUse">
<stop stop-color="#86CED7"/>
<stop offset="1" stop-color="#6EB0DC"/>
</linearGradient>
</defs>
</svg>
