<svg width="17" height="17" viewBox="0 0 17 17" fill="none" xmlns="http://www.w3.org/2000/svg">
<path d="M8.76904 0.411135C9.82991 0.411135 10.8473 0.832562 11.5975 1.58271C12.3476 2.33285 12.769 3.35027 12.769 4.41113C12.769 5.472 12.3476 6.48942 11.5975 7.23956C10.8473 7.98971 9.82991 8.41113 8.76904 8.41113C7.70818 8.41113 6.69076 7.98971 5.94062 7.23956C5.19047 6.48942 4.76904 5.472 4.76904 4.41113C4.76904 3.35027 5.19047 2.33285 5.94062 1.58271C6.69076 0.832562 7.70818 0.411135 8.76904 0.411135ZM8.76904 10.4111C13.189 10.4111 16.769 12.2011 16.769 14.4111V16.4111H0.769043V14.4111C0.769043 12.2011 4.34904 10.4111 8.76904 10.4111Z" fill="url(#paint0_linear_105_964)"/>
<defs>
<linearGradient id="paint0_linear_105_964" x1="8.76904" y1="0.411135" x2="8.76904" y2="16.4111" gradientUnits="userSpaceOnUse">
<stop stop-color="#86CED7"/>
<stop offset="1" stop-color="#6EB0DC"/>
</linearGradient>
</defs>
</svg>
