<svg width="14" height="11" viewBox="0 0 14 11" fill="none" xmlns="http://www.w3.org/2000/svg">
<path d="M0.013916 1.47176V1.1032C0.013916 0.865002 0.102625 0.636562 0.260529 0.468132C0.418432 0.299701 0.632595 0.205078 0.855904 0.205078L12.6437 0.205078C12.867 0.205078 13.0812 0.299701 13.2391 0.468132C13.397 0.636562 13.4857 0.865002 13.4857 1.1032V1.47176L6.74982 5.96237L0.013916 1.47176ZM6.97295 6.87284C6.90602 6.91739 6.82871 6.94101 6.74982 6.94101C6.67093 6.94101 6.59362 6.91739 6.52669 6.87284L0.013916 2.53087V10.0844C0.013916 10.3226 0.102625 10.551 0.260529 10.7195C0.418432 10.8879 0.632595 10.9825 0.855904 10.9825H12.6437C12.867 10.9825 13.0812 10.8879 13.2391 10.7195C13.397 10.551 13.4857 10.3226 13.4857 10.0844V2.53087L6.97295 6.87284Z" fill="#9A9A9A"/>
</svg>
