<svg width="19" height="19" viewBox="0 0 19 19" fill="none" xmlns="http://www.w3.org/2000/svg">
<g clip-path="url(#clip0_2507_3831)">
<path d="M9.89828 7.5C9.30155 7.5 8.72925 7.73705 8.30729 8.15901C7.88534 8.58097 7.64828 9.15326 7.64828 9.75C7.64828 10.3467 7.88534 10.919 8.30729 11.341C8.72925 11.7629 9.30155 12 9.89828 12C10.495 12 11.0673 11.7629 11.4893 11.341C11.9112 10.919 12.1483 10.3467 12.1483 9.75C12.1483 9.15326 11.9112 8.58097 11.4893 8.15901C11.0673 7.73705 10.495 7.5 9.89828 7.5ZM9.89828 13.5C8.90372 13.5 7.9499 13.1049 7.24663 12.4017C6.54337 11.6984 6.14828 10.7446 6.14828 9.75C6.14828 8.75544 6.54337 7.80161 7.24663 7.09835C7.9499 6.39509 8.90372 6 9.89828 6C10.8928 6 11.8467 6.39509 12.5499 7.09835C13.2532 7.80161 13.6483 8.75544 13.6483 9.75C13.6483 10.7446 13.2532 11.6984 12.5499 12.4017C11.8467 13.1049 10.8928 13.5 9.89828 13.5ZM9.89828 4.125C6.14828 4.125 2.94578 6.4575 1.64828 9.75C2.94578 13.0425 6.14828 15.375 9.89828 15.375C13.6483 15.375 16.8508 13.0425 18.1483 9.75C16.8508 6.4575 13.6483 4.125 9.89828 4.125Z" fill="#505050"/>
</g>
<defs>
<clipPath id="clip0_2507_3831">
<rect width="18" height="18" fill="white" transform="translate(0.898285 0.75)"/>
</clipPath>
</defs>
</svg>
