<svg width="19" height="23" viewBox="0 0 19 23" fill="none" xmlns="http://www.w3.org/2000/svg">
<path d="M9.76904 22.2445L9.49821 18.9945H9.22738C6.66349 18.9945 4.48779 18.1007 2.70029 16.3132C0.912793 14.5257 0.019043 12.35 0.019043 9.78614C0.019043 7.22225 0.912793 5.04655 2.70029 3.25905C4.48779 1.47155 6.66349 0.577805 9.22738 0.577805C10.5093 0.577805 11.7057 0.81686 12.8165 1.29497C13.9272 1.77308 14.9022 2.43211 15.7415 3.27205C16.5807 4.112 17.2393 5.087 17.7175 6.19705C18.1956 7.30711 18.435 8.50347 18.4357 9.78614C18.4357 11.1403 18.2143 12.4403 17.7716 13.6861C17.3289 14.932 16.724 16.0875 15.957 17.1528C15.19 18.2181 14.2782 19.1841 13.2216 20.0507C12.165 20.9174 11.0142 21.6486 9.76904 22.2445ZM9.20029 15.7174C9.50724 15.7174 9.76904 15.6091 9.98571 15.3924C10.2024 15.1757 10.3107 14.9139 10.3107 14.607C10.3107 14.3 10.2024 14.0382 9.98571 13.8216C9.76904 13.6049 9.50724 13.4966 9.20029 13.4966C8.89335 13.4966 8.63154 13.6049 8.41488 13.8216C8.19821 14.0382 8.08988 14.3 8.08988 14.607C8.08988 14.9139 8.19821 15.1757 8.41488 15.3924C8.63154 15.6091 8.89335 15.7174 9.20029 15.7174ZM8.41488 12.2778H10.0399C10.0399 11.7361 10.094 11.357 10.2024 11.1403C10.3107 10.9236 10.6538 10.5264 11.2315 9.94864C11.5565 9.62364 11.8274 9.27155 12.044 8.89239C12.2607 8.51322 12.369 8.10697 12.369 7.67364C12.369 6.7528 12.0574 6.062 11.4341 5.60122C10.8108 5.14044 10.0753 4.91042 9.22738 4.91114C8.43293 4.91114 7.76488 5.1325 7.22321 5.57522C6.68154 6.01794 6.30238 6.55492 6.08571 7.18614L7.60238 7.78197C7.69265 7.47503 7.86418 7.17241 8.11696 6.87414C8.36974 6.57586 8.73988 6.42708 9.22738 6.4278C9.71488 6.4278 10.0803 6.56322 10.3237 6.83405C10.5671 7.10489 10.6892 7.4028 10.6899 7.7278C10.6899 8.03475 10.5996 8.31028 10.419 8.55439C10.2385 8.7985 10.0218 9.04658 9.76904 9.29864C9.1371 9.8403 8.75324 10.2693 8.61746 10.5856C8.48168 10.902 8.41415 11.466 8.41488 12.2778Z" fill="url(#paint0_linear_105_832)"/>
<defs>
<linearGradient id="paint0_linear_105_832" x1="9.22738" y1="0.577805" x2="9.22738" y2="22.2445" gradientUnits="userSpaceOnUse">
<stop stop-color="#86CED7"/>
<stop offset="1" stop-color="#6EB0DC"/>
</linearGradient>
</defs>
</svg>
