<svg width="25" height="25" viewBox="0 0 25 25" fill="none" xmlns="http://www.w3.org/2000/svg">
<path d="M12.4941 4.75C13.555 4.75 14.5724 5.17143 15.3226 5.92157C16.0727 6.67172 16.4941 7.68913 16.4941 8.75C16.4941 9.81087 16.0727 10.8283 15.3226 11.5784C14.5724 12.3286 13.555 12.75 12.4941 12.75C11.4333 12.75 10.4159 12.3286 9.66571 11.5784C8.91557 10.8283 8.49414 9.81087 8.49414 8.75C8.49414 7.68913 8.91557 6.67172 9.66571 5.92157C10.4159 5.17143 11.4333 4.75 12.4941 4.75ZM12.4941 14.75C16.9141 14.75 20.4941 16.54 20.4941 18.75V20.75H4.49414V18.75C4.49414 16.54 8.07414 14.75 12.4941 14.75Z" fill="#86CED7"/>
</svg>
