<svg width="25" height="25" viewBox="0 0 25 25" fill="none" xmlns="http://www.w3.org/2000/svg">
<path d="M20.5049 6.75C20.5049 4.582 16.8419 2.75 12.5049 2.75C8.16788 2.75 4.50488 4.582 4.50488 6.75V8.75C4.50488 10.918 8.16788 12.75 12.5049 12.75C16.8419 12.75 20.5049 10.918 20.5049 8.75V6.75ZM12.5049 19.75C8.16788 19.75 4.50488 17.918 4.50488 15.75V18.75C4.50488 20.918 8.16788 22.75 12.5049 22.75C16.8419 22.75 20.5049 20.918 20.5049 18.75V15.75C20.5049 17.918 16.8419 19.75 12.5049 19.75Z" fill="#86CED7"/>
<path d="M20.5049 10.75C20.5049 12.918 16.8419 14.75 12.5049 14.75C8.16788 14.75 4.50488 12.918 4.50488 10.75V13.75C4.50488 15.918 8.16788 17.75 12.5049 17.75C16.8419 17.75 20.5049 15.918 20.5049 13.75V10.75Z" fill="#BBBBBB"/>
</svg>
