<svg width="25" height="25" viewBox="0 0 25 25" fill="none" xmlns="http://www.w3.org/2000/svg">
<path d="M15.3525 16.75H9.35254C9.08732 16.75 8.83297 16.8554 8.64543 17.0429C8.4579 17.2304 8.35254 17.4848 8.35254 17.75C8.35254 18.0152 8.4579 18.2696 8.64543 18.4571C8.83297 18.6446 9.08732 18.75 9.35254 18.75H15.3525C15.6178 18.75 15.8721 18.6446 16.0596 18.4571C16.2472 18.2696 16.3525 18.0152 16.3525 17.75C16.3525 17.4848 16.2472 17.2304 16.0596 17.0429C15.8721 16.8554 15.6178 16.75 15.3525 16.75ZM9.35254 10.75H10.3525C10.6178 10.75 10.8721 10.6446 11.0596 10.4571C11.2472 10.2696 11.3525 10.0152 11.3525 9.75C11.3525 9.48478 11.2472 9.23043 11.0596 9.04289C10.8721 8.85536 10.6178 8.75 10.3525 8.75H9.35254C9.08732 8.75 8.83297 8.85536 8.64543 9.04289C8.4579 9.23043 8.35254 9.48478 8.35254 9.75C8.35254 10.0152 8.4579 10.2696 8.64543 10.4571C8.83297 10.6446 9.08732 10.75 9.35254 10.75ZM15.3525 12.75H9.35254C9.08732 12.75 8.83297 12.8554 8.64543 13.0429C8.4579 13.2304 8.35254 13.4848 8.35254 13.75C8.35254 14.0152 8.4579 14.2696 8.64543 14.4571C8.83297 14.6446 9.08732 14.75 9.35254 14.75H15.3525C15.6178 14.75 15.8721 14.6446 16.0596 14.4571C16.2472 14.2696 16.3525 14.0152 16.3525 13.75C16.3525 13.4848 16.2472 13.2304 16.0596 13.0429C15.8721 12.8554 15.6178 12.75 15.3525 12.75ZM20.0625 16.04C19.9674 15.949 19.8553 15.8776 19.7325 15.83C19.6132 15.7759 19.4836 15.7479 19.3525 15.7479C19.2215 15.7479 19.0919 15.7759 18.9725 15.83C18.8498 15.8776 18.7376 15.949 18.6425 16.04C18.5542 16.1372 18.4832 16.2488 18.4325 16.37C18.356 16.5521 18.335 16.7528 18.3724 16.9468C18.4098 17.1408 18.5038 17.3194 18.6425 17.46C18.736 17.5527 18.8468 17.626 18.9686 17.6758C19.0905 17.7255 19.2209 17.7508 19.3525 17.75C19.4832 17.7484 19.6123 17.7212 19.7325 17.67C19.8537 17.6194 19.9653 17.5483 20.0625 17.46C20.2013 17.3194 20.2953 17.1408 20.3327 16.9468C20.37 16.7528 20.3491 16.5521 20.2725 16.37C20.2219 16.2488 20.1509 16.1372 20.0625 16.04ZM20.3525 9.69C20.3421 9.59813 20.322 9.50763 20.2925 9.42V9.33C20.2445 9.22718 20.1803 9.13267 20.1025 9.05L14.1025 3.05C14.0199 2.97222 13.9254 2.90808 13.8225 2.86C13.7927 2.85576 13.7624 2.85576 13.7325 2.86C13.631 2.80174 13.5188 2.76434 13.4025 2.75H7.35254C6.55689 2.75 5.79383 3.06607 5.23122 3.62868C4.66861 4.19129 4.35254 4.95435 4.35254 5.75V19.75C4.35254 20.5456 4.66861 21.3087 5.23122 21.8713C5.79383 22.4339 6.55689 22.75 7.35254 22.75H15.3525C15.6178 22.75 15.8721 22.6446 16.0596 22.4571C16.2472 22.2696 16.3525 22.0152 16.3525 21.75C16.3525 21.4848 16.2472 21.2304 16.0596 21.0429C15.8721 20.8554 15.6178 20.75 15.3525 20.75H7.35254C7.08732 20.75 6.83297 20.6446 6.64543 20.4571C6.4579 20.2696 6.35254 20.0152 6.35254 19.75V5.75C6.35254 5.48478 6.4579 5.23043 6.64543 5.04289C6.83297 4.85536 7.08732 4.75 7.35254 4.75H12.3525V7.75C12.3525 8.54565 12.6686 9.30871 13.2312 9.87132C13.7938 10.4339 14.5569 10.75 15.3525 10.75H18.3525V12.75C18.3525 13.0152 18.4579 13.2696 18.6454 13.4571C18.833 13.6446 19.0873 13.75 19.3525 13.75C19.6178 13.75 19.8721 13.6446 20.0596 13.4571C20.2472 13.2696 20.3525 13.0152 20.3525 12.75V9.69ZM15.3525 8.75C15.0873 8.75 14.833 8.64464 14.6454 8.45711C14.4579 8.26957 14.3525 8.01522 14.3525 7.75V6.16L16.9425 8.75H15.3525ZM19.3525 18.75C19.0873 18.75 18.833 18.8554 18.6454 19.0429C18.4579 19.2304 18.3525 19.4848 18.3525 19.75V21.75C18.3525 22.0152 18.4579 22.2696 18.6454 22.4571C18.833 22.6446 19.0873 22.75 19.3525 22.75C19.6178 22.75 19.8721 22.6446 20.0596 22.4571C20.2472 22.2696 20.3525 22.0152 20.3525 21.75V19.75C20.3525 19.4848 20.2472 19.2304 20.0596 19.0429C19.8721 18.8554 19.6178 18.75 19.3525 18.75Z" fill="#86CED7"/>
</svg>
