<svg width="65" height="27" viewBox="0 0 65 27" fill="none" xmlns="http://www.w3.org/2000/svg">
<path fill-rule="evenodd" clip-rule="evenodd" d="M30.0816 21.3074V13.6717H34.0225C35.6374 13.6717 37.0004 13.1306 38.1116 12.0634L38.3782 11.7929C40.408 9.58334 40.2746 6.14128 38.1116 4.09709C37.03 3.01488 35.5485 2.42867 34.0225 2.45874H27.6963V21.3074H30.0816ZM30.0819 11.3565V4.77298H34.0828C34.9422 4.77298 35.7572 5.10366 36.3647 5.70489C37.6538 6.96748 37.6835 9.07179 36.4388 10.3795C35.8313 11.0258 34.9718 11.3865 34.0828 11.3565H30.0819ZM49.505 9.41839C48.4827 8.47145 47.0901 7.99047 45.3271 7.99047C43.0603 7.99047 41.3565 8.83219 40.2305 10.5006L42.3343 11.8384C43.1047 10.696 44.1566 10.1248 45.49 10.1248C46.3345 10.1248 47.1494 10.4405 47.7864 11.0117C48.4087 11.5528 48.7642 12.3344 48.7642 13.1611V13.7172C47.8457 13.2062 46.6901 12.9356 45.2678 12.9356C43.6085 12.9356 42.2751 13.3264 41.2824 14.123C40.2898 14.9197 39.7861 15.9718 39.7861 17.3096C39.7564 18.5271 40.275 19.6844 41.1935 20.466C42.1269 21.3078 43.3121 21.7286 44.7048 21.7286C46.3493 21.7286 47.6531 20.9921 48.6457 19.5191H48.7494V21.3078H51.031V13.3565C51.031 11.688 50.5273 10.3653 49.505 9.41839ZM43.0309 18.9323C42.542 18.5715 42.2456 17.9853 42.2456 17.354C42.2456 16.6476 42.5716 16.0614 43.2088 15.5954C43.8607 15.1295 44.6757 14.889 45.6389 14.889C46.9725 14.8739 48.0097 15.1746 48.7506 15.7758C48.7506 16.7979 48.3505 17.6847 47.5652 18.4362C46.8539 19.1577 45.8908 19.5635 44.8832 19.5635C44.2164 19.5786 43.5644 19.3531 43.0309 18.9323ZM56.1568 26.9738L64.1275 8.41071H61.5348L57.8457 17.6697H57.8013L54.0233 8.41071H51.4306L56.6605 20.4804L53.6974 26.9738H56.1568Z" fill="#3C4043"/>
<path d="M21.8471 12.0181C21.8471 11.2816 21.7878 10.545 21.6693 9.82357H11.6096V13.9871H17.3728C17.1358 15.3248 16.3654 16.5273 15.2394 17.2789V19.9844H18.6766C20.6915 18.1055 21.8471 15.3248 21.8471 12.0181Z" fill="#4285F4"/>
<path d="M11.6096 22.5999C14.4838 22.5999 16.9135 21.6379 18.6766 19.9845L15.2394 17.279C14.2764 17.9403 13.0467 18.3161 11.6096 18.3161C8.82428 18.3161 6.46863 16.4072 5.62415 13.852H2.08325V16.6477C3.89074 20.3002 7.57979 22.5999 11.6096 22.5999Z" fill="#34A853"/>
<path d="M5.62461 13.852C5.18008 12.5142 5.18008 11.0563 5.62461 9.70349V6.92279H2.08315C0.556918 9.97404 0.556918 13.5814 2.08315 16.6327L5.62461 13.852Z" fill="#FBBC04"/>
<path d="M11.6096 5.23947C13.1356 5.20941 14.6023 5.79561 15.6987 6.8628L18.7506 3.76645C16.8098 1.93269 14.2616 0.925629 11.6096 0.95569C7.57979 0.95569 3.89074 3.27043 2.08325 6.92292L5.62415 9.71865C6.46863 7.14838 8.82428 5.23947 11.6096 5.23947Z" fill="#EA4335"/>
</svg>
