<svg width="10" height="8" viewBox="0 0 10 8" fill="none" xmlns="http://www.w3.org/2000/svg">
<path d="M3.68329 7.27399C3.60217 7.27399 3.52611 7.26122 3.45513 7.23566C3.38414 7.21051 3.31822 7.16751 3.25738 7.10667L0.641041 4.49032C0.529491 4.37878 0.476151 4.23417 0.481018 4.0565C0.486291 3.87924 0.544702 3.73483 0.656252 3.62328C0.767801 3.51173 0.909773 3.45596 1.08217 3.45596C1.25456 3.45596 1.39653 3.51173 1.50808 3.62328L3.68329 5.7985L8.83991 0.641865C8.95146 0.530316 9.09607 0.474541 9.27374 0.474541C9.451 0.474541 9.59541 0.530316 9.70696 0.641865C9.81851 0.753415 9.87428 0.897821 9.87428 1.07508C9.87428 1.25275 9.81851 1.39736 9.70696 1.50891L4.10921 7.10667C4.04836 7.16751 3.98245 7.21051 3.91146 7.23566C3.84048 7.26122 3.76442 7.27399 3.68329 7.27399Z" fill="#16AA3E"/>
</svg>
