<svg width="19" height="22" viewBox="0 0 19 22" fill="none" xmlns="http://www.w3.org/2000/svg">
<path d="M15.769 7.4111H17.769C18.0343 7.4111 18.2886 7.51646 18.4762 7.704C18.6637 7.89153 18.769 8.14589 18.769 8.4111V20.4111C18.769 20.6763 18.6637 20.9307 18.4762 21.1182C18.2886 21.3057 18.0343 21.4111 17.769 21.4111H1.76904C1.50383 21.4111 1.24947 21.3057 1.06194 21.1182C0.8744 20.9307 0.769043 20.6763 0.769043 20.4111V8.4111C0.769043 8.14589 0.8744 7.89153 1.06194 7.704C1.24947 7.51646 1.50383 7.4111 1.76904 7.4111H3.76904V6.4111C3.76904 4.8198 4.40118 3.29368 5.5264 2.16846C6.65162 1.04324 8.17774 0.411102 9.76904 0.411102C11.3603 0.411102 12.8865 1.04324 14.0117 2.16846C15.1369 3.29368 15.769 4.8198 15.769 6.4111V7.4111ZM13.769 7.4111V6.4111C13.769 5.35024 13.3476 4.33282 12.5975 3.58267C11.8473 2.83253 10.8299 2.4111 9.76904 2.4111C8.70818 2.4111 7.69076 2.83253 6.94062 3.58267C6.19047 4.33282 5.76904 5.35024 5.76904 6.4111V7.4111H13.769ZM8.76904 13.4111V15.4111H10.769V13.4111H8.76904ZM4.76904 13.4111V15.4111H6.76904V13.4111H4.76904ZM12.769 13.4111V15.4111H14.769V13.4111H12.769Z" fill="url(#paint0_linear_105_977)"/>
<defs>
<linearGradient id="paint0_linear_105_977" x1="9.76904" y1="0.411102" x2="9.76904" y2="21.4111" gradientUnits="userSpaceOnUse">
<stop stop-color="#86CED7"/>
<stop offset="1" stop-color="#6EB0DC"/>
</linearGradient>
</defs>
</svg>
