<svg width="19" height="21" viewBox="0 0 19 21" fill="none" xmlns="http://www.w3.org/2000/svg">
<path d="M9.76904 0.860168L5.76904 5.86017L8.76904 5.86017L8.76904 14.8602L10.769 14.8602L10.769 5.86017L13.769 5.86017L9.76904 0.860168Z" fill="url(#paint0_linear_1_2)"/>
<path d="M18.77 11.8615C18.7733 10.679 18.5419 9.50765 18.0892 8.41524C17.6366 7.32283 16.9716 6.3311 16.133 5.4975L14.719 6.9115C16.041 8.2335 16.77 9.9915 16.77 11.8615C16.77 13.7315 16.041 15.4895 14.719 16.8115C13.397 18.1335 11.639 18.8625 9.76898 18.8625C7.89898 18.8625 6.14098 18.1335 4.81898 16.8115C3.49698 15.4895 2.76798 13.7315 2.76799 11.8615C2.76799 9.9915 3.49698 8.2335 4.81898 6.9115L3.40498 5.4975C1.70498 7.1965 0.767985 9.4565 0.767985 11.8615C0.767985 14.2665 1.70498 16.5265 3.40498 18.2255C5.10398 19.9255 7.36398 20.8625 9.76898 20.8625C12.174 20.8625 14.434 19.9255 16.133 18.2255C16.9716 17.3919 17.6366 16.4002 18.0892 15.3078C18.5419 14.2153 18.7733 13.044 18.77 11.8615V11.8615Z" fill="url(#paint1_linear_1_2)"/>
<defs>
<linearGradient id="paint0_linear_1_2" x1="13.769" y1="7.86017" x2="5.76904" y2="7.86017" gradientUnits="userSpaceOnUse">
<stop stop-color="#86CED7"/>
<stop offset="1" stop-color="#6EB0DC"/>
</linearGradient>
<linearGradient id="paint1_linear_1_2" x1="18.77" y1="13.18" x2="0.767985" y2="13.18" gradientUnits="userSpaceOnUse">
<stop stop-color="#86CED7"/>
<stop offset="1" stop-color="#6EB0DC"/>
</linearGradient>
</defs>
</svg>
