<svg width="41" height="28" viewBox="0 0 41 28" fill="none" xmlns="http://www.w3.org/2000/svg">
<g clip-path="url(#clip0_41_171)">
<path d="M30.0189 0.25L21.501 6.55265L23.085 2.83832L30.0189 0.25Z" fill="#E17726"/>
<path d="M11.1081 0.257446L18.0235 2.83879L19.5275 6.60181L11.1081 0.257446ZM26.5911 13.654L30.3559 13.7256L29.0401 18.1954L24.4462 16.9306L26.5911 13.654ZM14.516 13.654L16.6528 16.9306L12.0667 18.1955L10.7589 13.7256L14.516 13.654Z" fill="#E27625"/>
<path d="M19.323 5.6433L19.4768 10.6125L14.873 10.4031L16.1826 8.42742L16.1992 8.40842L19.323 5.6433ZM21.7364 5.58786L24.9079 8.40858L24.9243 8.4275L26.2339 10.4031L21.6311 10.6125L21.7364 5.58786ZM16.7876 13.6684L19.3014 15.6271L16.3813 17.0369L16.7876 13.6684ZM24.3199 13.6681L24.7178 17.037L21.8058 15.6269L24.3199 13.6681Z" fill="#E27625"/>
<path d="M21.8702 15.4425L24.8251 16.8733L22.0764 18.1796L22.105 17.3162L21.8702 15.4425ZM19.2363 15.4431L19.0107 17.3021L19.0292 18.1786L16.2741 16.8733L19.2363 15.4431Z" fill="#D5BFB2"/>
<path d="M18.3829 11.2611L19.155 12.8839L16.5261 12.1137L18.3829 11.2611ZM22.7241 11.2612L24.5897 12.1137L21.9521 12.8837L22.7241 11.2612Z" fill="#233447"/>
<path d="M16.9887 13.6518L16.5637 17.1444L14.286 13.7282L16.9887 13.6518ZM24.1188 13.6519L26.8215 13.7282L24.5353 17.1445L24.1188 13.6519ZM26.3005 10.2056L24.3336 12.2101L22.8171 11.5171L22.0911 13.0435L21.6151 10.4187L26.3005 10.2056ZM14.8057 10.2056L19.4921 10.4187L19.016 13.0435L18.2898 11.5174L16.7814 12.2102L14.8057 10.2056Z" fill="#CC6228"/>
<path d="M14.6732 9.79419L16.8986 12.0523L16.9756 14.2816L14.6732 9.79419ZM26.4363 9.79016L24.1297 14.2856L24.2166 12.0523L26.4363 9.79016ZM19.3833 9.93176L19.4728 10.4955L19.6942 11.8999L19.5519 16.2132L18.8792 12.7482L18.8789 12.7124L19.3833 9.93176ZM21.7228 9.92392L22.2285 12.7124L22.2283 12.7482L21.5539 16.2219L21.5272 15.353L21.422 11.8743L21.7228 9.92392Z" fill="#E27525"/>
<path d="M24.4143 11.9626L24.339 13.8995L21.9915 15.7285L21.5169 15.3932L22.0489 12.6532L24.4143 11.9626ZM16.701 11.9626L19.0583 12.6532L19.5902 15.3932L19.1156 15.7285L16.768 13.8993L16.701 11.9626Z" fill="#F5841F"/>
<path d="M15.8249 16.4456L18.8283 17.8686L18.8156 17.2609L19.0669 17.0403H22.0394L22.2998 17.2602L22.2806 17.8674L25.265 16.4491L23.8128 17.6492L22.0568 18.8552H19.0428L17.288 17.6442L15.8249 16.4456Z" fill="#C0AC9D"/>
<path d="M21.6551 15.253L22.0797 15.553L22.3285 17.5385L21.9684 17.2344H19.1399L18.7867 17.5446L19.0273 15.5532L19.4521 15.253H21.6551Z" fill="#161616"/>
<path d="M29.4567 0.424469L30.4792 3.49185L29.8406 6.59336L30.2953 6.94408L29.68 7.41353L30.1425 7.7707L29.5301 8.32831L29.906 8.60057L28.9084 9.76573L24.8164 8.57428L24.781 8.55528L21.8322 6.06784L29.4567 0.424469ZM11.6505 0.424469L19.2751 6.06784L16.3262 8.55528L16.2908 8.57428L12.1988 9.76573L11.2012 8.60057L11.5768 8.32854L10.9648 7.7707L11.4264 7.41392L10.8018 6.94315L11.2737 6.59219L10.6281 3.49201L11.6505 0.424469Z" fill="#763E1A"/>
<path d="M24.6162 8.31373L28.9519 9.57606L30.3605 13.9174H26.6443L24.0838 13.9497L25.946 10.32L24.6162 8.31373ZM16.4909 8.31373L15.161 10.32L17.0234 13.9497L14.464 13.9174H10.7545L12.1552 9.57614L16.4909 8.31373ZM23.2974 2.81761L22.0847 6.09297L21.8273 10.5176L21.7288 11.9045L21.721 15.4473H19.3861L19.3785 11.9111L19.2797 10.5164L19.0223 6.09297L17.8097 2.81761H23.2974Z" fill="#F5841F"/>
</g>
<path d="M33.0227 22.9899C33.3501 22.9899 33.6565 23.0973 33.926 23.2997C34.2075 23.5104 34.3608 23.8409 34.394 24.2375C34.3955 24.2429 34.395 24.2486 34.3925 24.2535C34.39 24.2585 34.3857 24.2623 34.3805 24.2643L34.3691 24.2664H33.7312C33.7218 24.2664 33.7125 24.2617 33.7084 24.2542L33.7063 24.2457C33.6316 23.6715 32.9318 23.5145 32.5094 23.7955C32.2151 23.9938 32.1571 24.4482 32.439 24.6795C32.5492 24.7704 32.6763 24.843 32.8052 24.9131L33.1463 25.0986L33.4458 25.2522C33.5955 25.3291 33.7436 25.4086 33.8845 25.5016C34.3691 25.8239 34.5304 26.3114 34.4433 26.8525C34.3442 27.4062 33.8554 27.9391 32.9111 27.9391C32.5506 27.9391 32.2027 27.8399 31.8839 27.6003C31.5443 27.3483 31.42 27.0715 31.42 26.5716C31.42 26.5624 31.427 26.553 31.4357 26.549L31.4448 26.5469H32.1364C32.1488 26.5469 32.1613 26.5592 32.1613 26.5716C32.1613 26.6171 32.1695 26.7203 32.1861 26.7741C32.2815 27.0715 32.5547 27.2615 32.907 27.2822C33.23 27.3029 33.5529 27.1253 33.6772 26.869C33.814 26.5881 33.7145 26.2328 33.3998 26.0388L33.3594 26.0142L33.21 25.9287L33.0298 25.8301L32.1597 25.3714L32.1069 25.3419L32.0908 25.3323C31.1838 24.7703 31.3371 22.9899 33.0228 22.9899H33.0227ZM37.1565 23.0849C37.1658 23.0849 37.1752 23.0919 37.1793 23.1006L37.1814 23.1097V24.9687C37.1814 24.9853 37.1973 24.9965 37.2122 24.9918L37.2228 24.9853L39.0494 23.0931C39.052 23.0901 39.0552 23.0878 39.0589 23.0861L39.066 23.0849H39.9482C39.9647 23.0849 39.976 23.1008 39.9714 23.1156L39.9647 23.1262L37.8108 25.3571C37.8081 25.3601 37.8061 25.3638 37.8052 25.3677C37.8042 25.3716 37.8042 25.3758 37.8052 25.3797L37.8108 25.3901L40.2048 27.8564C40.218 27.8663 40.2127 27.8869 40.2016 27.8968L40.1924 27.902H39.3102L39.3019 27.8993L39.2936 27.8936L37.2229 25.7619C37.2129 25.7487 37.1923 25.754 37.1845 25.7672L37.1813 25.7785V27.8771C37.1813 27.8864 37.1744 27.8957 37.1657 27.8997L37.1565 27.9018H36.4646C36.4554 27.9018 36.4461 27.895 36.442 27.8863L36.4398 27.8771V23.1097C36.4398 23.1004 36.4468 23.0911 36.4555 23.087L36.4646 23.0849H37.1565ZM1.97551 23.0807C1.98378 23.0807 1.99036 23.0826 1.99492 23.0875L2.00043 23.0973L2.5678 24.9646C2.56904 24.9688 2.57132 24.9726 2.57443 24.9757C2.57755 24.9788 2.5814 24.981 2.58562 24.9822C2.58983 24.9834 2.59428 24.9835 2.59855 24.9825C2.60281 24.9815 2.60675 24.9794 2.61 24.9765L2.61753 24.9646L3.185 23.0974C3.1879 23.0913 3.19275 23.0863 3.19879 23.0832L3.20982 23.0807H4.25772C4.26705 23.0807 4.27638 23.0877 4.28041 23.0964L4.28253 23.1055V27.8731C4.28253 27.8823 4.27553 27.8917 4.26684 27.8957L4.25772 27.8978H3.56597C3.55675 27.8978 3.54742 27.8909 3.54328 27.8822L3.54116 27.8731V24.25C3.54116 24.2259 3.51243 24.2161 3.49801 24.2303L3.49143 24.2418L2.91993 26.1215L2.87847 26.2536C2.87555 26.2597 2.8707 26.2646 2.86469 26.2677L2.85366 26.2701H2.32351C2.31513 26.2701 2.30866 26.2683 2.3041 26.2635L2.29859 26.2536L2.25724 26.1215L1.68573 24.2418C1.67873 24.2211 1.64883 24.2206 1.63908 24.2376L1.6359 24.25V27.8731C1.6359 27.8823 1.6289 27.8917 1.6202 27.8957L1.61109 27.8978H0.919342C0.910011 27.8978 0.90068 27.8909 0.896651 27.8822L0.894531 27.8731V23.1055C0.894531 23.0962 0.901529 23.087 0.910223 23.0829L0.919342 23.0807H1.97551ZM22.0594 23.0807C22.0677 23.0807 22.0742 23.0826 22.0787 23.0875L22.0842 23.0973L22.6518 24.9646C22.6531 24.9688 22.6553 24.9726 22.6584 24.9756C22.6616 24.9787 22.6654 24.9809 22.6696 24.9821C22.6738 24.9833 22.6782 24.9834 22.6825 24.9824C22.6867 24.9814 22.6907 24.9794 22.6939 24.9765L22.7015 24.9646L23.2687 23.0974C23.2716 23.0913 23.2764 23.0863 23.2825 23.0832L23.2935 23.0807H24.3457C24.355 23.0807 24.3643 23.0877 24.3683 23.0964L24.3705 23.1055V27.8731C24.3705 27.8823 24.3636 27.8917 24.3548 27.8957L24.3457 27.8978H23.6541C23.6448 27.8978 23.6355 27.8909 23.6314 27.8822L23.6293 27.8731V24.25C23.6293 24.2259 23.6005 24.2161 23.5861 24.2303L23.5796 24.2418L23.0079 26.1215L22.9665 26.2536C22.9636 26.2597 22.9587 26.2647 22.9526 26.2677L22.9416 26.2701H22.4114C22.4031 26.2701 22.3966 26.2683 22.392 26.2635L22.3865 26.2536L22.3451 26.1215L21.7738 24.2418C21.7668 24.2211 21.7369 24.2206 21.7271 24.2376L21.7239 24.25V27.8731C21.7239 27.8823 21.717 27.8917 21.7082 27.8957L21.6991 27.8978H21.0073C20.9979 27.8978 20.9886 27.8909 20.9846 27.8822L20.9825 27.8731V23.1055C20.9825 23.0962 20.9894 23.087 20.9982 23.0829L21.0073 23.0807H22.0594ZM14.3721 23.0807C14.3772 23.0805 14.3822 23.0818 14.3864 23.0847C14.3906 23.0875 14.3938 23.0916 14.3954 23.0964L14.3969 23.1055V23.7004C14.3969 23.7097 14.3899 23.719 14.3812 23.7231L14.3721 23.7252H13.1088V27.8731C13.1088 27.8823 13.1018 27.8917 13.093 27.8957L13.0839 27.8978H12.3923C12.383 27.8978 12.3736 27.8909 12.3696 27.8822L12.3675 27.8731V23.7252H11.104C11.0947 23.7252 11.0854 23.7182 11.0813 23.7095L11.0792 23.7004V23.1055C11.0792 23.0961 11.0862 23.0869 11.0949 23.0828L11.104 23.0806H14.3719L14.3721 23.0807ZM17.7808 23.0642C17.7891 23.0642 17.7956 23.066 17.8002 23.0709L17.8057 23.0807L19.1061 27.8646C19.1076 27.8704 19.1071 27.8766 19.1046 27.882C19.1022 27.8875 19.0981 27.892 19.0928 27.8948L19.0813 27.8977H18.4519C18.445 27.897 18.4385 27.894 18.4335 27.8892L18.4271 27.8812L18.0502 26.489C18.0473 26.4829 18.0424 26.4779 18.0364 26.4749L18.0254 26.4724H16.6335C16.6251 26.4724 16.6187 26.4742 16.6141 26.4791L16.6086 26.489L16.2318 27.8812C16.2288 27.8873 16.224 27.8922 16.218 27.8953L16.2068 27.8977H15.5773C15.5714 27.8976 15.5657 27.8955 15.5611 27.8917C15.5565 27.8879 15.5534 27.8826 15.5522 27.8768L15.5524 27.8646L16.853 23.0807C16.8559 23.0746 16.8608 23.0697 16.8668 23.0666L16.8778 23.0642H17.7807H17.7808ZM28.5165 23.0642C28.5247 23.0642 28.5312 23.066 28.5358 23.0709L28.5414 23.0807L29.8418 27.8646C29.8432 27.8704 29.8426 27.8766 29.8402 27.882C29.8378 27.8875 29.8336 27.892 29.8283 27.8948L29.8168 27.8977H29.1875C29.1839 27.8977 29.1803 27.897 29.1769 27.8955C29.1736 27.8941 29.1706 27.8919 29.1681 27.8892L29.1626 27.8812L28.7858 26.489C28.7829 26.4829 28.778 26.4779 28.772 26.4749L28.7609 26.4724H27.3692C27.361 26.4724 27.3545 26.4742 27.3499 26.4791L27.3444 26.489L26.9676 27.8812C26.9647 27.8873 26.9598 27.8922 26.9538 27.8953L26.9427 27.8977H26.3131C26.3071 27.8976 26.3014 27.8955 26.2968 27.8917C26.2922 27.8879 26.2891 27.8826 26.2879 27.8768L26.2881 27.8646L27.5886 23.0807C27.5915 23.0746 27.5964 23.0697 27.6024 23.0666L27.6135 23.0642H28.5164H28.5165ZM9.21147 23.0849C9.2207 23.0849 9.23003 23.0919 9.23406 23.1006L9.23618 23.1097V23.7045C9.23618 23.7138 9.22928 23.7232 9.22048 23.7272L9.21136 23.7293H7.11556C7.10623 23.7293 7.0969 23.7363 7.09287 23.745L7.09075 23.7541V25.0183C7.09075 25.0276 7.09775 25.0369 7.10644 25.0409L7.11556 25.043H8.95869C8.96802 25.043 8.97736 25.05 8.98149 25.0587L8.98361 25.0679V25.6627C8.98361 25.672 8.97661 25.6814 8.96781 25.6854L8.95869 25.6875H7.11556C7.10623 25.6875 7.0969 25.6945 7.09287 25.7032L7.09075 25.7123V27.1913C7.09075 27.2024 7.09446 27.2097 7.10061 27.2147L7.11143 27.2203H9.29831C9.30764 27.2203 9.31697 27.2272 9.32111 27.236L9.32323 27.245V27.873C9.32323 27.8822 9.31623 27.8916 9.30753 27.8956L9.29831 27.8977H6.3742C6.36487 27.8977 6.35553 27.8908 6.3515 27.882L6.34939 27.873V23.1097C6.34939 23.1004 6.35638 23.0911 6.36508 23.087L6.3742 23.0849H9.21136H9.21147ZM17.3543 23.9276C17.3531 23.9234 17.3508 23.9196 17.3477 23.9165C17.3446 23.9134 17.3407 23.9112 17.3365 23.91C17.3323 23.9088 17.3278 23.9087 17.3236 23.9097C17.3193 23.9107 17.3154 23.9128 17.3121 23.9157L17.3046 23.9276L16.7992 25.7908C16.7961 25.8032 16.8024 25.8156 16.8126 25.821L16.824 25.8239H17.8347C17.8407 25.8237 17.8464 25.8216 17.8509 25.8178C17.8555 25.814 17.8586 25.8088 17.8598 25.803L17.8595 25.7908L17.3543 23.9276ZM28.0899 23.9276C28.0887 23.9234 28.0864 23.9196 28.0833 23.9165C28.0802 23.9134 28.0763 23.9112 28.0721 23.91C28.0679 23.9088 28.0634 23.9087 28.0592 23.9097C28.0549 23.9107 28.051 23.9128 28.0477 23.9157L28.0402 23.9276L27.5348 25.7908C27.5317 25.8032 27.538 25.8156 27.5482 25.821L27.5597 25.8239H28.5703C28.5763 25.8238 28.582 25.8216 28.5866 25.8178C28.5912 25.814 28.5943 25.8088 28.5955 25.803L28.5953 25.7908L28.0899 23.9276Z" fill="#161616"/>
<defs>
<clipPath id="clip0_41_171">
<rect width="19.8511" height="18.6104" fill="white" transform="translate(10.6281 0.25)"/>
</clipPath>
</defs>
</svg>
