<svg width="28" height="28" viewBox="0 0 28 28" fill="none" xmlns="http://www.w3.org/2000/svg">
<g clip-path="url(#clip0_452_652)">
<path d="M19.556 23.5973C19.4495 23.5543 19.3339 23.5293 19.2115 23.5293C19.0891 23.5293 18.9735 23.5543 18.867 23.5973C18.7605 23.6427 18.663 23.7061 18.5837 23.7877L18.5769 23.7923C18.5315 23.8376 18.4885 23.8897 18.4545 23.9464C18.4363 23.9759 18.4182 24.0076 18.4023 24.0416H16.9721V22.7995C16.7523 22.9015 16.5233 22.9786 16.2899 23.0262C16.2491 23.0352 16.2106 23.042 16.1698 23.0488V24.4405C16.1698 24.5516 16.2151 24.6513 16.2876 24.7238C16.3602 24.7964 16.4599 24.8417 16.5709 24.8417H18.4159C18.4295 24.8689 18.4454 24.8961 18.4635 24.9233C18.4953 24.9709 18.5315 25.0162 18.5723 25.057L18.5791 25.0638C18.6607 25.1454 18.7605 25.2134 18.8715 25.2587C18.9781 25.3018 19.0936 25.3267 19.216 25.3267C19.3339 25.3267 19.4495 25.3041 19.5538 25.261L19.5606 25.2587C19.6716 25.2134 19.7691 25.1454 19.8529 25.0638C19.9345 24.9822 20.0025 24.8825 20.0479 24.7714C20.0909 24.6649 20.1159 24.5493 20.1159 24.4269C20.1159 24.3068 20.0909 24.1912 20.0479 24.0824C20.0025 23.9713 19.9345 23.8716 19.8529 23.79C19.7668 23.7107 19.6671 23.6427 19.556 23.5973ZM13.017 15.0977H11.3397L11.0994 15.8864H9.58989L11.3918 11.0994H13.0102L14.8053 15.8864H13.2572L13.017 15.0977ZM12.7042 14.0596L12.1806 12.3392L11.6547 14.0596H12.7042ZM15.2223 11.0972H16.7069V15.8842H15.2223V11.0972ZM14.0913 6.19002C13.8465 6.36681 13.6199 6.60481 13.4227 6.91306C13.4136 6.92893 13.4 6.94253 13.3841 6.95159C13.3229 6.99012 13.2413 6.97199 13.2028 6.91306C13.0056 6.60481 12.779 6.36681 12.5342 6.19002C12.2712 5.99963 11.9879 5.8795 11.6955 5.82057H11.691C11.4054 5.76164 11.113 5.76164 10.832 5.8115C10.5351 5.86363 10.2472 5.97243 9.9888 6.12202C9.73268 6.27162 9.50149 6.46428 9.30883 6.6864C9.12297 6.90173 8.97338 7.14878 8.87592 7.41397C8.86005 7.45477 8.84645 7.49784 8.83285 7.54317C8.82152 7.58397 8.80792 7.6293 8.79885 7.67463C8.78752 7.73356 8.73765 7.77663 8.67419 7.77889C8.37047 7.82422 8.06901 7.93529 7.78796 8.10075C7.50237 8.27074 7.23718 8.50193 7.00826 8.77845C6.7816 9.05498 6.59121 9.38136 6.45521 9.74401C6.32828 10.084 6.25122 10.458 6.23535 10.8546C6.23309 10.9068 6.23309 10.9566 6.23309 11.0088C6.23309 11.0564 6.23535 11.1062 6.23535 11.1584C6.23762 11.2014 6.21949 11.2468 6.18096 11.274C5.9951 11.4077 5.82737 11.5459 5.67778 11.6887C5.52591 11.8361 5.39219 11.9879 5.27659 12.1443C5.08847 12.4004 4.9502 12.6679 4.85727 12.9376C4.75981 13.2187 4.71221 13.5065 4.70768 13.7899C4.70541 14.0618 4.74168 14.3316 4.81874 14.5922C4.89581 14.8574 5.01367 15.1158 5.16553 15.3561C5.25166 15.4943 5.34912 15.6303 5.45565 15.7572C5.56445 15.8864 5.68231 16.0088 5.80924 16.1244C5.84097 16.1539 5.8591 16.2015 5.85004 16.2468C5.81377 16.4191 5.79564 16.5891 5.78884 16.7568C5.7843 16.9291 5.79337 17.0991 5.81604 17.2645C5.8591 17.5682 5.9475 17.8584 6.07216 18.1258C6.20362 18.4114 6.37588 18.6721 6.57534 18.901C6.768 19.1254 6.98786 19.3203 7.22358 19.4812C7.46157 19.6444 7.71316 19.7714 7.97155 19.8597C8.08715 19.8983 8.20501 19.93 8.32514 19.9527C8.43847 19.9753 8.5518 19.9889 8.66286 19.9935C8.72406 19.9912 8.78072 20.0343 8.79432 20.0977C8.85325 20.3675 8.96205 20.6213 9.11164 20.8502C9.26803 21.0905 9.46523 21.3036 9.69188 21.4804C9.97747 21.7025 10.3129 21.8702 10.6665 21.9586C10.9997 22.0425 11.351 22.0583 11.6955 21.9858C12.0038 21.9223 12.303 21.7909 12.5795 21.5823C12.8334 21.3897 13.0691 21.1313 13.2663 20.7958C13.2776 20.7754 13.2957 20.7596 13.3184 20.7482C13.3819 20.7142 13.4612 20.7392 13.4952 20.8026C13.6584 21.1064 13.8579 21.3489 14.08 21.5325C14.3202 21.7297 14.5854 21.8634 14.8642 21.9405C15.2201 22.0379 15.5918 22.0379 15.9522 21.9631C16.3375 21.8838 16.7092 21.7161 17.0288 21.4849C17.2804 21.3058 17.5025 21.086 17.6793 20.8366C17.847 20.6032 17.9717 20.3425 18.0442 20.0683C18.0533 20.0161 18.0941 19.9708 18.1507 19.9617C18.4839 19.9028 18.8126 19.7646 19.114 19.5583C19.4155 19.352 19.6898 19.08 19.9141 18.7559C20.1204 18.4567 20.2859 18.1122 20.3924 17.736C20.4921 17.3846 20.5397 17.0039 20.5239 16.6027C20.5193 16.5573 20.5397 16.512 20.5805 16.4848C20.7754 16.3511 20.9477 16.2106 21.1018 16.0678C21.2582 15.9182 21.3965 15.764 21.5143 15.6031C21.6957 15.3583 21.8294 15.1045 21.9223 14.8438C22.0175 14.5741 22.0674 14.2998 22.0765 14.0256C22.0833 13.7604 22.0515 13.4975 21.9835 13.2391C21.9155 12.9784 21.809 12.7268 21.6707 12.4888L21.6662 12.4843C21.5755 12.3279 21.469 12.1783 21.3512 12.0333C21.2333 11.8882 21.0996 11.7522 20.9568 11.623C20.9228 11.5935 20.9046 11.5459 20.9137 11.4983C20.9454 11.342 20.9658 11.1856 20.9726 11.0314C20.9794 10.875 20.9749 10.7209 20.959 10.569C20.925 10.254 20.8412 9.95481 20.7188 9.67602C20.5896 9.38136 20.4173 9.10937 20.2156 8.87138C20.0207 8.64019 19.7963 8.43847 19.556 8.27074C19.3158 8.10301 19.0596 7.97155 18.799 7.88315L18.7922 7.88089C18.6539 7.83329 18.5134 7.79929 18.3751 7.77663H18.3706C18.2346 7.75396 18.0986 7.74489 17.9649 7.74716C17.9037 7.75169 17.8448 7.7109 17.8289 7.64743C17.8062 7.5545 17.7768 7.46384 17.7428 7.37544C17.7065 7.28478 17.6657 7.19638 17.6181 7.10799C17.4957 6.88133 17.3348 6.6728 17.1467 6.49374C16.954 6.31015 16.7341 6.15376 16.4984 6.03363C16.2559 5.91123 15.9907 5.8251 15.7187 5.78657C15.4603 5.75031 15.1951 5.75484 14.9345 5.80924C14.6421 5.8795 14.3542 5.99963 14.0913 6.19002ZM17.7972 8.74219C17.813 8.69232 17.8584 8.65379 17.915 8.64926C18.0102 8.64246 18.1077 8.64699 18.2051 8.66286C18.3049 8.67872 18.4046 8.70366 18.5043 8.73765C18.6925 8.80112 18.8806 8.89858 19.0551 9.02098C19.2274 9.1411 19.3906 9.28843 19.5311 9.45616L19.5334 9.46069C19.6807 9.63522 19.8054 9.83014 19.8983 10.0432C19.9867 10.2427 20.0456 10.4557 20.0705 10.6801C20.0864 10.8297 20.0864 10.9861 20.0683 11.1448C20.0524 11.2921 20.0184 11.4439 19.9663 11.5958L19.964 11.6049C19.9323 11.7001 19.9345 11.7998 19.964 11.8882C19.9957 11.9789 20.0547 12.0605 20.1385 12.1149L20.1453 12.1194C20.304 12.2372 20.4445 12.3664 20.5669 12.5024C20.6938 12.6407 20.8026 12.7903 20.8933 12.9444C20.993 13.1144 21.0701 13.2912 21.1177 13.4725C21.1676 13.6516 21.1902 13.8329 21.1834 14.012C21.1789 14.1978 21.1426 14.3837 21.0769 14.5673C21.0134 14.7418 20.9205 14.9141 20.7981 15.0818L20.7958 15.0841C20.6848 15.2359 20.5443 15.3855 20.3788 15.5283C20.2201 15.6643 20.0365 15.7935 19.8258 15.9182L19.819 15.9227C19.7351 15.9703 19.6739 16.0428 19.6376 16.1267C19.6014 16.2106 19.59 16.3035 19.6082 16.3942L19.6104 16.4123C19.6535 16.7591 19.6331 17.09 19.5628 17.3914C19.4858 17.7201 19.352 18.0148 19.1775 18.2663C19.0438 18.459 18.8897 18.6245 18.7242 18.7559C18.5542 18.8919 18.3706 18.9916 18.1825 19.0528H18.1802C18.1122 19.0732 18.0374 19.0347 18.017 18.9667C17.7609 18.1304 17.3189 17.8606 16.5709 17.4753L16.5551 17.4662C16.4508 17.4164 16.3375 17.4118 16.2355 17.4436C16.1335 17.4753 16.0451 17.5456 15.993 17.6476L15.9862 17.6612C15.9363 17.7654 15.9318 17.8788 15.9635 17.9808C15.9975 18.0828 16.07 18.1734 16.1743 18.2278C16.7999 18.5474 17.2623 18.7899 17.2555 19.5742C17.2532 19.8076 17.1807 20.0343 17.0583 20.2383C16.9291 20.4536 16.7432 20.6462 16.5279 20.8026C16.308 20.9613 16.061 21.0769 15.8071 21.1336C15.5646 21.1902 15.3153 21.1925 15.0818 21.129C14.6874 21.0202 14.4313 20.7573 14.259 20.4377C14.0958 20.134 14.0052 19.7804 13.9394 19.4586C13.9349 19.4472 13.9349 19.4336 13.9349 19.4223C13.9349 19.2591 13.808 19.1526 13.6425 19.105C13.57 19.0823 13.4907 19.0732 13.4136 19.0732C13.3343 19.0732 13.2572 19.0846 13.1847 19.105C13.0215 19.1548 12.8946 19.2614 12.8946 19.4223C12.8946 19.4336 12.8923 19.4427 12.89 19.454C12.7631 19.9572 12.5795 20.3357 12.3642 20.6077C12.1126 20.9273 11.8179 21.1018 11.5142 21.1653C11.2921 21.2106 11.0632 21.1993 10.8456 21.1426C10.6166 21.0814 10.3991 20.9704 10.2087 20.8253C10.0205 20.678 9.86414 20.4989 9.75535 20.2972C9.65108 20.1045 9.58989 19.8915 9.58989 19.6739C9.58989 18.8489 10.0885 18.5723 10.7481 18.2346C10.8524 18.1802 10.9249 18.0896 10.9589 17.9876C10.9929 17.8833 10.9861 17.7677 10.934 17.6612C10.8796 17.5569 10.7889 17.4844 10.6869 17.4504C10.5849 17.4186 10.4716 17.4232 10.3673 17.473L10.3605 17.4753C9.58309 17.872 9.11844 18.1621 8.83965 19.0256C8.82378 19.0823 8.76939 19.1254 8.70819 19.1231C8.63112 19.1208 8.55406 19.1118 8.47473 19.0959C8.39767 19.08 8.3206 19.0596 8.24807 19.0324C8.06448 18.969 7.88089 18.8761 7.70863 18.7582C7.53863 18.6403 7.37997 18.4998 7.23945 18.3366C7.09439 18.1689 6.96972 17.9808 6.87453 17.7745C6.78386 17.5818 6.7204 17.3756 6.68867 17.1603V17.1557C6.666 16.9971 6.66147 16.8316 6.6796 16.6616C6.69547 16.5029 6.72947 16.3375 6.78613 16.1743L6.7884 16.1675C6.82013 16.0746 6.81786 15.9771 6.79066 15.891L6.7884 15.8864C6.75893 15.7958 6.7 15.7164 6.61841 15.6598L6.61387 15.6552C6.46881 15.5465 6.33735 15.4309 6.22175 15.3039C6.10389 15.177 5.99963 15.041 5.9135 14.9005C5.80924 14.7305 5.72764 14.5492 5.67324 14.3633C5.62111 14.182 5.59391 13.9961 5.59618 13.8057C5.59845 13.6131 5.63244 13.4159 5.70044 13.2232C5.76617 13.0396 5.86137 12.856 5.99283 12.677C6.10389 12.5251 6.23989 12.3755 6.40308 12.2327C6.55947 12.0945 6.73627 11.963 6.94026 11.8383C7.01506 11.793 7.06945 11.7295 7.10572 11.657L7.10799 11.6502C7.14425 11.5754 7.15785 11.4915 7.14652 11.4077C7.14425 11.3986 7.14425 11.3895 7.14425 11.3805V11.3759C7.13292 11.2966 7.12612 11.2173 7.12158 11.1402C7.11705 11.0564 7.11705 10.9725 7.11932 10.8909C7.13065 10.594 7.18732 10.3152 7.28025 10.0636C7.37997 9.79388 7.5205 9.55136 7.68823 9.3451C7.82649 9.1751 7.98515 9.03231 8.15061 8.92125C8.31607 8.81019 8.4906 8.73085 8.66966 8.68552C8.73765 8.66512 8.81245 8.70366 8.83285 8.77165C8.97338 9.2159 9.15017 9.49469 9.48789 9.80974L9.50149 9.82108C9.58535 9.89814 9.69415 9.93441 9.80068 9.92987C9.90721 9.92534 10.0115 9.88228 10.0885 9.79841L10.0953 9.78935C10.1724 9.70548 10.2087 9.59669 10.2041 9.49016C10.1996 9.38363 10.1543 9.2771 10.0681 9.1955C9.79615 8.94391 9.73495 8.78752 9.65335 8.53366C9.55816 8.24127 9.57402 7.95569 9.66695 7.70183C9.73042 7.5273 9.83014 7.36411 9.95707 7.22131C10.0817 7.07852 10.2336 6.95159 10.4013 6.85413L10.4081 6.8496C10.5804 6.74987 10.7662 6.67734 10.9589 6.64107C11.1425 6.60707 11.3306 6.60481 11.5142 6.64334C11.7726 6.69773 12.0265 6.83373 12.2508 7.06945C12.448 7.27571 12.6226 7.5613 12.7608 7.93755L12.7631 7.94209C12.8107 8.08941 12.9648 8.17554 13.1461 8.20954C13.2277 8.22541 13.3139 8.22994 13.3977 8.22541H13.4C13.4861 8.22087 13.5677 8.20501 13.6448 8.18008C13.7808 8.13474 13.8873 8.06221 13.9123 7.96929V7.91715C13.9123 7.65423 14.0686 7.37544 14.284 7.14652C14.5197 6.89719 14.8347 6.7 15.0999 6.6456C15.2677 6.61161 15.4377 6.60934 15.6031 6.63427C15.7754 6.66147 15.9431 6.71587 16.1018 6.7952L16.1154 6.79973C16.2763 6.88133 16.4236 6.98559 16.5528 7.10799C16.6797 7.23038 16.7885 7.36864 16.8701 7.5205C16.9993 7.75849 17.0583 8.03048 17.0175 8.31834C16.9812 8.56993 16.9721 8.72859 16.7613 8.98018L16.7591 8.98244C16.6843 9.07084 16.6525 9.1819 16.6616 9.2907C16.6707 9.39496 16.7183 9.49696 16.8021 9.56949L16.8157 9.58082C16.9041 9.65335 17.0129 9.68282 17.1195 9.67375C17.2237 9.66468 17.3257 9.61709 17.3982 9.53322L17.4096 9.51736C17.6272 9.25897 17.6974 9.06857 17.7972 8.74219ZM26.0838 13.051H23.076C22.999 12.7971 22.8902 12.55 22.7542 12.3143L22.7496 12.3075C22.7383 12.2871 22.727 12.269 22.7156 12.2486H25.6849V9.63069C25.6622 9.61709 25.6395 9.60349 25.6169 9.58762C25.5715 9.55589 25.5307 9.52189 25.4922 9.48336C25.4106 9.40176 25.3426 9.30203 25.2973 9.19097C25.2542 9.08444 25.2293 8.96885 25.2293 8.84645C25.2293 8.72632 25.2542 8.60846 25.2973 8.50193C25.3426 8.39087 25.4106 8.29341 25.4922 8.20954C25.5738 8.12795 25.6735 8.05995 25.7846 8.01462C25.8911 7.97155 26.0067 7.94662 26.1291 7.94662C26.2492 7.94662 26.3648 7.97155 26.4736 8.01462C26.5847 8.05995 26.6844 8.12795 26.766 8.20954C26.8476 8.29114 26.9156 8.39087 26.9609 8.50193C27.004 8.60846 27.0289 8.72405 27.0289 8.84645C27.0289 8.96431 27.0063 9.07764 26.9632 9.18417L26.9609 9.19097C26.9156 9.30203 26.8476 9.3995 26.766 9.48336C26.7161 9.53322 26.6572 9.57855 26.596 9.61709C26.562 9.63749 26.5235 9.65788 26.4872 9.67375V12.6475C26.4872 12.7586 26.4419 12.8583 26.3694 12.9308C26.2946 13.0056 26.1948 13.051 26.0838 13.051ZM22.94 11.1153H21.9155C21.9427 10.9657 21.9586 10.8161 21.9654 10.6665C21.9699 10.5464 21.9699 10.4285 21.9631 10.3129H22.5388V9.12977C22.5071 9.11391 22.4776 9.09804 22.4482 9.07764C22.3938 9.04364 22.3439 9.00284 22.2963 8.95525C22.2147 8.87365 22.1467 8.77392 22.1014 8.66286C22.0583 8.55633 22.0334 8.44073 22.0334 8.3206C22.0334 8.20048 22.0583 8.08488 22.1014 7.97608C22.1467 7.86955 22.2102 7.77209 22.2895 7.6905L22.2963 7.6837C22.3779 7.6021 22.4776 7.5341 22.5887 7.48877C22.6952 7.44571 22.8108 7.42077 22.9332 7.42077C23.0556 7.42077 23.1712 7.44571 23.2777 7.48877C23.3843 7.5341 23.4817 7.59757 23.5633 7.67916L23.5701 7.6837C23.6517 7.76529 23.7175 7.86049 23.7628 7.96929L23.7651 7.97608C23.8081 8.08261 23.8331 8.19821 23.8331 8.3206C23.8331 8.44073 23.8081 8.55859 23.7651 8.66512C23.7197 8.77165 23.6563 8.86912 23.5769 8.95071L23.5701 8.95751C23.5271 9.00058 23.4795 9.03911 23.4251 9.07537C23.3979 9.09351 23.3707 9.10937 23.3412 9.12297V10.7141C23.3412 10.8252 23.2959 10.9249 23.2233 10.9974C23.1508 11.07 23.0488 11.1153 22.94 11.1153ZM9.09577 4.25436C9.2023 4.29743 9.3179 4.32236 9.44029 4.32236C9.56269 4.32236 9.67828 4.29743 9.78481 4.25436C9.89134 4.20903 9.9888 4.14557 10.0681 4.06397L10.0749 4.05944C10.1203 4.01411 10.1633 3.96198 10.1973 3.90531C10.2155 3.87585 10.2336 3.84411 10.2495 3.81012H11.6797V5.0454C11.9313 4.91167 12.2033 4.81421 12.482 4.75754V3.40893C12.482 3.29787 12.4367 3.19814 12.3642 3.12561C12.2916 3.05308 12.1919 3.00775 12.0809 3.00775H10.2359C10.2223 2.98055 10.2064 2.95335 10.1883 2.92615C10.1565 2.87855 10.1203 2.83322 10.0795 2.79242L10.0727 2.78562C9.99107 2.70403 9.89134 2.63603 9.78028 2.5907C9.67375 2.54763 9.55816 2.5227 9.43576 2.5227C9.3179 2.5227 9.2023 2.54537 9.09804 2.58843L9.09124 2.5907C8.98018 2.63603 8.88272 2.70403 8.79885 2.78562C8.71726 2.86722 8.64926 2.96695 8.60393 3.07801C8.56086 3.18454 8.53593 3.30014 8.53593 3.42253C8.53593 3.54266 8.56086 3.65826 8.60393 3.76705C8.64926 3.87811 8.71726 3.97784 8.79885 4.05944C8.88725 4.14104 8.98471 4.20903 9.09577 4.25436ZM13.1597 0.945163V5.47378C13.2685 5.36272 13.3841 5.26526 13.502 5.17913C13.6493 5.0726 13.8035 4.9842 13.9621 4.91621V1.34408H16.58C16.5936 1.36675 16.6072 1.38941 16.6231 1.41208C16.6548 1.45741 16.6888 1.49821 16.7273 1.53674C16.8089 1.61834 16.9087 1.68633 17.0197 1.73166C17.1263 1.77473 17.2419 1.79966 17.3642 1.79966C17.4844 1.79966 17.6022 1.77473 17.7088 1.73166C17.8198 1.68633 17.9196 1.61834 18.0012 1.53674C18.0828 1.45514 18.1507 1.35541 18.1961 1.24435C18.2391 1.13782 18.2641 1.02223 18.2641 0.899831C18.2641 0.779702 18.2391 0.664107 18.1961 0.555311C18.1507 0.444249 18.0828 0.34452 18.0012 0.262923C17.915 0.181326 17.8153 0.113329 17.7042 0.0679973C17.5977 0.0249324 17.4821 0 17.362 0C17.2441 0 17.1308 0.0226658 17.0243 0.0657307L17.0175 0.0679973C16.9064 0.113329 16.8089 0.181326 16.7251 0.262923C16.6752 0.312788 16.6299 0.371719 16.5913 0.432916C16.5709 0.466915 16.5505 0.505447 16.5347 0.541712H13.5609C13.4499 0.541712 13.3501 0.587043 13.2776 0.659574C13.2051 0.734371 13.1597 0.8341 13.1597 0.945163ZM1.70673 12.5682H3.83732C3.80105 12.6498 3.76932 12.7336 3.73985 12.8152C3.67639 12.9988 3.63106 13.1824 3.60386 13.3683H1.70673C1.69087 13.3977 1.675 13.4272 1.65687 13.4567C1.62287 13.5111 1.58207 13.5609 1.53901 13.604C1.45514 13.6879 1.35768 13.7536 1.24662 13.7989C1.14009 13.842 1.02449 13.8669 0.902098 13.8669C0.784236 13.8669 0.670907 13.8443 0.564378 13.8012L0.557578 13.7989C0.446516 13.7536 0.349053 13.6856 0.265189 13.604C0.183593 13.5224 0.115595 13.4227 0.0702639 13.3116C0.0271989 13.2051 0.00226658 13.0895 0.00226658 12.9671C0.00226658 12.847 0.0271989 12.7314 0.0702639 12.6226C0.115595 12.5115 0.183593 12.4118 0.265189 12.3302C0.346786 12.2486 0.446516 12.1806 0.557578 12.1353C0.664107 12.0922 0.779702 12.0673 0.902098 12.0673C1.01996 12.0673 1.13329 12.0899 1.23982 12.133L1.24662 12.1353C1.35768 12.1806 1.45514 12.2486 1.53901 12.3302C1.58207 12.3732 1.6206 12.4208 1.6546 12.473L1.65913 12.4798C1.675 12.5092 1.69087 12.5387 1.70673 12.5682ZM0.945163 14.7622H3.71719C3.80332 15.0365 3.92798 15.3017 4.08664 15.5533V15.5555L4.09117 15.5646H1.34408V18.1825C1.36675 18.1961 1.38941 18.2097 1.41208 18.2255C1.45741 18.2573 1.49821 18.2913 1.53674 18.3298C1.61834 18.4114 1.68633 18.5111 1.73166 18.6222C1.77473 18.7287 1.79966 18.8443 1.79966 18.9667C1.79966 19.0868 1.77473 19.2047 1.73166 19.3112C1.68633 19.4223 1.61834 19.5198 1.53674 19.6036C1.45514 19.6852 1.35541 19.7532 1.24435 19.7985C1.13782 19.8416 1.02223 19.8665 0.899831 19.8665C0.779702 19.8665 0.664107 19.8416 0.555311 19.7985C0.444249 19.7532 0.34452 19.6852 0.262923 19.6036C0.181326 19.5152 0.113329 19.4155 0.0679973 19.3067C0.0249324 19.2002 0 19.0846 0 18.9622C0 18.8443 0.0226658 18.731 0.0657307 18.6245L0.0679973 18.6177C0.113329 18.5066 0.181326 18.4091 0.262923 18.3253C0.312788 18.2754 0.371719 18.2301 0.432916 18.1915C0.466915 18.1711 0.505447 18.1507 0.541712 18.1349V15.1611C0.541712 15.0501 0.587043 14.9503 0.659574 14.8778C0.734371 14.8075 0.8341 14.7622 0.945163 14.7622ZM14.9662 26.145V22.974C14.6829 22.8856 14.4154 22.7428 14.1706 22.5411L14.1661 22.5366V26.1472C14.1366 26.1631 14.1072 26.179 14.0777 26.1971C14.0233 26.2311 13.9734 26.2719 13.9304 26.315C13.8488 26.3988 13.7808 26.4963 13.7355 26.6073C13.6924 26.7139 13.6675 26.8295 13.6675 26.9519C13.6675 27.0697 13.6901 27.1831 13.7332 27.2896L13.7355 27.2964C13.7808 27.4074 13.8488 27.5049 13.9304 27.5888C14.012 27.6704 14.1117 27.7384 14.2228 27.7837C14.3293 27.8268 14.4449 27.8517 14.5673 27.8517C14.6874 27.8517 14.803 27.8268 14.9118 27.7837C15.0229 27.7384 15.1226 27.6704 15.2042 27.5888C15.2858 27.5072 15.3538 27.4074 15.3991 27.2964C15.4422 27.1899 15.4671 27.0743 15.4671 26.9519C15.4671 26.834 15.4445 26.7207 15.4014 26.6141L15.3991 26.6073C15.3538 26.4963 15.2858 26.3988 15.2042 26.315C15.1611 26.2719 15.1135 26.2334 15.0614 26.1994L15.0546 26.1948C15.0251 26.1767 14.9957 26.1608 14.9662 26.145ZM12.7722 26.9065V22.3371C12.677 22.4346 12.5772 22.5207 12.473 22.6C12.312 22.7224 12.1443 22.8199 11.9698 22.897V26.5099H9.3519C9.3383 26.4872 9.3247 26.4646 9.30883 26.4419C9.2771 26.3966 9.2431 26.3558 9.20457 26.3172C9.12297 26.2356 9.02324 26.1676 8.91218 26.1223C8.80565 26.0792 8.69006 26.0543 8.56766 26.0543C8.44753 26.0543 8.32967 26.0792 8.22314 26.1223C8.11208 26.1676 8.01462 26.2356 7.93075 26.3172C7.84916 26.3988 7.78116 26.4986 7.73583 26.6096C7.69276 26.7161 7.66783 26.8317 7.66783 26.9541C7.66783 27.0743 7.69276 27.1899 7.73583 27.2987C7.78116 27.4097 7.84916 27.5094 7.93075 27.591C8.01235 27.6726 8.11208 27.7406 8.22314 27.786C8.32967 27.829 8.44527 27.854 8.56766 27.854C8.68552 27.854 8.79885 27.8313 8.90538 27.7882L8.91218 27.786C9.02324 27.7406 9.12071 27.6726 9.20457 27.591C9.25443 27.5412 9.29977 27.4822 9.3383 27.421C9.3587 27.3871 9.3791 27.3485 9.39496 27.3123H12.3687C12.4798 27.3123 12.5795 27.2669 12.652 27.1944C12.7268 27.1173 12.7722 27.0176 12.7722 26.9065Z" fill="#BBBBBB"/>
</g>
<defs>
<clipPath id="clip0_452_652">
<rect width="27.0289" height="27.8517" fill="white"/>
</clipPath>
</defs>
</svg>
