<svg width="28" height="29" viewBox="0 0 28 29" fill="none" xmlns="http://www.w3.org/2000/svg">
<path d="M19.7521 23.873C19.6455 23.8299 19.5299 23.805 19.4076 23.805C19.2852 23.805 19.1696 23.8299 19.063 23.873C18.9565 23.9183 18.859 23.9818 18.7797 24.0634L18.7729 24.0679C18.7276 24.1132 18.6845 24.1654 18.6505 24.222C18.6324 24.2515 18.6143 24.2832 18.5984 24.3172H17.1682V23.0751C16.9483 23.1771 16.7194 23.2542 16.4859 23.3018C16.4451 23.3109 16.4066 23.3177 16.3658 23.3245V24.7161C16.3658 24.8272 16.4111 24.9269 16.4837 24.9995C16.5562 25.072 16.6559 25.1173 16.767 25.1173H18.612C18.6256 25.1445 18.6414 25.1717 18.6596 25.1989C18.6913 25.2465 18.7276 25.2918 18.7684 25.3326L18.7752 25.3394C18.8568 25.421 18.9565 25.489 19.0676 25.5344C19.1741 25.5774 19.2897 25.6024 19.4121 25.6024C19.5299 25.6024 19.6455 25.5797 19.7498 25.5366L19.7566 25.5344C19.8677 25.489 19.9651 25.421 20.049 25.3394C20.1306 25.2578 20.1986 25.1581 20.2439 25.0471C20.287 24.9405 20.3119 24.8249 20.3119 24.7025C20.3119 24.5824 20.287 24.4668 20.2439 24.358C20.1986 24.247 20.1306 24.1472 20.049 24.0656C19.9629 23.9863 19.8631 23.9183 19.7521 23.873ZM13.213 15.3733H11.5357L11.2955 16.1621H9.7859L11.5879 11.3751H13.2062L15.0013 16.1621H13.4533L13.213 15.3733ZM12.9002 14.3352L12.3766 12.6149L11.8508 14.3352H12.9002ZM15.4184 11.3728H16.903V16.1598H15.4184V11.3728ZM14.2874 6.46566C14.0426 6.64245 13.8159 6.88044 13.6187 7.18869C13.6096 7.20456 13.596 7.21816 13.5802 7.22723C13.519 7.26576 13.4374 7.24763 13.3989 7.18869C13.2017 6.88044 12.975 6.64245 12.7302 6.46566C12.4673 6.27526 12.184 6.15514 11.8916 6.0962H11.887C11.6015 6.03727 11.3091 6.03727 11.028 6.08714C10.7311 6.13927 10.4432 6.24807 10.1848 6.39766C9.9287 6.54725 9.6975 6.73991 9.5049 6.96204C9.31902 7.17736 9.16942 7.42442 9.07196 7.68961C9.05609 7.73041 9.0425 7.77347 9.0289 7.8188C9.01756 7.8596 9.00396 7.90493 8.9949 7.95026C8.98356 8.0092 8.9337 8.05226 8.87024 8.05453C8.56651 8.09986 8.26506 8.21092 7.984 8.37638C7.69842 8.54637 7.43323 8.77757 7.2043 9.05409C6.97764 9.33061 6.78725 9.657 6.65126 10.0196C6.52433 10.3596 6.44726 10.7336 6.4314 11.1303C6.42913 11.1824 6.42913 11.2323 6.42913 11.2844C6.42913 11.332 6.4314 11.3819 6.4314 11.434C6.43366 11.4771 6.41553 11.5224 6.377 11.5496C6.19114 11.6833 6.02341 11.8216 5.87382 11.9644C5.72196 12.1117 5.58823 12.2636 5.47264 12.42C5.28451 12.6761 5.14625 12.9435 5.05332 13.2133C4.95586 13.4943 4.90826 13.7822 4.90373 14.0655C4.90146 14.3375 4.93772 14.6072 5.01479 14.8679C5.09185 15.133 5.20971 15.3914 5.36157 15.6317C5.4477 15.77 5.54517 15.9059 5.6517 16.0329C5.76049 16.1621 5.87835 16.2845 6.00528 16.4001C6.03701 16.4295 6.05515 16.4771 6.04608 16.5225C6.00981 16.6947 5.99168 16.8647 5.98488 17.0324C5.98035 17.2047 5.98942 17.3747 6.01208 17.5402C6.05515 17.8439 6.14354 18.134 6.26821 18.4015C6.39967 18.687 6.57193 18.9477 6.77138 19.1766C6.96404 19.401 7.1839 19.5959 7.41963 19.7569C7.65762 19.9201 7.90921 20.047 8.1676 20.1354C8.28319 20.1739 8.40105 20.2056 8.52118 20.2283C8.63451 20.251 8.74784 20.2646 8.8589 20.2691C8.9201 20.2668 8.97676 20.3099 8.99036 20.3734C9.04929 20.6431 9.15809 20.897 9.30768 21.1259C9.46408 21.3661 9.6613 21.5792 9.8879 21.756C10.1735 21.9781 10.509 22.1458 10.8626 22.2342C11.1957 22.3181 11.5471 22.334 11.8916 22.2614C12.1998 22.198 12.499 22.0665 12.7755 21.858C13.0294 21.6653 13.2651 21.4069 13.4623 21.0715C13.4737 21.0511 13.4918 21.0352 13.5145 21.0239C13.5779 20.9899 13.6572 21.0148 13.6912 21.0783C13.8544 21.382 14.0539 21.6245 14.276 21.8081C14.5163 22.0053 14.7815 22.139 15.0603 22.2161C15.4161 22.3136 15.7878 22.3136 16.1482 22.2388C16.5335 22.1594 16.9053 21.9917 17.2248 21.7605C17.4764 21.5815 17.6986 21.3616 17.8753 21.1123C18.0431 20.8788 18.1677 20.6182 18.2403 20.3439C18.2493 20.2918 18.2901 20.2464 18.3468 20.2374C18.68 20.1784 19.0086 20.0402 19.3101 19.8339C19.6115 19.6277 19.8858 19.3557 20.1102 19.0316C20.3164 18.7324 20.4819 18.3879 20.5884 18.0116C20.6882 17.6603 20.7358 17.2795 20.7199 16.8783C20.7154 16.833 20.7358 16.7876 20.7766 16.7605C20.9715 16.6267 21.1437 16.4862 21.2979 16.3434C21.4543 16.1938 21.5925 16.0397 21.7104 15.8788C21.8917 15.634 22.0254 15.3801 22.1184 15.1194C22.2136 14.8497 22.2634 14.5755 22.2725 14.3012C22.2793 14.036 22.2476 13.7731 22.1796 13.5147C22.1116 13.2541 22.005 13.0025 21.8668 12.7645L21.8623 12.7599C21.7716 12.6035 21.6651 12.454 21.5472 12.3089C21.4293 12.1638 21.2956 12.0278 21.1528 11.8986C21.1188 11.8692 21.1007 11.8216 21.1098 11.774C21.1415 11.6176 21.1619 11.4612 21.1687 11.3071C21.1755 11.1507 21.1709 10.9965 21.1551 10.8447C21.1211 10.5296 21.0372 10.2304 20.9148 9.95165C20.7856 9.657 20.6134 9.38501 20.4116 9.14702C20.2167 8.91583 19.9923 8.7141 19.7521 8.54637C19.5118 8.37865 19.2557 8.24719 18.995 8.15879L18.9882 8.15652C18.85 8.10893 18.7094 8.07493 18.5712 8.05226H18.5667C18.4307 8.0296 18.2947 8.02053 18.1609 8.0228C18.0997 8.02733 18.0408 7.98653 18.0249 7.92307C18.0023 7.83014 17.9728 7.73947 17.9388 7.65108C17.9025 7.56041 17.8617 7.47202 17.8141 7.38362C17.6918 7.15696 17.5308 6.94844 17.3427 6.76938C17.15 6.58579 16.9302 6.42939 16.6945 6.30926C16.4519 6.18687 16.1867 6.10074 15.9148 6.06221C15.6564 6.02594 15.3912 6.03047 15.1305 6.08487C14.8381 6.15514 14.5503 6.27526 14.2874 6.46566ZM17.9932 9.01782C18.0091 8.96796 18.0544 8.92943 18.1111 8.92489C18.2063 8.91809 18.3037 8.92263 18.4012 8.93849C18.5009 8.95436 18.6007 8.97929 18.7004 9.01329C18.8885 9.07675 19.0766 9.17422 19.2512 9.29661C19.4234 9.41674 19.5866 9.56407 19.7271 9.73179L19.7294 9.73633C19.8767 9.91085 20.0014 10.1058 20.0943 10.3188C20.1827 10.5183 20.2417 10.7314 20.2666 10.9557C20.2825 11.1053 20.2825 11.2617 20.2643 11.4204C20.2485 11.5677 20.2145 11.7196 20.1623 11.8714L20.1601 11.8805C20.1283 11.9757 20.1306 12.0754 20.1601 12.1638C20.1918 12.2545 20.2507 12.3361 20.3346 12.3905L20.3414 12.395C20.5 12.5129 20.6406 12.6421 20.763 12.7781C20.8899 12.9163 20.9987 13.0659 21.0894 13.2201C21.1891 13.39 21.2661 13.5668 21.3137 13.7482C21.3636 13.9272 21.3863 14.1086 21.3795 14.2876C21.3749 14.4735 21.3387 14.6593 21.2729 14.8429C21.2095 15.0175 21.1166 15.1897 20.9942 15.3574L20.9919 15.3597C20.8808 15.5116 20.7403 15.6612 20.5748 15.804C20.4162 15.9399 20.2326 16.0691 20.0218 16.1938L20.015 16.1983C19.9311 16.2459 19.8699 16.3185 19.8337 16.4023C19.7974 16.4862 19.7861 16.5791 19.8042 16.6698L19.8065 16.6879C19.8495 17.0347 19.8291 17.3656 19.7589 17.6671C19.6818 17.9957 19.5481 18.2904 19.3736 18.542C19.2398 18.7346 19.0857 18.9001 18.9202 19.0316C18.7502 19.1676 18.5667 19.2673 18.3785 19.3285H18.3763C18.3083 19.3489 18.2335 19.3103 18.2131 19.2424C17.9569 18.406 17.515 18.1363 16.767 17.7509L16.7511 17.7419C16.6469 17.692 16.5335 17.6875 16.4315 17.7192C16.3295 17.7509 16.2411 17.8212 16.189 17.9232L16.1822 17.9368C16.1323 18.0411 16.1278 18.1544 16.1595 18.2564C16.1935 18.3584 16.2661 18.449 16.3703 18.5034C16.9959 18.823 17.4583 19.0656 17.4515 19.8498C17.4492 20.0833 17.3767 20.3099 17.2543 20.5139C17.1251 20.7292 16.9392 20.9219 16.7239 21.0783C16.5041 21.2369 16.257 21.3525 16.0032 21.4092C15.7606 21.4659 15.5113 21.4681 15.2778 21.4047C14.8835 21.2959 14.6273 21.0329 14.4551 20.7134C14.2919 20.4096 14.2012 20.0561 14.1355 19.7342C14.131 19.7229 14.131 19.7093 14.131 19.6979C14.131 19.5347 14.004 19.4282 13.8386 19.3806C13.766 19.3579 13.6867 19.3489 13.6096 19.3489C13.5303 19.3489 13.4533 19.3602 13.3807 19.3806C13.2175 19.4305 13.0906 19.537 13.0906 19.6979C13.0906 19.7093 13.0883 19.7183 13.0861 19.7297C12.9591 20.2328 12.7755 20.6114 12.5602 20.8834C12.3086 21.2029 12.014 21.3775 11.7103 21.4409C11.4881 21.4863 11.2592 21.4749 11.0416 21.4183C10.8127 21.3571 10.5951 21.246 10.4047 21.1009C10.2166 20.9536 10.0602 20.7746 9.9514 20.5728C9.8471 20.3802 9.7859 20.1671 9.7859 19.9495C9.7859 19.1245 10.2846 18.848 10.9442 18.5102C11.0484 18.4558 11.1209 18.3652 11.1549 18.2632C11.1889 18.1589 11.1821 18.0433 11.13 17.9368C11.0756 17.8325 10.985 17.76 10.883 17.726C10.781 17.6943 10.6676 17.6988 10.5634 17.7487L10.5566 17.7509C9.7791 18.1476 9.31448 18.4377 9.0357 19.3013C9.01983 19.3579 8.96543 19.401 8.90423 19.3987C8.82717 19.3965 8.75011 19.3874 8.67078 19.3715C8.59371 19.3557 8.51665 19.3353 8.44412 19.3081C8.26053 19.2446 8.07693 19.1517 7.90467 19.0338C7.73468 18.916 7.57602 18.7754 7.43549 18.6122C7.29043 18.4445 7.16577 18.2564 7.07057 18.0501C6.97991 17.8575 6.91645 17.6512 6.88471 17.4359V17.4314C6.86205 17.2727 6.85751 17.1072 6.87565 16.9372C6.89151 16.7786 6.92551 16.6131 6.98218 16.4499L6.98444 16.4431C7.01618 16.3502 7.01391 16.2527 6.98671 16.1666L6.98444 16.1621C6.95498 16.0714 6.89605 15.9921 6.81445 15.9354L6.80992 15.9309C6.66486 15.8221 6.53339 15.7065 6.4178 15.5796C6.29994 15.4526 6.19567 15.3166 6.10954 15.1761C6.00528 15.0061 5.92369 14.8248 5.86929 14.6389C5.81716 14.4576 5.78996 14.2717 5.79222 14.0814C5.79449 13.8887 5.82849 13.6915 5.89649 13.4988C5.96222 13.3153 6.05741 13.1317 6.18887 12.9526C6.29994 12.8007 6.43593 12.6511 6.59913 12.5084C6.75552 12.3701 6.93231 12.2386 7.1363 12.114C7.2111 12.0686 7.2655 12.0052 7.30176 11.9326L7.30403 11.9258C7.3403 11.851 7.3539 11.7672 7.34256 11.6833C7.3403 11.6743 7.3403 11.6652 7.3403 11.6561V11.6516C7.32896 11.5723 7.32216 11.4929 7.31763 11.4159C7.3131 11.332 7.3131 11.2481 7.31536 11.1665C7.3267 10.8696 7.38336 10.5908 7.47629 10.3392C7.57602 10.0695 7.71655 9.82699 7.88427 9.62073C8.02254 9.45074 8.1812 9.30794 8.34666 9.19688C8.51212 9.08582 8.68664 9.00649 8.8657 8.96116C8.9337 8.94076 9.0085 8.97929 9.0289 9.04729C9.16942 9.49154 9.34622 9.77033 9.6839 10.0854L9.6975 10.0967C9.7814 10.1738 9.8902 10.21 9.9967 10.2055C10.1033 10.201 10.2075 10.1579 10.2846 10.074L10.2914 10.065C10.3684 9.98112 10.4047 9.87232 10.4002 9.76579C10.3956 9.65926 10.3503 9.55273 10.2642 9.47114C9.9922 9.21955 9.931 9.06315 9.8494 8.8093C9.7542 8.51691 9.7701 8.23132 9.863 7.97746C9.9265 7.80294 10.0262 7.63974 10.1531 7.49695C10.2778 7.35415 10.4296 7.22723 10.5974 7.12976L10.6042 7.12523C10.7764 7.0255 10.9623 6.95297 11.1549 6.91671C11.3385 6.88271 11.5267 6.88044 11.7103 6.91897C11.9686 6.97337 12.2225 7.10936 12.4469 7.34509C12.6441 7.55135 12.8186 7.83694 12.9569 8.21319L12.9591 8.21772C13.0067 8.36505 13.1609 8.45118 13.3422 8.48518C13.4238 8.50104 13.5099 8.50558 13.5938 8.50104H13.596C13.6822 8.49651 13.7638 8.48064 13.8408 8.45571C13.9768 8.41038 14.0834 8.33785 14.1083 8.24492V8.19279C14.1083 7.92987 14.2647 7.65108 14.48 7.42215C14.7157 7.17283 15.0308 6.97564 15.296 6.92124C15.4637 6.88724 15.6337 6.88497 15.7992 6.90991C15.9714 6.9371 16.1391 6.9915 16.2978 7.07083L16.3114 7.07537C16.4723 7.15696 16.6197 7.26123 16.7489 7.38362C16.8758 7.50602 16.9846 7.64428 17.0662 7.79614C17.1954 8.03413 17.2543 8.30612 17.2135 8.59397C17.1772 8.84556 17.1682 9.00422 16.9574 9.25581L16.9551 9.25808C16.8803 9.34648 16.8486 9.45754 16.8577 9.56633C16.8667 9.6706 16.9143 9.77259 16.9982 9.84512L17.0118 9.85646C17.1002 9.92899 17.209 9.95845 17.3155 9.94939C17.4198 9.94032 17.5218 9.89272 17.5943 9.80886L17.6056 9.79299C17.8232 9.5346 17.8935 9.34421 17.9932 9.01782ZM26.2798 13.3266H23.2721C23.195 13.0727 23.0862 12.8257 22.9502 12.5899L22.9457 12.5831C22.9343 12.5627 22.923 12.5446 22.9117 12.5242H25.8809V9.90632C25.8582 9.89272 25.8356 9.87912 25.8129 9.86326C25.7676 9.83152 25.7268 9.79752 25.6882 9.75899C25.6066 9.6774 25.5386 9.57767 25.4933 9.4666C25.4502 9.36008 25.4253 9.24448 25.4253 9.12208C25.4253 9.00196 25.4502 8.88409 25.4933 8.77756C25.5386 8.6665 25.6066 8.56904 25.6882 8.48518C25.7698 8.40358 25.8696 8.33558 25.9806 8.29025C26.0872 8.24719 26.2027 8.22225 26.3251 8.22225C26.4453 8.22225 26.5609 8.24719 26.6697 8.29025C26.7807 8.33558 26.8805 8.40358 26.9621 8.48518C27.0436 8.56677 27.1116 8.6665 27.157 8.77756C27.2 8.88409 27.225 8.99969 27.225 9.12208C27.225 9.23995 27.2023 9.35328 27.1592 9.45981L27.157 9.4666C27.1116 9.57767 27.0436 9.67513 26.9621 9.75899C26.9122 9.80886 26.8533 9.85419 26.7921 9.89272C26.7581 9.91312 26.7195 9.93352 26.6833 9.94939V12.9231C26.6833 13.0342 26.6379 13.1339 26.5654 13.2065C26.4906 13.2813 26.3909 13.3266 26.2798 13.3266ZM23.1361 11.3909H22.1116C22.1388 11.2413 22.1546 11.0917 22.1614 10.9421C22.166 10.822 22.166 10.7042 22.1592 10.5886H22.7349V9.40541C22.7032 9.38954 22.6737 9.37367 22.6442 9.35328C22.5898 9.31928 22.54 9.27848 22.4924 9.23088C22.4108 9.14928 22.3428 9.04955 22.2974 8.93849C22.2544 8.83196 22.2294 8.71637 22.2294 8.59624C22.2294 8.47611 22.2544 8.36051 22.2974 8.25172C22.3428 8.14519 22.4062 8.04773 22.4856 7.96613L22.4924 7.95933C22.574 7.87773 22.6737 7.80974 22.7848 7.76441C22.8913 7.72134 23.0069 7.69641 23.1293 7.69641C23.2517 7.69641 23.3673 7.72134 23.4738 7.76441C23.5803 7.80974 23.6778 7.8732 23.7594 7.9548L23.7662 7.95933C23.8478 8.04093 23.9135 8.13612 23.9588 8.24492L23.9611 8.25172C24.0042 8.35825 24.0291 8.47384 24.0291 8.59624C24.0291 8.71637 24.0042 8.83423 23.9611 8.94076C23.9158 9.04729 23.8523 9.14475 23.773 9.22635L23.7662 9.23315C23.7231 9.27621 23.6755 9.31474 23.6211 9.35101C23.5939 9.36914 23.5667 9.38501 23.5373 9.39861V10.9897C23.5373 11.1008 23.4919 11.2005 23.4194 11.2731C23.3469 11.3456 23.2449 11.3909 23.1361 11.3909ZM9.29182 4.53C9.39835 4.57306 9.5139 4.598 9.6363 4.598C9.7587 4.598 9.8743 4.57306 9.9809 4.53C10.0874 4.48467 10.1848 4.4212 10.2642 4.33961L10.271 4.33507C10.3163 4.28974 10.3594 4.23761 10.3934 4.18095C10.4115 4.15148 10.4296 4.11975 10.4455 4.08575H11.8757V5.32104C12.1273 5.18731 12.3993 5.08984 12.6781 5.03318V3.68457C12.6781 3.5735 12.6328 3.47377 12.5602 3.40124C12.4877 3.32871 12.388 3.28338 12.2769 3.28338H10.4319C10.4183 3.25618 10.4024 3.22898 10.3843 3.20179C10.3526 3.15419 10.3163 3.10886 10.2755 3.06806L10.2687 3.06126C10.1871 2.97966 10.0874 2.91166 9.9763 2.86633C9.8698 2.82327 9.7542 2.79834 9.6318 2.79834C9.5139 2.79834 9.39835 2.821 9.29409 2.86407L9.28729 2.86633C9.17622 2.91166 9.07876 2.97966 8.9949 3.06126C8.9133 3.14285 8.8453 3.24258 8.79997 3.35365C8.75691 3.46018 8.73197 3.57577 8.73197 3.69817C8.73197 3.81829 8.75691 3.93389 8.79997 4.04269C8.8453 4.15375 8.9133 4.25348 8.9949 4.33507C9.08329 4.41667 9.18076 4.48467 9.29182 4.53ZM13.3558 1.2208V5.74942C13.4646 5.63836 13.5802 5.54089 13.698 5.45476C13.8454 5.34823 13.9995 5.25984 14.1582 5.19184V1.61971H16.7761C16.7897 1.64238 16.8033 1.66505 16.8191 1.68771C16.8509 1.73304 16.8849 1.77384 16.9234 1.81237C17.005 1.89397 17.1047 1.96197 17.2158 2.0073C17.3223 2.05036 17.4379 2.0753 17.5603 2.0753C17.6804 2.0753 17.7983 2.05036 17.9048 2.0073C18.0159 1.96197 18.1156 1.89397 18.1972 1.81237C18.2788 1.73078 18.3468 1.63105 18.3921 1.51999C18.4352 1.41346 18.4601 1.29786 18.4601 1.17547C18.4601 1.05534 18.4352 0.939742 18.3921 0.830946C18.3468 0.719884 18.2788 0.620154 18.1972 0.538558C18.1111 0.456961 18.0113 0.388964 17.9003 0.343632C17.7937 0.300567 17.6782 0.275635 17.558 0.275635C17.4402 0.275635 17.3268 0.298301 17.2203 0.341365L17.2135 0.343632C17.1024 0.388964 17.005 0.456961 16.9211 0.538558C16.8713 0.588422 16.8259 0.647353 16.7874 0.708551C16.767 0.74255 16.7466 0.781081 16.7307 0.817347H13.757C13.6459 0.817347 13.5462 0.862678 13.4737 0.935209C13.4011 1.01001 13.3558 1.10974 13.3558 1.2208ZM1.90278 12.8438H4.03336C3.99709 12.9254 3.96536 13.0093 3.9359 13.0909C3.87243 13.2745 3.8271 13.458 3.7999 13.6439H1.90278C1.88691 13.6734 1.87105 13.7028 1.85291 13.7323C1.81891 13.7867 1.77812 13.8366 1.73505 13.8796C1.65119 13.9635 1.55372 14.0292 1.44266 14.0746C1.33613 14.1176 1.22054 14.1426 1.09814 14.1426C0.98028 14.1426 0.86695 14.1199 0.76042 14.0768L0.75362 14.0746C0.64256 14.0292 0.5451 13.9612 0.461234 13.8796C0.379638 13.798 0.31164 13.6983 0.266309 13.5872C0.223244 13.4807 0.198311 13.3651 0.198311 13.2427C0.198311 13.1226 0.223244 13.007 0.266309 12.8982C0.31164 12.7871 0.379638 12.6874 0.461234 12.6058C0.54283 12.5242 0.64256 12.4562 0.75362 12.4109C0.86015 12.3678 0.97575 12.3429 1.09814 12.3429C1.216 12.3429 1.32933 12.3656 1.43586 12.4086L1.44266 12.4109C1.55372 12.4562 1.65119 12.5242 1.73505 12.6058C1.77812 12.6489 1.81665 12.6965 1.85065 12.7486L1.85518 12.7554C1.87105 12.7849 1.88691 12.8143 1.90278 12.8438ZM1.14121 15.0379H3.91323C3.99936 15.3121 4.12402 15.5773 4.28268 15.8289V15.8312L4.28722 15.8402H1.54013V18.4581C1.56279 18.4717 1.58546 18.4853 1.60812 18.5012C1.65345 18.5329 1.69425 18.5669 1.73278 18.6054C1.81438 18.687 1.88238 18.7868 1.92771 18.8978C1.97077 19.0044 1.99571 19.12 1.99571 19.2424C1.99571 19.3625 1.97077 19.4803 1.92771 19.5869C1.88238 19.6979 1.81438 19.7954 1.73278 19.8793C1.65119 19.9609 1.55146 20.0289 1.4404 20.0742C1.33387 20.1172 1.21827 20.1422 1.09588 20.1422C0.97575 20.1422 0.86015 20.1172 0.75136 20.0742C0.64029 20.0289 0.54056 19.9609 0.458968 19.8793C0.377371 19.7909 0.309374 19.6911 0.264042 19.5823C0.220977 19.4758 0.196045 19.3602 0.196045 19.2378C0.196045 19.12 0.218711 19.0066 0.261776 18.9001L0.264042 18.8933C0.309374 18.7822 0.377371 18.6848 0.458968 18.6009C0.50883 18.551 0.56776 18.5057 0.62896 18.4672C0.66296 18.4468 0.70149 18.4264 0.73776 18.4105V15.4368C0.73776 15.3257 0.78309 15.226 0.85562 15.1534C0.93042 15.0832 1.03015 15.0379 1.14121 15.0379ZM15.1623 26.4206V23.2497C14.8789 23.1613 14.6115 23.0185 14.3667 22.8167L14.3622 22.8122V26.4229C14.3327 26.4387 14.3032 26.4546 14.2738 26.4727C14.2194 26.5067 14.1695 26.5475 14.1264 26.5906C14.0448 26.6745 13.9768 26.7719 13.9315 26.883C13.8884 26.9895 13.8635 27.1051 13.8635 27.2275C13.8635 27.3454 13.8862 27.4587 13.9292 27.5652L13.9315 27.572C13.9768 27.6831 14.0448 27.7805 14.1264 27.8644C14.208 27.946 14.3078 28.014 14.4188 28.0593C14.5253 28.1024 14.6409 28.1273 14.7633 28.1273C14.8835 28.1273 14.9991 28.1024 15.1079 28.0593C15.2189 28.014 15.3186 27.946 15.4002 27.8644C15.4818 27.7828 15.5498 27.6831 15.5952 27.572C15.6382 27.4655 15.6632 27.3499 15.6632 27.2275C15.6632 27.1096 15.6405 26.9963 15.5974 26.8898L15.5952 26.883C15.5498 26.7719 15.4818 26.6745 15.4002 26.5906C15.3572 26.5475 15.3096 26.509 15.2574 26.475L15.2506 26.4705C15.2212 26.4523 15.1917 26.4365 15.1623 26.4206ZM12.9682 27.1822V22.6128C12.873 22.7102 12.7733 22.7963 12.669 22.8757C12.5081 22.9981 12.3404 23.0955 12.1658 23.1726V26.7855H9.5479C9.5343 26.7629 9.5207 26.7402 9.5049 26.7175C9.47314 26.6722 9.43915 26.6314 9.40061 26.5929C9.31902 26.5113 9.21929 26.4433 9.10823 26.3979C9.0017 26.3549 8.8861 26.3299 8.76371 26.3299C8.64358 26.3299 8.52572 26.3549 8.41919 26.3979C8.30812 26.4433 8.21066 26.5113 8.1268 26.5929C8.0452 26.6745 7.9772 26.7742 7.93187 26.8852C7.88881 26.9918 7.86388 27.1074 7.86388 27.2298C7.86388 27.3499 7.88881 27.4655 7.93187 27.5743C7.9772 27.6854 8.0452 27.7851 8.1268 27.8667C8.2084 27.9483 8.30812 28.0163 8.41919 28.0616C8.52572 28.1047 8.64131 28.1296 8.76371 28.1296C8.88157 28.1296 8.9949 28.1069 9.10143 28.0639L9.10823 28.0616C9.21929 28.0163 9.31675 27.9483 9.40061 27.8667C9.45048 27.8168 9.49581 27.7579 9.5343 27.6967C9.5547 27.6627 9.5751 27.6242 9.591 27.5879H12.5648C12.6758 27.5879 12.7755 27.5426 12.8481 27.47C12.9229 27.393 12.9682 27.2932 12.9682 27.1822Z" fill="url(#paint0_linear_1231_2745)"/>
<defs>
<linearGradient id="paint0_linear_1231_2745" x1="13.7105" y1="0.275635" x2="13.7105" y2="28.1296" gradientUnits="userSpaceOnUse">
<stop stop-color="#86CED7"/>
<stop offset="1" stop-color="#6EB0DC"/>
</linearGradient>
</defs>
</svg>
