<svg width="14" height="18" viewBox="0 0 14 18" fill="none" xmlns="http://www.w3.org/2000/svg">
<path d="M10.96 6.43493V4.75095C10.96 2.39339 9.10763 0.541016 6.75006 0.541016C4.3925 0.541016 2.54012 2.39339 2.54012 4.75095V6.43493C1.10874 6.43493 0.0141602 7.52951 0.0141602 8.96089V14.8548C0.0141602 16.2862 1.10874 17.3808 2.54012 17.3808H10.96C12.3914 17.3808 13.486 16.2862 13.486 14.8548V8.96089C13.486 7.52951 12.3914 6.43493 10.96 6.43493ZM4.2241 4.75095C4.2241 3.31958 5.31868 2.22499 6.75006 2.22499C8.18144 2.22499 9.27603 3.31958 9.27603 4.75095V6.43493H4.2241V4.75095ZM7.59205 13.1708C7.59205 13.676 7.25526 14.0128 6.75006 14.0128C6.24487 14.0128 5.90807 13.676 5.90807 13.1708V10.6449C5.90807 10.1397 6.24487 9.80288 6.75006 9.80288C7.25526 9.80288 7.59205 10.1397 7.59205 10.6449V13.1708Z" fill="#9A9A9A"/>
</svg>
