<svg width="107" height="108" viewBox="0 0 107 108" fill="none" xmlns="http://www.w3.org/2000/svg">
<path fill-rule="evenodd" clip-rule="evenodd" d="M10.0312 53.5603C10.0312 29.5522 29.4919 10.0916 53.5 10.0916C77.5081 10.0916 96.9688 29.5522 96.9688 53.5603C96.9688 77.5684 77.5081 97.0291 53.5 97.0291C29.4919 97.0291 10.0312 77.5684 10.0312 53.5603ZM69.5946 45.4729C69.8621 45.1165 70.0556 44.7101 70.1639 44.2778C70.2721 43.8455 70.2928 43.3959 70.2248 42.9555C70.1568 42.5151 70.0014 42.0927 69.7678 41.7132C69.5342 41.3336 69.2271 41.0046 68.8646 40.7455C68.502 40.4864 68.0913 40.3023 67.6566 40.2042C67.2219 40.106 66.7719 40.0958 66.3332 40.174C65.8945 40.2522 65.4758 40.4174 65.1018 40.6597C64.7278 40.9021 64.4061 41.2167 64.1554 41.5852L49.7283 61.7815L42.4879 54.5411C41.8541 53.9505 41.0157 53.6289 40.1494 53.6442C39.2832 53.6595 38.4567 54.0104 37.844 54.6231C37.2314 55.2357 36.8805 56.0622 36.8652 56.9285C36.8499 57.7947 37.1714 58.6331 37.7621 59.267L47.7933 69.2982C48.1366 69.6412 48.5504 69.9054 49.0059 70.0724C49.4615 70.2394 49.948 70.3053 50.4316 70.2654C50.9152 70.2255 51.3843 70.0809 51.8064 69.8415C52.2285 69.6021 52.5934 69.2737 52.8758 68.8791L69.5946 45.4729Z" fill="url(#paint0_linear_100_579)"/>
<defs>
<linearGradient id="paint0_linear_100_579" x1="53.5" y1="10.0916" x2="53.5" y2="97.0291" gradientUnits="userSpaceOnUse">
<stop stop-color="#86CED7"/>
<stop offset="1" stop-color="#6EB0DC"/>
</linearGradient>
</defs>
</svg>
