<svg width="20" height="21" viewBox="0 0 20 21" fill="none" xmlns="http://www.w3.org/2000/svg">
<path fill-rule="evenodd" clip-rule="evenodd" d="M10.052 0.110474H9.948C9.049 0.110474 8.3 0.110474 7.706 0.190474C7.078 0.274474 6.511 0.460474 6.056 0.915474C5.6 1.37147 5.414 1.93847 5.33 2.56547C5.273 2.99247 5.256 4.01147 5.252 4.88547C3.23 4.95247 2.015 5.18847 1.172 6.03247C-1.19209e-07 7.20347 0 9.08947 0 12.8605C0 16.6315 -1.19209e-07 18.5175 1.172 19.6885C2.343 20.8605 4.229 20.8605 8 20.8605H12C15.771 20.8605 17.657 20.8605 18.828 19.6885C20 18.5175 20 16.6315 20 12.8605C20 9.08947 20 7.20347 18.828 6.03247C17.985 5.18847 16.77 4.95247 14.748 4.88647C14.744 4.01147 14.728 2.99247 14.67 2.56647C14.586 1.93847 14.4 1.37147 13.944 0.916474C13.489 0.460474 12.922 0.274474 12.294 0.190474C11.7 0.110474 10.95 0.110474 10.052 0.110474ZM13.248 4.86247C13.243 4.01547 13.229 3.10447 13.184 2.76547C13.121 2.30447 13.014 2.10647 12.884 1.97647C12.754 1.84647 12.556 1.73947 12.094 1.67647C11.612 1.61247 10.964 1.61047 10 1.61047C9.036 1.61047 8.388 1.61247 7.905 1.67747C7.444 1.73947 7.246 1.84647 7.116 1.97747C6.986 2.10747 6.879 2.30447 6.816 2.76547C6.771 3.10547 6.756 4.01547 6.752 4.86247C7.143 4.86047 7.56 4.86047 8 4.86047H12C12.441 4.86047 12.857 4.86047 13.248 4.86247ZM10 8.11047C10.1989 8.11047 10.3897 8.18949 10.5303 8.33014C10.671 8.4708 10.75 8.66156 10.75 8.86047V8.87047C11.839 9.14447 12.75 10.0035 12.75 11.1935C12.75 11.3924 12.671 11.5832 12.5303 11.7238C12.3897 11.8645 12.1989 11.9435 12 11.9435C11.8011 11.9435 11.6103 11.8645 11.4697 11.7238C11.329 11.5832 11.25 11.3924 11.25 11.1935C11.25 10.8095 10.824 10.2775 10 10.2775C9.176 10.2775 8.75 10.8095 8.75 11.1935C8.75 11.5775 9.176 12.1105 10 12.1105C11.385 12.1105 12.75 13.0705 12.75 14.5275C12.75 15.7175 11.839 16.5755 10.75 16.8505V16.8605C10.75 17.0594 10.671 17.2502 10.5303 17.3908C10.3897 17.5315 10.1989 17.6105 10 17.6105C9.80109 17.6105 9.61032 17.5315 9.46967 17.3908C9.32902 17.2502 9.25 17.0594 9.25 16.8605V16.8505C8.161 16.5765 7.25 15.7175 7.25 14.5275C7.25 14.3286 7.32902 14.1378 7.46967 13.9971C7.61032 13.8565 7.80109 13.7775 8 13.7775C8.19891 13.7775 8.38968 13.8565 8.53033 13.9971C8.67098 14.1378 8.75 14.3286 8.75 14.5275C8.75 14.9115 9.176 15.4435 10 15.4435C10.824 15.4435 11.25 14.9115 11.25 14.5275C11.25 14.1435 10.824 13.6105 10 13.6105C8.615 13.6105 7.25 12.6505 7.25 11.1935C7.25 10.0035 8.161 9.14447 9.25 8.87047V8.86047C9.25 8.66156 9.32902 8.4708 9.46967 8.33014C9.61032 8.18949 9.80109 8.11047 10 8.11047Z" fill="url(#paint0_linear_1498_7814)"/>
<defs>
<linearGradient id="paint0_linear_1498_7814" x1="10" y1="0.110474" x2="10" y2="20.8605" gradientUnits="userSpaceOnUse">
<stop stop-color="#86CED7"/>
<stop offset="1" stop-color="#6EB0DC"/>
</linearGradient>
</defs>
</svg>
