<svg width="25" height="25" viewBox="0 0 25 25" fill="none" xmlns="http://www.w3.org/2000/svg">
<path d="M23.269 13.9111C23.2706 13.1601 23.0841 12.4207 22.7266 11.7602C22.3692 11.0997 21.8521 10.5392 21.2225 10.1297C20.593 9.72025 19.8709 9.47486 19.1222 9.41592C18.3735 9.35698 17.622 9.48636 16.9361 9.79226C16.2502 10.0982 15.6518 10.5709 15.1954 11.1673C14.739 11.7637 14.4391 12.4649 14.3231 13.2069C14.2071 13.9489 14.2786 14.7081 14.5311 15.4154C14.7837 16.1226 15.2093 16.7555 15.769 17.2561V22.9111L18.769 21.4914L21.769 22.9111V17.2561C22.2406 16.8357 22.6179 16.3203 22.8764 15.7439C23.1349 15.1674 23.2687 14.5429 23.269 13.9111ZM20.269 20.5411L18.769 19.8309L17.269 20.5411V18.1486C18.2384 18.4987 19.2997 18.4987 20.269 18.1486V20.5411ZM18.144 10.4736C17.5507 10.4736 18.7483 13.2812 18.2549 12.9516C17.7616 12.6219 17.8168 14.0479 17.5897 13.4998C17.3626 12.9516 17.1874 13.1766 17.3031 12.5947C17.4189 12.0127 19.4404 16.4924 19.86 16.0728C20.2795 15.6532 17.6018 11.0845 18.1838 10.9688C18.7657 10.853 15.799 13.3559 16.3472 13.583C16.8953 13.8101 18.2227 13.8264 18.5524 14.3198C18.882 14.8131 18.0765 13.548 18.0765 14.1413C18.0755 14.9366 19.2932 12.9246 18.7308 13.487C18.1684 14.0494 18.9394 10.4726 18.144 10.4736ZM7.51904 10.9111H12.769V12.4111H7.51904V10.9111ZM7.51904 6.41113H15.019V7.91113H7.51904V6.41113Z" fill="url(#paint0_linear_105_817)"/>
<path d="M5.26904 22.9111C4.87134 22.9107 4.49004 22.7526 4.20882 22.4714C3.9276 22.1901 3.76944 21.8088 3.76904 21.4111V3.41113C3.76944 3.01343 3.9276 2.63213 4.20882 2.35091C4.49004 2.06969 4.87134 1.91153 5.26904 1.91113H17.269C17.6667 1.91153 18.048 2.06969 18.3293 2.35091C18.6105 2.63213 18.7686 3.01343 18.769 3.41113V6.41113H17.269V3.41113H5.26904V21.4111H12.769V22.9111H5.26904Z" fill="url(#paint1_linear_105_817)"/>
<defs>
<linearGradient id="paint0_linear_105_817" x1="15.394" y1="6.41113" x2="15.394" y2="22.9111" gradientUnits="userSpaceOnUse">
<stop stop-color="#86CED7"/>
<stop offset="1" stop-color="#6EB0DC"/>
</linearGradient>
<linearGradient id="paint1_linear_105_817" x1="11.269" y1="1.91113" x2="11.269" y2="22.9111" gradientUnits="userSpaceOnUse">
<stop stop-color="#86CED7"/>
<stop offset="1" stop-color="#6EB0DC"/>
</linearGradient>
</defs>
</svg>
