<svg width="52" height="52" viewBox="0 0 52 52" fill="none" xmlns="http://www.w3.org/2000/svg">
<g filter="url(#filter0_d_452_678)">
<circle cx="26.1387" cy="26.25" r="21.5" fill="white"/>
</g>
<path d="M33.2872 31.5594L37.7487 36.0198L36.2747 37.4938L31.8143 33.0323C30.1547 34.3627 28.0903 35.0864 25.9633 35.0833C20.7883 35.0833 16.5883 30.8833 16.5883 25.7083C16.5883 20.5333 20.7883 16.3333 25.9633 16.3333C31.1383 16.3333 35.3383 20.5333 35.3383 25.7083C35.3413 27.8354 34.6177 29.8997 33.2872 31.5594ZM31.1976 30.7865C32.5196 29.427 33.2579 27.6046 33.2549 25.7083C33.2549 21.6792 29.9914 18.4167 25.9633 18.4167C21.9341 18.4167 18.6716 21.6792 18.6716 25.7083C18.6716 29.7365 21.9341 33 25.9633 33C27.8595 33.003 29.6819 32.2647 31.0414 30.9427L31.1976 30.7865Z" fill="url(#paint0_linear_452_678)"/>
<defs>
<filter id="filter0_d_452_678" x="0.638672" y="0.75" width="51" height="51" filterUnits="userSpaceOnUse" color-interpolation-filters="sRGB">
<feFlood flood-opacity="0" result="BackgroundImageFix"/>
<feColorMatrix in="SourceAlpha" type="matrix" values="0 0 0 0 0 0 0 0 0 0 0 0 0 0 0 0 0 0 127 0" result="hardAlpha"/>
<feOffset/>
<feGaussianBlur stdDeviation="2"/>
<feComposite in2="hardAlpha" operator="out"/>
<feColorMatrix type="matrix" values="0 0 0 0 0 0 0 0 0 0 0 0 0 0 0 0 0 0 0.25 0"/>
<feBlend mode="normal" in2="BackgroundImageFix" result="effect1_dropShadow_452_678"/>
<feBlend mode="normal" in="SourceGraphic" in2="effect1_dropShadow_452_678" result="shape"/>
</filter>
<linearGradient id="paint0_linear_452_678" x1="27.1685" y1="16.3333" x2="27.1685" y2="37.4938" gradientUnits="userSpaceOnUse">
<stop stop-color="#86CED7"/>
<stop offset="1" stop-color="#6EB0DC"/>
</linearGradient>
</defs>
</svg>
