<svg width="21" height="24" viewBox="0 0 21 24" fill="none" xmlns="http://www.w3.org/2000/svg">
<path d="M16.1941 16.8183L20.0626 21.8017L18.4159 23.0798L14.5485 18.0954C12.7355 19.2078 10.5969 19.6676 8.48692 19.3985C3.35256 18.7513 -0.289131 14.0589 0.35815 8.92455C1.00543 3.79019 5.69778 0.148499 10.8321 0.79578C15.9665 1.44306 19.6082 6.13541 18.9609 11.2698C18.6979 13.3805 17.7217 15.3381 16.1941 16.8183ZM14.2176 15.7901C15.6993 14.6066 16.6597 12.891 16.8939 11.0092C17.3979 7.01166 14.568 3.36659 10.5716 2.86275C6.57403 2.35879 2.92909 5.1876 2.42512 9.18513C1.92129 13.1816 4.74997 16.8276 8.7475 17.3316C10.6285 17.5717 12.5289 17.0672 14.0431 15.9256L14.2176 15.7901Z" fill="#BBBBBB"/>
</svg>
