<svg width="22" height="22" viewBox="0 0 22 22" fill="none" xmlns="http://www.w3.org/2000/svg">
<path d="M16.7823 15.8958L21.2437 20.3563L19.7698 21.8302L15.3094 17.3688C13.6497 18.6992 11.5854 19.4228 9.45833 19.4198C4.28333 19.4198 0.083333 15.2198 0.083333 10.0448C0.083333 4.8698 4.28333 0.6698 9.45833 0.6698C14.6333 0.6698 18.8333 4.8698 18.8333 10.0448C18.8364 12.1719 18.1127 14.2362 16.7823 15.8958ZM14.6927 15.1229C16.0147 13.7634 16.753 11.9411 16.75 10.0448C16.75 6.01563 13.4865 2.75313 9.45833 2.75313C5.42917 2.75313 2.16667 6.01563 2.16667 10.0448C2.16667 14.0729 5.42917 17.3365 9.45833 17.3365C11.3546 17.3395 13.177 16.6012 14.5365 15.2792L14.6927 15.1229Z" fill="white"/>
</svg>
