<svg width="17" height="21" viewBox="0 0 17 21" fill="none" xmlns="http://www.w3.org/2000/svg">
<path d="M9.76904 7.8632H15.269L9.76904 2.3632V7.8632ZM2.76904 0.863205H10.769L16.769 6.8632V18.8632C16.769 19.3936 16.5583 19.9023 16.1833 20.2774C15.8082 20.6525 15.2995 20.8632 14.769 20.8632H2.76904C2.23861 20.8632 1.7299 20.6525 1.35483 20.2774C0.979757 19.9023 0.769043 19.3936 0.769043 18.8632V2.8632C0.769043 1.7532 1.65904 0.863205 2.76904 0.863205ZM11.769 16.8632V14.8632H2.76904V16.8632H11.769ZM14.769 12.8632V10.8632H2.76904V12.8632H14.769Z" fill="url(#paint0_linear_253_788)"/>
<defs>
<linearGradient id="paint0_linear_253_788" x1="8.76904" y1="0.863205" x2="8.76904" y2="20.8632" gradientUnits="userSpaceOnUse">
<stop stop-color="#86CED7"/>
<stop offset="1" stop-color="#6EB0DC"/>
</linearGradient>
</defs>
</svg>
