<svg width="20" height="18" viewBox="0 0 20 18" fill="none" xmlns="http://www.w3.org/2000/svg">
<path fill-rule="evenodd" clip-rule="evenodd" d="M19.687 14.4111C19.7216 14.4097 19.756 14.4165 19.7875 14.4309C19.8189 14.4453 19.8466 14.467 19.8681 14.4941C19.8896 14.5211 19.9045 14.5529 19.9114 14.5868C19.9183 14.6207 19.9172 14.6558 19.908 14.6891C19.708 15.4011 19.389 16.0091 18.878 16.5191C18.129 17.2691 17.18 17.6001 16.008 17.7581C14.868 17.9111 13.413 17.9111 11.575 17.9111H9.46304C7.62504 17.9111 6.16904 17.9111 5.03004 17.7581C3.85804 17.6001 2.90904 17.2681 2.16004 16.5201C1.41204 15.7711 1.08004 14.8221 0.922043 13.6501C0.769043 12.5101 0.769043 11.0551 0.769043 9.21713V9.10513C0.769043 7.26713 0.769043 5.81113 0.922043 4.67113C1.08004 3.49913 1.41204 2.55013 2.16004 1.80113C2.90904 1.05313 3.85804 0.721133 5.03004 0.563133C6.17004 0.411133 7.62504 0.411133 9.46304 0.411133H11.575C13.413 0.411133 14.869 0.411133 16.008 0.564133C17.18 0.722133 18.129 1.05413 18.878 1.80213C19.389 2.31413 19.708 2.92113 19.908 3.63313C19.9172 3.6665 19.9183 3.70156 19.9114 3.73545C19.9045 3.76935 19.8896 3.80113 19.8681 3.82821C19.8466 3.8553 19.8189 3.87692 19.7875 3.89133C19.756 3.90574 19.7216 3.91252 19.687 3.91113H17.163C14.326 3.91113 11.826 6.15113 11.826 9.16113C11.826 12.1711 14.326 14.4111 17.163 14.4111H19.687ZM5.76904 12.9111C5.57013 12.9111 5.37936 12.8321 5.23871 12.6915C5.09806 12.5508 5.01904 12.36 5.01904 12.1611V6.16113C5.01904 5.96222 5.09806 5.77146 5.23871 5.6308C5.37936 5.49015 5.57013 5.41113 5.76904 5.41113C5.96796 5.41113 6.15872 5.49015 6.29937 5.6308C6.44003 5.77146 6.51904 5.96222 6.51904 6.16113V12.1611C6.51904 12.36 6.44003 12.5508 6.29937 12.6915C6.15872 12.8321 5.96796 12.9111 5.76904 12.9111Z" fill="url(#paint0_linear_253_792)"/>
<defs>
<linearGradient id="paint0_linear_253_792" x1="10.3425" y1="0.411133" x2="10.3425" y2="17.9111" gradientUnits="userSpaceOnUse">
<stop stop-color="#86CED7"/>
<stop offset="1" stop-color="#6EB0DC"/>
</linearGradient>
</defs>
</svg>
